<?xml version="1.0" encoding="UTF-8"?>
<svg width="161px" height="24px" viewBox="0 0 161 24" version="1.1" xmlns="http://www.w3.org/2000/svg" xmlns:xlink="http://www.w3.org/1999/xlink">
    <!-- Generator: Sketch 60 (88103) - https://sketch.com -->
    <title>alicloud</title>
    <desc>Created with Sketch.</desc>
    <g id="Symbols" stroke="none" stroke-width="1" fill="none" fill-rule="evenodd">
        <g id="icons/server" transform="translate(-896.000000, -145.000000)" fill="#FF6A00" fill-rule="nonzero">
            <g id="alicloud" transform="translate(896.000000, 145.000000)">
                <g id="Group" transform="translate(0.800049, 0.933122)">
                    <path d="M135.468468,7.45107821 L133.860321,7.45107821 C131.859072,7.45107821 130.21519,9.07709288 130.21519,11.09621 L130.21519,15.8134394 C130.21519,17.8146882 131.859072,19.4585712 133.860321,19.4585712 L135.468468,19.4585712 C137.469716,19.4585712 139.113599,17.8325565 139.113599,15.8134394 L139.113599,11.09621 C139.113599,9.07709288 137.469716,7.45107821 135.468468,7.45107821 Z M137.023009,15.7955711 C137.023009,16.6532491 136.326146,17.3501126 135.468468,17.3501126 L133.860321,17.3501126 C133.002643,17.3501126 132.30578,16.6532491 132.30578,15.7955711 L132.30578,11.0783417 C132.30578,10.2206636 133.002643,9.52380021 133.860321,9.52380021 L135.468468,9.52380021 C136.326146,9.52380021 137.023009,10.2206636 137.023009,11.0783417 L137.023009,15.7955711 Z M57.9022074,3.48431715 L59.9927977,3.48431715 L59.9927977,19.1726785 L57.9022074,19.1726785 L57.9022074,3.48431715 Z M62.4228856,7.71910261 L64.5134759,7.71910261 L64.5134759,19.1726785 L62.4228856,19.1726785 L62.4228856,7.71910261 Z M63.4771149,3.48431715 C62.7087783,3.48431715 62.083388,4.10970741 62.083388,4.87804401 C62.083388,5.64638061 62.7087783,6.28963916 63.4771149,6.28963916 C64.2454515,6.28963916 64.8708417,5.6642489 64.8708417,4.87804401 C64.8708417,4.10970741 64.2454515,3.48431715 63.4771149,3.48431715 Z M50.3975244,3.48431715 L47.8602267,3.48431715 C46.8953389,5.18180499 44.6081974,9.86329777 42.2495827,19.1726785 L44.4295145,19.1726785 C44.8047486,17.743215 45.1621145,16.4388296 45.5194803,15.241654 L53.1492415,15.241654 C53.5066074,16.4388296 53.8639732,17.743215 54.2392074,19.1726785 L56.4191391,19.1726785 C54.0605244,9.86329777 51.7733829,5.18180499 50.8084951,3.48431715 L50.3975244,3.48431715 Z M46.1627389,13.1331954 C47.3420462,9.48806362 48.4141438,7.05797576 49.1288755,5.61064402 L49.5398463,5.61064402 C50.254578,7.04010747 51.3088073,9.47019533 52.4881146,13.1331954 L46.1627389,13.1331954 Z M126.212692,3.46644886 L128.303282,3.46644886 L128.303282,19.1726785 L126.212692,19.1726785 L126.212692,3.46644886 Z M74.8770859,8.27301969 C73.7335151,7.36173674 71.8216077,7.20092211 69.0520223,7.77270749 L69.0520223,3.48431715 L66.961432,3.48431715 L66.961432,19.1726785 L68.9626809,19.1726785 C69.9990419,19.3513614 70.9996663,19.4407029 71.7501346,19.4407029 C73.0723883,19.4407029 74.090881,19.1548102 74.823481,18.5830248 C76.0742615,17.6002687 76.0742615,16.1350686 76.0742615,15.4203369 L76.0742615,11.2748929 C76.0563932,10.6137661 76.0742615,9.22003922 74.8770859,8.27301969 Z M73.9658029,14.8306832 L73.9658029,15.4203369 C73.9658029,16.0635955 73.9300663,16.6175126 73.5190956,16.9391418 C73.1438614,17.2429028 71.8216077,17.6360053 69.0520223,17.0642199 L69.0520223,9.89903436 C72.2147102,9.18430264 73.2689395,9.66674655 73.5727005,9.91690265 C73.9300663,10.2027953 73.9658029,10.6852393 73.9658029,11.2927612 L73.9658029,14.8306832 Z M115.545321,10.1670588 L115.545321,7.37960504 C115.545321,7.18305381 115.652531,6.14669282 116.974784,5.82506354 C119.42274,5.21754158 122.299536,5.6821172 123.746867,6.27177087 L124.265048,4.23478546 C122.942794,3.75234154 121.227438,3.46644886 119.52995,3.46644886 C118.475721,3.46644886 117.421492,3.57365861 116.474472,3.80594642 C114.080121,4.3956001 113.454731,6.41471721 113.454731,7.39747333 L113.454731,15.5275467 C113.454731,16.5103028 114.080121,18.5294199 116.474472,19.1190736 C117.421492,19.3513614 118.457853,19.4585712 119.52995,19.4585712 C121.20957,19.4585712 122.907058,19.1905468 124.211443,18.7081028 L123.693263,16.6711174 C122.228062,17.2429028 119.387004,17.6896101 116.974784,17.0820882 C115.634662,16.7425906 115.545321,15.7240979 115.545321,15.5275467 L115.545321,10.1670588 Z M147.475961,17.0820882 C144.795717,17.6360053 143.759356,17.2429028 143.384121,16.9391418 C142.973151,16.6175126 142.937414,16.0635955 142.937414,15.4203369 L142.937414,7.70123431 L140.846824,7.70123431 L140.846824,15.4203369 C140.846824,16.1350686 140.846824,17.6002687 142.097604,18.5830248 C142.830204,19.1548102 143.848697,19.4407029 145.170951,19.4407029 C145.903551,19.4407029 146.743361,19.3513614 147.69038,19.1726785 L149.584419,19.1726785 L149.584419,7.71910261 L147.493829,7.71910261 L147.493829,17.0820882 L147.475961,17.0820882 Z M159.983766,3.48431715 L157.893175,3.48431715 L157.893175,7.68336602 C155.355878,7.2187904 153.569049,7.41534162 152.479083,8.27301969 C151.281907,9.22003922 151.29976,10.6137661 151.29976,11.2927612 L151.29976,15.4024686 C151.29976,16.1172003 151.29976,17.5824004 152.550556,18.5651565 C153.283156,19.1369419 154.301649,19.4228346 155.623902,19.4228346 C156.356502,19.4228346 157.196312,19.3334931 158.143332,19.1548102 L160.001634,19.1548102 L160.001634,3.48431715 L159.983766,3.48431715 Z M153.837073,16.9391418 C153.426102,16.6175126 153.390366,16.0635955 153.390366,15.4203369 L153.390366,11.2927612 C153.390366,10.6852393 153.408234,10.2027953 153.783468,9.91690265 C154.087229,9.68461484 155.069985,9.23790752 157.893175,9.8096929 L157.893175,17.0820882 C155.248668,17.618137 154.212307,17.2429028 153.837073,16.9391418 L153.837073,16.9391418 Z M85.3300373,8.20154652 C83.2573153,6.71847819 79.397764,7.82631236 78.4686128,8.13007335 L78.9867933,10.1670588 C80.2018372,9.75608802 83.0428958,9.14856605 84.1149934,9.91690265 C84.3115446,10.059849 84.5259641,10.2921368 84.5259641,10.9353954 L84.5259641,12.4184637 C83.6504178,12.2755173 82.3996372,12.1683076 80.9523055,12.4184637 C79.6121835,12.6328832 78.6472957,13.1868003 78.057642,14.0266101 C77.5394615,14.7770784 77.3786469,15.7240979 77.6109347,16.7604589 C77.9861689,18.4936833 79.397764,19.4943077 81.5240909,19.4943077 C82.3996372,19.4943077 83.6146812,19.387098 84.5617007,19.2262833 L86.5986861,19.2262833 L86.5986861,10.8996588 C86.6165544,9.43445874 85.919691,8.61251726 85.3300373,8.20154652 L85.3300373,8.20154652 Z M79.6657884,16.278015 C79.5943152,15.9563857 79.5585786,15.5096784 79.7908665,15.1523125 C80.0946274,14.7056052 80.7736226,14.509054 81.2918031,14.4375808 C82.6855299,14.205293 83.8648373,14.3661076 84.5259641,14.509054 L84.5259641,17.0642199 C83.7397592,17.2250345 82.4353738,17.3501126 81.5240909,17.3501126 C79.8802079,17.3501126 79.7193933,16.581776 79.6657884,16.278015 L79.6657884,16.278015 Z M107.415248,8.20154652 C105.342526,6.71847819 101.500843,7.82631236 100.553823,8.13007335 L101.072004,10.1670588 C102.287047,9.75608802 105.128106,9.14856605 106.200204,9.91690265 C106.396755,10.059849 106.611174,10.2921368 106.611174,10.9353954 L106.611174,12.4184637 C105.735628,12.2755173 104.484847,12.1683076 103.037516,12.4184637 C101.697394,12.6328832 100.714638,13.1868003 100.142852,14.0266101 C99.6246718,14.7770784 99.4817254,15.7240979 99.6961449,16.7604589 C100.071379,18.4936833 101.482974,19.4943077 103.609301,19.4943077 C104.484847,19.4943077 105.699891,19.387098 106.646911,19.2262833 L108.683896,19.2262833 L108.683896,10.8996588 C108.719633,9.43445874 108.004901,8.61251726 107.415248,8.20154652 L107.415248,8.20154652 Z M101.750999,16.278015 C101.679525,15.9563857 101.643789,15.5096784 101.876077,15.1523125 C102.179838,14.7056052 102.858833,14.509054 103.377013,14.4375808 C104.77074,14.205293 105.950048,14.3661076 106.611174,14.509054 L106.611174,17.0642199 C105.824969,17.2250345 104.520584,17.3501126 103.609301,17.3501126 C101.983286,17.3501126 101.822472,16.581776 101.750999,16.278015 Z M96.9801644,8.27301969 C95.8365936,7.36173674 93.9246863,7.20092211 91.1551009,7.77270749 L91.1551009,3.48431715 L89.0645106,3.48431715 L89.0645106,19.1726785 L91.0657594,19.1726785 C92.1021204,19.3513614 93.1027448,19.4407029 93.8532131,19.4407029 C95.1754668,19.4407029 96.1939595,19.1548102 96.9265595,18.5830248 C98.17734,17.6002687 98.17734,16.1350686 98.17734,15.4203369 L98.17734,11.2748929 C98.1594717,10.6137661 98.1594717,9.22003922 96.9801644,8.27301969 Z M96.0688814,13.3476149 L96.0688814,15.4203369 C96.0688814,16.0635955 96.0331449,16.6175126 95.6221741,16.9391418 C95.24694,17.2429028 93.9246863,17.6360053 91.1551009,17.0642199 L91.1551009,9.89903436 C94.3177887,9.18430264 95.372018,9.66674655 95.675779,9.91690265 C96.0331449,10.2027953 96.0688814,10.6852393 96.0688814,11.2927612 L96.0688814,13.3476149 Z" id="Shape"></path>
                    <path d="M15.0004358,19.3513614 L6.7095478,17.5466638 C5.95907949,17.3679809 5.38729411,16.706854 5.35155753,15.9027808 L5.35155753,6.9686343 C5.38729411,6.16456111 5.95907949,5.50343427 6.7095478,5.32475133 L15.0004358,3.52005373 L15.8938504,2.84217094e-14 L6.24497218,2.84217094e-14 C2.8499965,2.84217094e-14 0.116147657,2.73384884 0.0982793642,6.12882452 L0.0982793642,16.706854 C0.0982793642,20.119698 2.8499965,22.8714151 6.22710389,22.8714151 L15.8759821,22.8714151 L15.0004358,19.3513614 Z M22.0584115,19.3513614 L30.3492995,17.5466638 C31.0997678,17.3679809 31.6715532,16.706854 31.7072898,15.9027808 L31.7072898,6.9686343 C31.6715532,6.16456111 31.0997678,5.50343427 30.3492995,5.32475133 L22.0584115,3.52005373 L21.1649969,2.84217094e-14 L30.8138752,2.84217094e-14 C34.2088508,2.84217094e-14 36.9426997,2.73384884 36.960568,6.12882452 L36.960568,16.706854 C36.9426997,20.0839614 34.2088508,22.8356785 30.8138752,22.8356785 L21.1649969,22.8356785 L22.0584115,19.3513614 Z" id="Shape"></path>
                    <polygon id="Path" points="15.0004358 11.0068685 22.0584115 11.0068685 22.0584115 11.8824149 15.0004358 11.8824149"></polygon>
                </g>
            </g>
        </g>
    </g>
</svg>