<?xml version="1.0" encoding="UTF-8"?>
<svg width="46px" height="92px" viewBox="0 0 46 92" version="1.1" xmlns="http://www.w3.org/2000/svg" xmlns:xlink="http://www.w3.org/1999/xlink">
    <!-- Generator: Sketch 60 (88103) - https://sketch.com -->
    <title>apache</title>
    <desc>Created with Sketch.</desc>
    <defs>
        <linearGradient x1="16.3628891%" y1="63.9052008%" x2="159.989811%" y2="20.2134672%" id="linearGradient-1">
            <stop stop-color="#F69923" offset="0%"></stop>
            <stop stop-color="#F79A23" offset="31.23%"></stop>
            <stop stop-color="#E97826" offset="83.83%"></stop>
        </linearGradient>
        <linearGradient x1="-217.650978%" y1="394.671992%" x2="74.7430764%" y2="13.846058%" id="linearGradient-2">
            <stop stop-color="#9E2064" offset="32.33%"></stop>
            <stop stop-color="#C92037" offset="63.02%"></stop>
            <stop stop-color="#CD2335" offset="75.14%"></stop>
            <stop stop-color="#E97826" offset="100%"></stop>
        </linearGradient>
        <linearGradient x1="-80.0440054%" y1="170.418469%" x2="146.240033%" y2="-44.2993346%" id="linearGradient-3">
            <stop stop-color="#9E2064" offset="32.33%"></stop>
            <stop stop-color="#C92037" offset="63.02%"></stop>
            <stop stop-color="#CD2335" offset="75.14%"></stop>
            <stop stop-color="#E97826" offset="100%"></stop>
        </linearGradient>
        <linearGradient x1="-18.3158042%" y1="77.3603602%" x2="165.002%" y2="-41.416466%" id="linearGradient-4">
            <stop stop-color="#282662" offset="0%"></stop>
            <stop stop-color="#662E8D" offset="9.548389%"></stop>
            <stop stop-color="#9F2064" offset="78.82%"></stop>
            <stop stop-color="#CD2032" offset="94.87%"></stop>
        </linearGradient>
        <linearGradient x1="-129.782775%" y1="463.714866%" x2="66.4555408%" y2="17.1896681%" id="linearGradient-5">
            <stop stop-color="#9E2064" offset="32.33%"></stop>
            <stop stop-color="#C92037" offset="63.02%"></stop>
            <stop stop-color="#CD2335" offset="75.14%"></stop>
            <stop stop-color="#E97826" offset="100%"></stop>
        </linearGradient>
        <linearGradient x1="-34.8804169%" y1="187.706139%" x2="110.598662%" y2="-51.1003524%" id="linearGradient-6">
            <stop stop-color="#9E2064" offset="32.33%"></stop>
            <stop stop-color="#C92037" offset="63.02%"></stop>
            <stop stop-color="#CD2335" offset="75.14%"></stop>
            <stop stop-color="#E97826" offset="100%"></stop>
        </linearGradient>
        <linearGradient x1="-20.6189333%" y1="192.563688%" x2="125.259839%" y2="-136.90643%" id="linearGradient-7">
            <stop stop-color="#282662" offset="0%"></stop>
            <stop stop-color="#662E8D" offset="9.548389%"></stop>
            <stop stop-color="#9F2064" offset="78.82%"></stop>
            <stop stop-color="#CD2032" offset="94.87%"></stop>
        </linearGradient>
    </defs>
    <g id="Symbols" stroke="none" stroke-width="1" fill="none" fill-rule="evenodd">
        <g id="icons/server" transform="translate(-263.000000, -261.000000)" fill-rule="nonzero">
            <g id="apache" transform="translate(263.000000, 261.000000)">
                <path d="M39.2486825,0.51996884 C37.8142856,1.36267696 35.4116711,3.78322156 32.5428774,7.27956376 L32.5428774,7.49472329 L35.0530719,12.1385829 L35.1785816,12.2282327 C37.0253674,9.59252861 38.8900833,7.20784393 40.790659,5.18175844 C40.9340987,5.02038881 41.0058186,4.94866897 41.0058186,4.94866897 C40.9340987,5.02038881 40.862379,5.11003861 40.790659,5.18175844 C40.1810405,5.86309692 38.3163245,8.01469212 35.5192508,12.3178825 L35.8419901,12.3896024 C35.8419901,12.3896024 42.3864256,11.7441238 45.5420984,11.206225 L45.721398,11.0448554 C46.7254758,5.41484793 44.7352503,2.83293368 44.7352503,2.83293368 C44.7352503,2.83293368 42.2250559,-1.21923728 39.2486825,0.51996884 Z" id="Path" fill="url(#linearGradient-1)"></path>
                <path d="M27.4328388,25.0481541 C28.2396871,23.5599675 29.0465353,22.0897108 29.8533834,20.6732439 C30.6960915,19.2029871 31.5567296,17.7685904 32.4352977,16.3879835 C32.4890876,16.3162636 32.5428774,16.2266138 32.5787373,16.136964 C33.4393754,14.7742871 34.3000135,13.4833299 35.1785816,12.2282327 L32.5428774,7.26163382 C32.3456478,7.49472329 32.1484184,7.74574273 31.9511888,7.99676216 C31.1981304,8.94705005 30.4092122,9.95112781 29.6023641,11.0269254 C28.6879361,12.2461627 27.755578,13.5371198 26.8052902,14.8997968 C25.9267222,16.154894 25.0302241,17.481711 24.1516561,18.8264581 C23.3985978,19.9919054 22.6276095,21.1752828 21.8745513,22.4124501 C21.8386913,22.4662398 21.8207613,22.5020998 21.7849014,22.5558897 L21.7849014,22.7531193 L25.0660841,29.2616948 L25.2095237,29.3154846 C25.9446522,27.8810879 26.6797806,26.446691 27.4328388,25.0481541 Z" id="Path" fill="url(#linearGradient-2)"></path>
                <path d="M13.1426607,56.9096932 C13.7343494,55.3677166 14.361898,53.8078101 14.9894466,52.2299735 C15.5990652,50.7238569 16.2086839,49.1998103 16.8541624,47.6757638 C17.481711,46.1517172 18.1451196,44.6276706 18.8085281,43.085694 C19.4898666,41.5257875 20.1712051,39.9658809 20.8704735,38.4239043 C21.569742,36.8998578 22.2690104,35.3758112 22.9862087,33.8696946 C23.2372282,33.3317957 23.5061775,32.7759669 23.775127,32.2380681 C24.223376,31.3057103 24.6895549,30.3733523 25.137804,29.4589242 C25.155734,29.4051345 25.1915938,29.3692745 25.2095237,29.3154846 L21.7849014,22.5558897 C21.7311116,22.6455395 21.6773217,22.7351893 21.6235317,22.8248391 C20.8346136,24.1337263 20.0277654,25.4605433 19.256777,26.8232202 C18.4678589,28.2038272 17.6968705,29.6023641 16.9438122,31.0188308 C16.2983337,32.2201381 15.688715,33.4214454 15.0790964,34.6406828 C14.9535867,34.8917023 14.8460069,35.1247916 14.7204972,35.3758112 C13.9674389,36.9177877 13.3040303,38.3880444 12.6944117,39.8224413 C12.0130732,41.4361376 11.4034546,42.9781141 10.8655558,44.448371 C10.5069566,45.4165888 10.2021472,46.3310168 9.89733793,47.2275146 C9.66424846,47.980573 9.43115896,48.7515612 9.21599945,49.5046196 C8.6960306,51.2976155 8.26571158,53.0726817 7.90711237,54.8656777 L7.96090226,55.0808371 L11.2420849,61.6073426 L11.3496647,61.6611326 C11.7979137,60.4418953 12.2640926,59.222658 12.7482016,57.9675607 C12.8737113,57.6089615 13.017151,57.2682922 13.1426607,56.9096932 Z" id="Path" fill="url(#linearGradient-3)"></path>
                <path d="M7.87125245,55.0987671 C7.44093341,57.2682922 7.13612409,59.4378175 6.97475444,61.5894126 C6.97475444,61.6611326 6.95682448,61.7328523 6.95682448,61.8225022 C5.88102688,60.101226 3.01223329,58.4337398 3.01223329,58.4337398 C5.07417869,61.410113 6.6340852,64.3685565 6.86717469,67.27321 C5.77344713,67.5062994 4.26733049,67.1656302 2.5101944,66.5380816 C4.32112037,68.2055679 5.68379733,68.6717469 6.22169612,68.7972566 C4.55420984,68.9048363 2.81500372,70.0523539 1.05786764,71.3612409 C3.62185193,70.3213032 5.68379733,69.9089141 7.17198401,70.2316533 C4.82315924,76.8836687 2.47433448,84.2349521 0.10757976,92.0165549 C0.824778161,91.8013953 1.2550972,91.3172864 1.50611664,90.6538779 C1.91850573,89.237411 4.71557949,79.9855516 9.07255976,67.8111089 C9.19806949,67.4704396 9.32357922,67.1118404 9.44908892,66.7711712 C9.48494885,66.6815213 9.52080877,66.5739416 9.55666869,66.4842917 C10.0228477,65.2112646 10.4890266,63.9023776 10.9910655,62.5755604 C11.0986453,62.2707511 11.224155,61.9659418 11.3317347,61.6611326 C11.3317347,61.6611326 11.3317347,61.6432026 11.3317347,61.6432026 L7.90711237,54.8656777 C7.90711237,54.9553275 7.88918241,55.0270474 7.87125245,55.0987671 Z" id="Path" fill="url(#linearGradient-4)"></path>
                <path d="M35.5192508,12.3358125 C34.7482624,13.5191899 33.9055543,14.8639369 32.9911265,16.3879835 C32.9373366,16.4597033 32.9014766,16.5493531 32.8476868,16.6210729 C32.0587685,17.94789 31.2339904,19.3822867 30.3554223,20.9780532 C29.6023641,22.3407302 28.8134457,23.8109868 27.9886676,25.4067533 C27.2714692,26.7873603 26.5363409,28.2396871 25.7832825,29.7995935 L25.9446522,29.8713134 L34.2820835,28.9748154 L34.4793131,28.8313757 C37.0074375,27.6659283 38.137025,26.6080607 39.2307525,25.0840141 C39.5176318,24.6716249 39.8224413,24.223376 40.1093206,23.775127 C41.0058186,22.3765901 41.8843867,20.8525435 42.6553749,19.3284969 C43.4084333,17.8582402 44.0718418,16.3879835 44.5918106,15.0790964 C44.9145499,14.2363883 45.1834992,13.4654 45.3627988,12.7840615 C45.5241684,12.1744429 45.6496783,11.6006841 45.739328,11.0627853 C42.3684956,11.654474 38.2266748,12.2103028 35.5192508,12.3358125 Z" id="Path" fill="url(#linearGradient-5)"></path>
                <path d="M25.4605433,30.4988619 C25.1736638,31.1084807 24.8688545,31.7360292 24.5640452,32.3635778 C24.241306,33.0449163 23.9006367,33.7621147 23.5778975,34.4793131 C23.4165278,34.8379123 23.2372282,35.2144415 23.0758586,35.5730408 C22.5558897,36.6846982 22.0538509,37.8322156 21.515952,39.0155929 C20.8704735,40.4679198 20.207065,41.9919664 19.5436563,43.5518729 C18.8981778,45.0579895 18.2526993,46.5999661 17.6072207,48.2136624 C16.9796721,49.7377092 16.3521235,51.3155455 15.7245749,52.929242 C15.1508162,54.3815687 14.5770575,55.8518255 14.0032988,57.3938021 C13.9674389,57.4655218 13.9495089,57.5372417 13.913649,57.6089615 C13.3398902,59.1330082 12.780275,60.6833982 12.1885863,62.2791645 C12.1706564,62.3150245 12.1386333,62.4083447 12.1207033,62.4442047 L12.2445409,62.471695 L14.7384271,62.2034241 L14.8792185,62.1452415 C14.8254286,62.1273115 14.792217,62.0555916 14.7384271,62.0376616 C18.0375397,61.6252726 22.4303801,59.150938 25.2812437,56.1028449 C26.5901307,54.7043079 27.773508,53.0368217 28.8851656,51.1003861 C29.7099438,49.6480593 30.4630022,48.0522928 31.1981304,46.2772268 C31.8436089,44.7352503 32.4532277,43.0498341 33.0449163,41.238908 C32.291858,41.6333672 31.41329,41.9381764 30.4630022,42.135406 C30.3016324,42.171266 30.1223329,42.2071259 29.9430333,42.2429857 C29.7637337,42.2788457 29.5844341,42.2967757 29.4230645,42.3326356 C32.5070176,41.1492583 34.4434532,38.8542233 35.8599201,36.0571497 C35.0530719,36.6129783 33.7262547,37.3301767 32.1484184,37.6887759 C31.9332588,37.7425659 31.7180992,37.7784258 31.4850099,37.8142856 C31.4312199,37.8142856 31.37743,37.8322156 31.3236401,37.8322156 C32.3994377,37.3839667 33.2959358,36.8819278 34.0848539,36.290239 C34.2462236,36.1647293 34.4075932,36.0392197 34.5689628,35.89578 C34.8020524,35.6806205 35.0351419,35.4654609 35.2503013,35.2503013 C35.3937412,35.1068617 35.5192508,34.963422 35.6626905,34.8020524 C35.9674998,34.4434532 36.2543792,34.048994 36.5233286,33.618675 C36.6129783,33.4931654 36.6846982,33.3497257 36.7743481,33.2242159 C36.8819278,33.0269863 36.9715775,32.8297569 37.0612274,32.6325273 C37.4915463,31.7718892 37.8322156,31.0009008 38.1011651,30.3195623 C38.2446047,29.9788931 38.3521844,29.6740838 38.4597643,29.3692745 C38.4956241,29.2616948 38.531484,29.136185 38.585274,29.0286053 C38.6928537,28.705866 38.7825036,28.4189865 38.8542233,28.1500372 C38.9618032,27.773508 39.0155929,27.4686987 39.0514529,27.2535392 C38.9438732,27.3431891 38.8362933,27.4149088 38.6928537,27.5045587 C37.7604958,28.0603875 36.1647293,28.5624264 34.8737723,28.7955157 L37.4198266,28.5086364 L34.8737723,28.7955157 C34.6944727,28.8313757 34.5689628,28.8493057 34.4255232,28.8851656 C34.4374766,28.8732122 31.561898,29.1772527 25.7987874,29.7972866 C25.7629274,29.8331466 25.550193,30.2837026 25.4605433,30.4988619 Z" id="Path" fill="url(#linearGradient-6)"></path>
                <path d="M11.8517036,63.1134592 C11.4034546,64.3506265 10.9372756,65.6236536 10.4890266,66.9146108 C10.4890266,66.9325408 10.4710966,66.9504708 10.4710966,66.9684007 C10.3993768,67.1477004 10.3455869,67.327 10.2738671,67.5242294 C9.96905777,68.4027974 9.70010838,69.1737858 9.09048972,70.9667817 C10.0945675,71.4329606 10.9014157,72.634268 11.672404,74.0148749 C11.6006841,72.5984082 11.0089955,71.253661 9.87940797,70.2316533 C14.8460069,70.4468129 19.1312674,69.1917158 21.3366524,65.5698638 C21.533882,65.2471246 21.7131816,64.9064553 21.8745513,64.5478561 C20.8704735,65.8208832 19.6153763,66.358782 17.2844815,66.2332723 C17.2844815,66.2332723 17.2665515,66.2332723 17.2665515,66.2332723 C17.2665515,66.2332723 17.2844815,66.2332723 17.2844815,66.2332723 C20.7449637,64.6912958 22.4662398,63.2031091 24.0082164,60.7467045 C24.3668156,60.155016 24.7254148,59.5274672 25.0840141,58.8281988 C22.0538509,61.9300819 18.5575086,62.80865 14.8818668,62.1452415 L12.120653,62.4500507 C12.0310032,62.6472803 11.9413534,62.8803699 11.8517036,63.1134592 Z" id="Path" fill="url(#linearGradient-7)"></path>
            </g>
        </g>
    </g>
</svg>