<?xml version="1.0" encoding="UTF-8"?>
<svg width="77px" height="74px" viewBox="0 0 77 74" version="1.1" xmlns="http://www.w3.org/2000/svg" xmlns:xlink="http://www.w3.org/1999/xlink">
    <!-- Generator: Sketch 60 (88103) - https://sketch.com -->
    <title>cordova</title>
    <desc>Created with Sketch.</desc>
    <g id="Symbols" stroke="none" stroke-width="1" fill="none" fill-rule="evenodd">
        <g id="Icons/Mobile" transform="translate(-417.000000, -249.000000)" fill="#444444" fill-rule="nonzero">
            <g id="cordova" transform="translate(417.000000, 249.000000)">
                <path d="M69.8181819,73.3090908 L57.3818181,73.3090908 L58.2545454,62.8363635 L52.1454546,62.8363635 L51.2727273,73.3090908 L25.5272727,73.3090908 L24.6545455,62.8363635 L18.5454545,62.8363635 L19.4181818,73.3090908 L6.98181819,73.3090908 L0,27.9272727 L17.4545455,0 L59.3454546,0 L76.8,27.9272727 L69.8181819,73.3090908 Z M55.8545454,13.9636363 L44.6336727,13.9636363 L45.3818181,19.2 L31.4181819,19.2 L32.1663273,13.9636363 L20.9454545,13.9636363 L13.9636364,27.9272727 L17.4545455,55.8545454 L59.3454546,55.8545454 L62.8363635,27.9272727 L55.8545454,13.9636363 Z M49.7454546,46.5861819 C48.7815273,46.5861819 48,43.6791273 48,40.0930908 C48,36.5070546 48.7815273,33.6 49.7454546,33.6 C50.7093819,33.6 51.4909092,36.5070546 51.4909092,40.0930908 C51.4909092,43.6791273 50.7093819,46.5861819 49.7454546,46.5861819 Z M27.7090909,47.1272727 C26.7451637,47.1272727 25.9636364,44.2202181 25.9636364,40.6341819 C25.9636364,37.0481454 26.7451637,34.1410908 27.7090909,34.1410908 C28.6730182,34.1410908 29.4545455,37.0481454 29.4545455,40.6341819 C29.4545455,44.2202181 28.6730182,47.1272727 27.7090909,47.1272727 Z" id="Shape"></path>
            </g>
        </g>
    </g>
</svg>