<?xml version="1.0" encoding="UTF-8"?>
<svg width="77px" height="77px" viewBox="0 0 77 77" version="1.1" xmlns="http://www.w3.org/2000/svg" xmlns:xlink="http://www.w3.org/1999/xlink">
    <!-- Generator: Sketch 60 (88103) - https://sketch.com -->
    <title>couchbase</title>
    <desc>Created with Sketch.</desc>
    <g id="Symbols" stroke="none" stroke-width="1" fill="none" fill-rule="evenodd">
        <g id="icons/server" transform="translate(-767.000000, -258.000000)" fill="#ED2226" fill-rule="nonzero">
            <g id="couchbase" transform="translate(767.000000, 258.000000)">
                <path d="M38.4,0 C17.2277946,0 0,17.1697885 0,38.4 C0,59.5722054 17.1697885,76.8 38.4,76.8 C59.5722054,76.8 76.8,59.6302116 76.8,38.4 C76.8,17.1697885 59.5722054,0 38.4,0 L38.4,0 Z M64.3287009,45.1287009 C64.3287009,47.4489426 62.9945619,49.4791542 60.3842901,49.9432023 C55.8598188,50.755287 46.3468278,51.2193354 38.4,51.2193354 C30.4531722,51.2193354 20.9401813,50.755287 16.41571,49.9432023 C13.8054381,49.4791542 12.4712991,47.4489426 12.4712991,45.1287009 L12.4712991,30.1631421 C12.4712991,27.8429003 14.2694864,25.6966767 16.41571,25.3486405 C17.7498489,25.1166163 20.8821752,24.8845921 23.318429,24.8845921 C24.2465257,24.8845921 25.0006042,25.5806647 25.0006042,26.6827795 L25.0006042,37.1818731 L38.4580059,36.891843 L51.915408,37.1818731 L51.915408,26.6827795 C51.915408,25.5806647 52.6694865,24.8845921 53.597583,24.8845921 C56.0338368,24.8845921 59.1661632,25.1166163 60.5003022,25.3486405 C62.7045318,25.6966767 64.444713,27.8429003 64.444713,30.1631421 C64.3287009,35.0936556 64.3287009,40.1401812 64.3287009,45.1287009 L64.3287009,45.1287009 Z" id="Shape"></path>
            </g>
        </g>
    </g>
</svg>