<?xml version="1.0" encoding="UTF-8"?>
<svg width="108px" height="90px" viewBox="0 0 108 90" version="1.1" xmlns="http://www.w3.org/2000/svg" xmlns:xlink="http://www.w3.org/1999/xlink">
    <!-- Generator: Sketch 60 (88103) - https://sketch.com -->
    <title>docker</title>
    <desc>Created with Sketch.</desc>
    <g id="Symbols" stroke="none" stroke-width="1" fill="none" fill-rule="evenodd">
        <g id="icons/server" transform="translate(-580.000000, -112.000000)" fill-rule="nonzero">
            <g id="docker" transform="translate(580.000000, 112.000000)">
                <path d="M16.0984229,72.6598725 L16.0984229,65.6588289 C16.0984229,64.7394723 16.6613754,64 17.5932748,64 L17.8516499,64 C18.783325,64 19.3435861,64.7399305 19.3435861,65.6588289 L19.3435861,80.3978677 C19.3435861,83.9921126 17.6053862,86.8516965 14.5771055,88.6736822 C13.1728642,89.5178768 11.6212684,89.9509737 9.99341614,89.9509737 L9.34994572,89.9509737 C5.83138048,89.9509737 3.0356821,88.1739023 1.24970969,85.0814997 C0.420980812,83.6458641 0,82.062884 0,80.3978677 L0,79.7408895 C0,76.1454993 1.73909708,73.287519 4.76513499,71.4623255 C6.17049765,70.6146935 7.71985058,70.1850336 9.34994572,70.1850336 L9.99341614,70.1850336 C12.3746379,70.1850336 14.394987,71.1279932 16.0984229,72.6598725 L16.0984229,72.6598725 Z M3.24471466,80.0688059 C3.24471466,82.665095 4.47648165,84.6170092 6.70317186,85.8617612 C7.60344728,86.3652075 8.58110065,86.6356067 9.60832073,86.6356067 C12.1025816,86.6356067 13.9524749,85.4334769 15.2286501,83.2739508 C15.8221052,82.2691204 16.0984229,81.1703381 16.0984229,80.0016643 C16.0984229,77.7509361 15.0555029,75.9947173 13.2805204,74.6901564 C12.2041822,73.899354 10.9926007,73.5026923 9.67134449,73.5026923 C6.95279977,73.5026923 4.99637163,74.9057884 3.82202132,77.39873 C3.42571174,78.2415502 3.24471466,79.1366167 3.24471466,80.0688059 L3.24471466,80.0688059 Z M30.6012904,70.1850336 L31.0509795,70.1850336 C34.8108742,70.1850336 37.6700449,72.0484957 39.4822586,75.4016726 C40.2069197,76.7431269 40.5944822,78.206948 40.5944822,79.7408895 L40.5944822,80.3978677 C40.5944822,83.9918832 38.8598708,86.8558216 35.8266558,88.6741405 C34.4224146,89.5155855 32.8712674,89.9509737 31.2438637,89.9509737 L30.6012904,89.9509737 C27.0827251,89.9509737 24.2865782,88.1739023 22.5010543,85.0814997 C21.6723255,83.6458641 21.2504475,82.062884 21.2504475,80.3978677 L21.2504475,79.7408895 C21.2504475,76.145041 22.9960489,73.2964559 26.0146854,71.463242 C27.4182538,70.6110271 28.9702981,70.1850336 30.6012904,70.1850336 L30.6012904,70.1850336 Z M24.4951622,80.0688059 C24.4951622,82.5890164 25.7058465,84.442854 27.7892193,85.746269 C28.7675455,86.3585623 29.8447809,86.6356067 30.9879558,86.6356067 C33.4252485,86.6356067 35.2266965,85.3729805 36.4806676,83.2712013 C37.0786084,82.2691204 37.3490947,81.1685047 37.3490947,80.0016643 C37.3490947,77.6583589 36.2442724,75.8679966 34.3558023,74.5705396 C33.3207322,73.8590235 32.168586,73.5026923 30.9222406,73.5026923 C28.2036959,73.5026923 26.2472677,74.9057884 25.073366,77.39873 C24.6761593,78.2415502 24.4951622,79.1366167 24.4951622,80.0688059 L24.4951622,80.0688059 Z M54.0849324,73.7675917 C53.5950963,73.5331698 52.6777754,73.4552578 52.148241,73.4346345 C49.4370977,73.3303705 47.4755111,74.8902063 46.3247107,77.33388 C45.9275041,78.1767002 45.7460585,79.0690167 45.7460585,80.0016643 C45.7460585,82.8415414 47.2052493,84.8296619 49.6862772,86.0416455 C50.5926085,86.4841372 51.7626971,86.5684651 52.7531349,86.5684651 C53.6244775,86.5684651 54.8553474,86.0228548 55.6284538,85.6477337 L55.7625757,85.5828837 L56.3623105,85.5828837 L56.4284744,85.5966329 C57.1665927,85.7533725 57.7237137,86.2313829 57.7237137,87.042809 L57.7237137,87.3709544 C57.7237137,89.389323 54.1129676,89.8517508 52.7351922,89.9498279 C47.8731666,90.2937847 44.2368523,87.5655043 42.8505535,82.8271051 C42.6096729,82.0046797 42.5013437,81.1872954 42.5013437,80.3298096 L42.5013437,79.6737483 C42.5013437,76.0783576 44.2473934,73.2306894 47.2655817,71.3986214 C48.6691497,70.5470936 50.2211942,70.1194965 51.8517381,70.1194965 L52.4947597,70.1194965 C54.2242128,70.1194965 55.817301,70.6213387 57.2453162,71.6179198 L57.3628409,71.7008725 L57.4368549,71.8257602 C57.5909379,72.0869932 57.7237137,72.3887861 57.7237137,72.6997447 L57.7237137,73.0278901 C57.7237137,73.8741474 57.1040173,74.3292428 56.3558065,74.4765872 L56.2939041,74.4878158 L56.1021414,74.4878158 C55.6176883,74.4878158 54.5171272,73.9754326 54.0849324,73.7675917 L54.0849324,73.7675917 Z M64.6103499,76.0125911 C65.8706009,74.7231546 67.1357861,73.4360093 68.4148772,72.1676547 C68.7714885,71.8140734 70.1212287,70.3165671 70.6525571,70.3165671 L71.2339008,70.3165671 L71.3000647,70.3303162 C72.0402015,70.4875141 72.5948555,70.9664414 72.5948555,71.7792423 L72.5948555,72.1071583 C72.5948555,72.6617055 71.9592349,73.305851 71.6086792,73.6853265 C70.8631595,74.492628 70.0781659,75.273806 69.3151525,76.0646085 L65.3948949,80.1306767 C67.0828552,81.8591682 68.7692455,83.5894928 70.4435247,85.3312752 C70.9066707,85.812952 71.3700412,86.2953164 71.8260101,86.7840971 C71.9872702,86.9573357 72.2252356,87.1729673 72.3604786,87.4133476 C72.5055904,87.6381454 72.5948555,87.8918162 72.5948555,88.1626737 L72.5948555,88.5054847 L72.5760154,88.5843127 C72.3936727,89.3405134 71.9237982,89.9509737 71.1033675,89.9509737 L70.8452168,89.9509737 C70.3082814,89.9509737 69.702042,89.3302018 69.3339922,88.9759333 C68.5765858,88.2458558 67.8445231,87.4781976 67.1016949,86.732538 L64.6103499,84.2338677 L64.6103499,88.2275237 C64.6103499,89.1473386 64.0467243,89.8865819 63.1157223,89.8865819 L62.8600386,89.8865819 C61.9281392,89.8865819 61.365411,89.1473386 61.365411,88.2275237 L61.365411,65.7232206 C61.365411,64.8029475 61.9285877,64.0671412 62.8600386,64.0671412 L63.1157223,64.0671412 C64.0467243,64.0671412 64.6103499,64.8029475 64.6103499,65.7232206 L64.6103499,76.0125911 L64.6103499,76.0125911 Z M105.055011,70.3165671 L105.377082,70.3165671 C106.350474,70.3165671 107,70.9866064 107,71.975167 C107,73.3477861 105.715751,73.6990757 104.604424,73.6990757 C103.147028,73.6990757 101.755795,74.6005585 100.751227,75.6115758 C99.4983779,76.8732851 98.9500034,78.4894923 98.9500034,80.2658765 L98.9500034,88.2923737 C98.9500034,89.2126468 98.3879483,89.9509737 97.4549273,89.9509737 L97.1990197,89.9509737 C96.2664472,89.9509737 95.7043916,89.2126468 95.7043916,88.2923737 L95.7043916,79.8052813 C95.7043916,76.5460563 97.2573335,73.8858342 99.8457936,72.0198516 C101.392007,70.9050284 103.162279,70.3165671 105.055011,70.3165671 L105.055011,70.3165671 Z M81.9907792,86.2229042 C83.1716338,86.6440854 84.518234,86.5840476 85.7298157,86.3684157 C86.3492877,86.0993916 87.9343018,85.393146 88.5172155,85.4964935 L88.6082746,85.5120756 L88.6919327,85.5542396 C89.0476469,85.7304575 89.3876611,85.9797744 89.5691068,86.3496254 C89.9939005,87.2174229 89.7898022,88.0891162 88.9556904,88.5815628 L88.6780271,88.7454064 C85.5997309,90.5607464 82.3258594,90.3091379 79.2576562,88.6136445 C77.7906153,87.803593 76.6682991,86.6005463 75.8404673,85.1344336 L75.6466861,84.7916226 C73.6707449,81.2952259 73.9374186,77.6171114 76.1659029,74.29212 C76.9354209,73.1429244 77.9408857,72.2549614 79.1165814,71.5606315 L79.5613366,71.298482 C82.4602053,69.5887812 85.5669856,69.7056485 88.5443537,71.2063631 C90.1450675,72.0132063 91.4421013,73.2162526 92.3358725,74.797858 L92.4964596,75.0826935 C93.1457617,76.2318895 92.3046969,77.2335117 91.4364942,77.9179878 C90.4290113,78.7122277 89.4116593,79.6677902 88.4458931,80.5195473 C86.2927683,82.4185277 84.142783,84.3220909 81.9907792,86.2229042 L81.9907792,86.2229042 Z M79.2038279,84.2230974 C81.6121883,82.1132973 84.0209968,80.0021225 86.4224041,77.8838442 C87.2430589,77.1606413 88.1431101,76.4101693 88.9574848,75.6496151 C88.3039217,74.8086283 87.2127807,74.2022927 86.2853667,73.8406914 C84.4139422,73.1119886 82.5680859,73.356723 80.8516414,74.369115 C78.6045415,75.6945285 77.6477464,77.8054744 77.7318529,80.4322406 C77.7648227,81.4666312 78.0373274,82.4634411 78.5747118,83.343613 C78.7640075,83.6538845 78.9755069,83.9451364 79.2038279,84.2230974 L79.2038279,84.2230974 Z" id="Shape" fill="#364548"></path>
                <path d="M62.3388171,18.9472866 L72.0448451,18.9472866 L72.0448451,28.6316131 L76.9525327,28.6316131 C79.218826,28.6316131 81.5499094,28.2375391 83.6961704,27.5277175 C84.7507729,27.1786868 85.9345013,26.6929727 86.9747821,26.0821135 C85.6046399,24.3360724 84.905133,22.1313876 84.6991682,19.958211 C84.4195472,17.0024334 85.0303939,13.1551075 87.0800375,10.8416973 L88.1003132,9.68987375 L89.3160954,10.6437727 C92.3771486,13.0441632 94.9514798,16.3982308 95.4052384,20.2218146 C99.0910055,19.163628 103.418309,19.4139183 106.66714,21.2440552 L108,21.9947042 L107.298447,23.3311391 C104.550888,28.5650466 98.806838,30.1863864 93.1910045,29.8994844 C84.7876009,50.3283211 66.492438,60 44.3096347,60 C32.8492702,60 22.3346152,55.8185098 16.3470908,45.8940999 L16.2488824,45.7321214 L15.3766016,43.9998373 C13.3526465,39.6312951 12.6804197,34.8456025 13.1364518,30.0639039 L13.2733069,28.6316131 L21.5730461,28.6316131 L21.5730461,18.9472866 L31.2788465,18.9472866 L31.2788465,9.47353237 L50.6913566,9.47353237 L50.6913566,0 L62.3388171,0 L62.3388171,18.9472866" id="Path" fill="#364548"></path>
                <path d="M92.9584256,22.7591873 C93.6075628,17.7744848 89.8324551,13.8589571 87.4912078,12 C84.7933094,15.0822794 84.3740794,23.1604639 88.6067352,26.5615689 C86.2446284,28.6349434 81.2669277,30.5142892 76.1704185,30.5142892 L14.1300892,30.5142892 C13.6344504,35.7716626 14.5685913,40.6129721 16.7016973,44.7570325 L17.4075178,46.032559 C17.854409,46.7820118 18.3425656,47.5052506 18.8701738,48.2016035 L18.8704005,48.2016035 C21.4209225,48.3633689 23.7725993,48.4193818 25.9240708,48.3723308 L25.9249777,48.3723308 C30.1530987,48.2797975 33.6028446,47.786884 36.217532,46.891573 C36.6068329,46.7578143 37.0310508,46.9619255 37.1657303,47.3461739 C37.3001831,47.7304227 37.0943093,48.1498478 36.7054619,48.2831585 C36.3578798,48.40213 35.9953334,48.5134834 35.6209969,48.619236 C35.6205434,48.6194598 35.62009,48.6194598 35.6196365,48.619684 C33.5608989,49.200426 31.3534244,49.5913964 28.504975,49.7650366 C28.6738912,49.7677249 28.3288033,49.7901303 28.3278963,49.7903541 C28.2310813,49.7961795 28.1090988,49.8098469 28.0118302,49.8152239 C26.8908612,49.8772865 25.6807861,49.8902812 24.4437297,49.8902812 C23.0908126,49.8902812 21.7583015,49.8649637 20.2686643,49.7903541 L20.2305731,49.8152239 C25.3998636,55.5565489 33.4824492,59 43.613796,59 C65.0559564,59 83.2433608,49.607304 91.2969248,28.520229 C97.0108285,29.0996267 102.50208,27.6598704 105,22.8414142 C101.021059,20.5724426 95.9045972,21.2959056 92.9584256,22.7591873" id="Path" fill="#22A0C8"></path>
                <path d="M93.6093323,23.6488728 C94.2622693,18.7152787 90.4650632,14.8398971 88.110111,13 C85.3964198,16.0506767 84.9747358,24.0460352 89.2321683,27.4122685 C86.8562345,29.4643846 81.8493958,31.3244613 76.7230531,31.3244613 L18.0148215,31.3244613 C17.7600781,39.2934311 20.8014921,45.3424501 26.1825783,48.9994036 L26.1834905,48.9994036 C30.4363617,48.9078191 33.9063013,48.4199595 36.5362943,47.5338281 C36.9278741,47.4014408 37.3545752,47.6034593 37.4900431,47.983768 C37.6252829,48.364077 37.4182041,48.7792017 37.0270804,48.9111456 C36.6774637,49.0288973 36.3127951,49.139109 35.9362673,49.2437772 C35.9358112,49.2439988 35.935355,49.2439988 35.9348989,49.2442207 C33.8641101,49.8190083 31.452827,50.2556428 28.5877037,50.4275027 C28.5870195,50.4275027 28.5183733,50.3629723 28.5174611,50.3631938 C35.8573584,54.0241388 46.500483,54.0110554 58.7026289,49.4533353 C72.3848872,44.3425594 85.1163615,34.6053192 94,23.4683647 C93.8659005,23.5271296 93.73545,23.5874469 93.6093323,23.6488728" id="Path" fill="#37B1D9"></path>
                <path d="M15,37 C15.3858629,39.8036176 16.2197442,42.4287886 17.4567286,44.8201948 L18.1628963,46.0900649 C18.6100073,46.8361941 19.098404,47.5562256 19.6264986,48.2494904 C22.1787288,48.4105385 24.5317894,48.4663029 26.684546,48.4194606 C30.9147468,48.3273377 34.3661896,47.8366101 36.9821632,46.9452694 C37.3716556,46.8121038 37.7960821,47.01531 37.9308279,47.3978543 C38.0653469,47.7803991 37.8593718,48.1979642 37.4703331,48.3306838 C37.1225801,48.4491276 36.7598553,48.5599872 36.3853347,48.6652708 C36.384881,48.6654937 36.3844273,48.6654937 36.3839736,48.6657169 C34.3242233,49.2438835 31.9384971,49.6581025 29.0886466,49.8311954 C28.9908765,49.8369951 28.8202893,49.8381105 28.7216118,49.8434636 C27.600545,49.9054742 26.4023511,49.9431708 25.1644594,49.9431708 C23.8111036,49.9431708 22.4271238,49.9177423 20.9369807,49.8434636 C26.1085872,55.5593284 34.245735,59 44.3820654,59 C62.7476432,59 78.7261333,52.1454238 88,37 L15,37" id="Path" fill="#1B81A5"></path>
                <path d="M19,38 C20.085981,42.7746945 22.6957009,46.5232262 26.4840693,49.0761915 C30.6682373,48.9868378 34.0821216,48.5108615 36.6696284,47.6463146 C37.0548824,47.5171519 37.4746903,47.7142497 37.6079698,48.0852948 C37.7410249,48.4563403 37.5372913,48.8613533 37.152486,48.9900833 C36.8085172,49.1049668 36.4497396,49.2124939 36.0792945,49.3146127 C36.0788457,49.3148288 36.078397,49.3148288 36.0779483,49.3150454 C34.040612,49.8758323 31.6308113,50.2775998 28.8119727,50.4454896 C36.0328486,54.0166124 46.473748,53.9653367 58.4778762,49.5190664 C65.7400374,46.8287168 72.7293574,42.82359 79,38 L19,38" id="Path" fill="#1D91B4"></path>
                <path d="M23,21 L32,21 L32,30 L23,30 L23,21 Z M23.7496352,21.7500811 L24.4598671,21.7500811 L24.4598671,29.2504054 L23.7496352,29.2504054 L23.7496352,21.7500811 Z M25.0849684,21.7500811 L25.8236582,21.7500811 L25.8236582,29.2504054 L25.0849684,29.2504054 L25.0849684,21.7500811 Z M26.4482731,21.7500811 L27.1869629,21.7500811 L27.1869629,29.2504054 L26.4482731,29.2504054 L26.4482731,21.7500811 Z M27.8123074,21.7500811 L28.5509973,21.7500811 L28.5509973,29.2504054 L27.8123074,29.2504054 L27.8123074,21.7500811 Z M29.1760986,21.7500811 L29.9147884,21.7500811 L29.9147884,29.2504054 L29.1760986,29.2504054 L29.1760986,21.7500811 Z M30.5396465,21.7500811 L31.2503649,21.7500811 L31.2503649,29.2504054 L30.5396465,29.2504054 L30.5396465,21.7500811 Z" id="Shape" fill="#23A3C2"></path>
                <path d="M32,11 L41,11 L41,20 L32,20 L32,11 Z M32.750527,11.7501216 L33.4601957,11.7501216 L33.4601957,19.2501216 L32.750527,19.2501216 L32.750527,11.7501216 Z M34.0857158,11.7501216 L34.8238394,11.7501216 L34.8238394,19.2501216 L34.0857158,19.2501216 L34.0857158,11.7501216 Z M35.4486299,11.7501216 L36.1872399,11.7501216 L36.1872399,19.2501216 L35.4486299,19.2501216 L35.4486299,11.7501216 Z M36.8122737,11.7501216 L37.5508836,11.7501216 L37.5508836,19.2501216 L36.8122737,19.2501216 L36.8122737,11.7501216 Z M38.1761606,11.7501216 L38.9147706,11.7501216 L38.9147706,19.2501216 L38.1761606,19.2501216 L38.1761606,11.7501216 Z M39.539318,11.7501216 L40.2504459,11.7501216 L40.2504459,19.2501216 L39.539318,19.2501216 L39.539318,11.7501216 Z" id="Shape" fill="#23A3C2"></path>
                <path d="M32,21 L41,21 L41,30 L32,30 L32,21 Z M32.750527,21.7500811 L33.4601957,21.7500811 L33.4601957,29.2504054 L32.750527,29.2504054 L32.750527,21.7500811 Z M34.0857158,21.7500811 L34.8238394,21.7500811 L34.8238394,29.2504054 L34.0857158,29.2504054 L34.0857158,21.7500811 Z M35.4486299,21.7500811 L36.1872399,21.7500811 L36.1872399,29.2504054 L35.4486299,29.2504054 L35.4486299,21.7500811 Z M36.8122737,21.7500811 L37.5508836,21.7500811 L37.5508836,29.2504054 L36.8122737,29.2504054 L36.8122737,21.7500811 Z M38.1761606,21.7500811 L38.9147706,21.7500811 L38.9147706,29.2504054 L38.1761606,29.2504054 L38.1761606,21.7500811 Z M39.539318,21.7500811 L40.2504459,21.7500811 L40.2504459,29.2504054 L39.539318,29.2504054 L39.539318,21.7500811 Z" id="Shape" fill="#34BBDE"></path>
                <path d="M42,21 L51,21 L51,30 L42,30 L42,21 Z M42.7500811,21.7500811 L43.4597881,21.7500811 L43.4597881,29.2504054 L42.7500811,29.2504054 L42.7500811,21.7500811 Z M44.0850988,21.7500811 L44.8237489,21.7500811 L44.8237489,29.2504054 L44.0850988,29.2504054 L44.0850988,21.7500811 Z M45.4488162,21.7500811 L46.1874664,21.7500811 L46.1874664,29.2504054 L45.4488162,29.2504054 L45.4488162,21.7500811 Z M46.8125336,21.7500811 L47.5511838,21.7500811 L47.5511838,29.2504054 L46.8125336,29.2504054 L46.8125336,21.7500811 Z M48.1760081,21.7500811 L48.9151442,21.7500811 L48.9151442,29.2504054 L48.1760081,29.2504054 L48.1760081,21.7500811 Z M49.5397255,21.7500811 L50.2499189,21.7500811 L50.2499189,29.2504054 L49.5397255,29.2504054 L49.5397255,21.7500811 Z" id="Shape" fill="#23A3C2"></path>
                <path d="M42,11 L51,11 L51,20 L42,20 L42,11 Z M42.7500811,11.7501216 L43.4597881,11.7501216 L43.4597881,19.2501216 L42.7500811,19.2501216 L42.7500811,11.7501216 Z M44.0850988,11.7501216 L44.8237489,11.7501216 L44.8237489,19.2501216 L44.0850988,19.2501216 L44.0850988,11.7501216 Z M45.4488162,11.7501216 L46.1874664,11.7501216 L46.1874664,19.2501216 L45.4488162,19.2501216 L45.4488162,11.7501216 Z M46.8125336,11.7501216 L47.5511838,11.7501216 L47.5511838,19.2501216 L46.8125336,19.2501216 L46.8125336,11.7501216 Z M48.1760081,11.7501216 L48.9151442,11.7501216 L48.9151442,19.2501216 L48.1760081,19.2501216 L48.1760081,11.7501216 Z M49.5397255,11.7501216 L50.2499189,11.7501216 L50.2499189,19.2501216 L49.5397255,19.2501216 L49.5397255,11.7501216 Z" id="Shape" fill="#34BBDE"></path>
                <path d="M51,21 L60,21 L60,30 L51,30 L51,21 Z M51.7501013,21.7500811 L52.4600705,21.7500811 L52.4600705,29.2504054 L51.7501013,29.2504054 L51.7501013,21.7500811 Z M53.0853985,21.7500811 L53.8240681,21.7500811 L53.8240681,29.2504054 L53.0853985,29.2504054 L53.0853985,21.7500811 Z M54.4486663,21.7500811 L55.187336,21.7500811 L55.187336,29.2504054 L54.4486663,29.2504054 L54.4486663,21.7500811 Z M55.8126636,21.7500811 L56.5513337,21.7500811 L56.5513337,29.2504054 L55.8126636,29.2504054 L55.8126636,21.7500811 Z M57.1764178,21.7500811 L57.9150879,21.7500811 L57.9150879,29.2504054 L57.1764178,29.2504054 L57.1764178,21.7500811 Z M58.5399291,21.7500811 L59.250385,21.7500811 L59.250385,29.2504054 L58.5399291,29.2504054 L58.5399291,21.7500811 Z" id="Shape" fill="#34BBDE"></path>
                <path d="M51,11 L60,11 L60,20 L51,20 L51,11 Z M51.7501013,11.7501216 L52.4600705,11.7501216 L52.4600705,19.2501216 L51.7501013,19.2501216 L51.7501013,11.7501216 Z M53.0853985,11.7501216 L53.8240681,11.7501216 L53.8240681,19.2501216 L53.0853985,19.2501216 L53.0853985,11.7501216 Z M54.4486663,11.7501216 L55.187336,11.7501216 L55.187336,19.2501216 L54.4486663,19.2501216 L54.4486663,11.7501216 Z M55.8126636,11.7501216 L56.5513337,11.7501216 L56.5513337,19.2501216 L55.8126636,19.2501216 L55.8126636,11.7501216 Z M57.1764178,11.7501216 L57.9150879,11.7501216 L57.9150879,19.2501216 L57.1764178,19.2501216 L57.1764178,11.7501216 Z M58.5399291,11.7501216 L59.250385,11.7501216 L59.250385,19.2501216 L58.5399291,19.2501216 L58.5399291,11.7501216 Z" id="Shape" fill="#23A3C2"></path>
                <path d="M51,2 L60,2 L60,11 L51,11 L51,2 Z M51.7501013,2.74959464 L52.4600705,2.74959464 L52.4600705,10.2499189 L51.7501013,10.2499189 L51.7501013,2.74959464 Z M53.0853985,2.74959464 L53.8240681,2.74959464 L53.8240681,10.2499189 L53.0853985,10.2499189 L53.0853985,2.74959464 Z M54.4486663,2.74959464 L55.187336,2.74959464 L55.187336,10.2499189 L54.4486663,10.2499189 L54.4486663,2.74959464 Z M55.8126636,2.74959464 L56.5513337,2.74959464 L56.5513337,10.2499189 L55.8126636,10.2499189 L55.8126636,2.74959464 Z M57.1764178,2.74959464 L57.9150879,2.74959464 L57.9150879,10.2499189 L57.1764178,10.2499189 L57.1764178,2.74959464 Z M58.5399291,2.74959464 L59.250385,2.74959464 L59.250385,10.2499189 L58.5399291,10.2499189 L58.5399291,2.74959464 Z" id="Shape" fill="#34BBDE"></path>
                <path d="M61,21 L70,21 L70,30 L61,30 L61,21 Z M61.7495947,21.7500811 L62.4602744,21.7500811 L62.4602744,29.2504054 L61.7495947,29.2504054 L61.7495947,21.7500811 Z M63.0848557,21.7500811 L63.8235054,21.7500811 L63.8235054,29.2504054 L63.0848557,29.2504054 L63.0848557,21.7500811 Z M64.4488165,21.7500811 L65.1874661,21.7500811 L65.1874661,29.2504054 L64.4488165,29.2504054 L64.4488165,21.7500811 Z M65.8120475,21.7500811 L66.5506971,21.7500811 L66.5506971,29.2504054 L65.8120475,29.2504054 L65.8120475,21.7500811 Z M67.1762512,21.7500811 L67.9146579,21.7500811 L67.9146579,29.2504054 L67.1762512,29.2504054 L67.1762512,21.7500811 Z M68.5397252,21.7500811 L69.2499189,21.7500811 L69.2499189,29.2504054 L68.5397252,29.2504054 L68.5397252,21.7500811 Z" id="Shape" fill="#23A3C2"></path>
                <path d="M40.5002448,42 C41.8807797,42 43,43.1197103 43,44.5002451 C43,45.8807799 41.8807797,47 40.5002448,47 C39.1194651,47 38,45.8807799 38,44.5002451 C38,43.1197103 39.1194651,42 40.5002448,42" id="Path" fill="#D3ECEC"></path>
                <path d="M40.5001025,43 C40.6917185,43 40.8745127,43.0361073 41.0431512,43.1015521 C40.8603569,43.2072076 40.7366477,43.4051834 40.7366477,43.631676 C40.7366477,43.9697736 41.0107365,44.2434519 41.348834,44.2434519 C41.5804554,44.2434519 41.7817137,44.1148189 41.8857278,43.9248443 C41.9591737,44.1018943 42,44.2963823 42,44.5003078 C42,45.3285235 41.3285235,46 40.5001025,46 C39.6718867,46 39,45.3285235 39,44.5003078 C39,43.6716815 39.6718867,43 40.5001025,43" id="Path" fill="#364548"></path>
                <path d="M0,38 L107,38 C104.670175,37.334838 99.6286071,36.4363747 100.460043,33 C96.2237736,38.5170665 86.0072462,36.8705178 83.4288921,34.1500228 C80.5576201,38.8368413 63.8425952,37.0553837 62.6767815,33.4042197 C59.0772707,38.1584927 47.9234054,38.1584927 44.3236691,33.4042197 C43.1574048,37.0553837 26.4426051,38.8368413 23.5711079,34.1500228 C20.9927539,36.8705178 10.7771275,38.5170665 6.5404073,33 C7.37184365,36.4363747 2.330275,37.334838 0,38" id="Path" fill="#364548"></path>
                <path d="M47,59.9475285 C41.3402532,57.0991148 38.2335603,53.2271531 36.5050328,49 C34.4028603,49.636542 31.8755521,50.0432549 28.9392269,50.2180014 C27.8330678,50.2837685 26.6695971,50.3174831 25.448367,50.3174831 C24.0406502,50.3174831 22.5572642,50.2733217 21,50.1857112 C26.1902838,55.6868985 32.5756046,59.9225988 44.3983654,60 C45.2712485,60 46.1378627,59.9819555 47,59.9475285" id="Path" fill="#BDD9D7"></path>
                <path d="M38,53 C37.1900153,51.8440661 36.404344,50.3913573 35.826842,49 C33.6520632,49.652952 31.0375585,50.0702374 28,50.2494219 C30.0863243,51.4401703 33.0703932,52.543518 38,53" id="Path" fill="#D3ECEC"></path>
            </g>
        </g>
    </g>
</svg>