<?xml version="1.0" encoding="UTF-8"?>
<svg width="140px" height="58px" viewBox="0 0 140 58" version="1.1" xmlns="http://www.w3.org/2000/svg" xmlns:xlink="http://www.w3.org/1999/xlink">
    <!-- Generator: Sketch 60 (88103) - https://sketch.com -->
    <title>ember</title>
    <desc>Created with Sketch.</desc>
    <g id="Symbols" stroke="none" stroke-width="1" fill="none" fill-rule="evenodd">
        <g id="Icons/Frontend" transform="translate(-410.000000, -262.000000)" fill-rule="nonzero">
            <g id="ember" transform="translate(410.000000, 262.000000)">
                <path d="M139.699745,39.9678598 C139.36038,36.6378393 136.942403,35.1531169 134.672899,35.1531169 C133.633593,35.1531169 132.80639,35.4500615 132.488235,35.5773232 L132.042819,35.7682162 L131.661033,36.0439504 C131.130775,36.4469465 130.197521,36.9984147 129.370318,37.2953593 C129.327898,36.6166291 129.349108,35.7470058 129.45516,35.0258549 L129.47637,34.8985929 C130.091469,29.0445443 128.861271,25.6296826 125.828195,24.7600594 C125.319147,24.6115872 124.788889,24.5479562 124.258631,24.5479562 C122.413333,24.5479562 120.780138,25.4387897 119.719622,26.2023613 C118.828789,25.0782143 117.344066,24.4419046 115.477558,24.4419046 C112.699006,24.4419046 110.471922,25.7357342 109.66593,27.8143458 C109.581089,28.0264488 109.475037,28.3446039 109.347775,28.7688102 C107.71458,25.1630555 104.38456,23.7843847 101.287853,23.7843847 C98.3608288,23.7843847 95.5186457,24.929742 94.4581296,25.7357342 C94.4157092,25.7781548 94.3520778,25.7993652 94.2884469,25.8629962 C91.5098952,27.835556 89.346442,30.3171637 87.8192989,33.307819 C87.0769376,30.7201598 85.4437433,28.3021832 82.5167188,26.4780955 L82.4742979,26.4356748 C82.3894566,26.3932542 82.3258257,26.3508335 82.2409844,26.3084129 C85.104378,21.2179358 87.6496163,14.4730536 86.1224732,8.04632628 C84.5104888,1.1953925 80.4805278,0.177297076 78.2110234,0.177297076 C77.2777695,0.177297076 76.3233052,0.346979647 75.3476304,0.686344787 L75.283999,0.70755511 L75.2203681,0.728765427 C70.9570937,2.40438081 69.0905853,4.92840903 68.6875892,5.52229802 C68.2633827,6.15860765 63.5971121,13.242855 62.4729651,23.6147021 C62.3457035,24.7600594 62.2184412,25.9478374 62.0911795,27.1356154 C61.4336595,26.2023613 60.3519329,25.3539484 58.6338967,24.8236904 C58.1036389,24.6540078 57.5521707,24.5903769 57.0007024,24.5903769 C54.6463567,24.5903769 52.7374277,26.0326787 51.7193322,26.9871432 L51.698122,26.9659328 C50.8072885,25.6508929 49.3861969,24.866111 47.8166332,24.8024801 L47.4348473,24.8024801 C44.9320294,24.8024801 42.9382591,25.9054168 41.4747471,27.1568258 C40.541493,25.523631 38.8234568,24.5055356 36.8084763,24.5055356 C36.6387937,24.5055356 36.4903215,24.5055356 36.3418494,24.5267459 L36.0024841,24.5267459 C33.2239321,24.5267459 31.039269,25.8417858 30.1484355,28.0264488 C30.0848046,28.1961314 29.9999633,28.4082347 29.915122,28.6839688 C27.7304589,25.9690478 24.9519068,24.6964285 21.2188903,24.6964285 L20.8583148,24.6964285 C18.5251794,24.7388491 12.7135514,25.7145239 9.15021742,33.7320253 C8.59874911,34.9622241 8.17454265,36.213633 7.85638781,37.4438315 C7.07160597,37.083256 6.35045504,36.9984147 5.82019703,36.9984147 C3.95368873,36.9984147 2.55380752,38.0589309 1.87507724,39.0558159 C1.32360889,39.8618081 -0.436847777,42.7252017 0.432775394,45.5249639 C0.899402466,47.0308968 1.98112885,48.1762542 3.50827197,48.7701431 C4.84452223,49.3004012 6.54134791,49.8094488 7.81396721,50.1700243 C8.59874911,51.9516913 9.99863027,54.0090924 12.4802379,55.8968109 C14.2406945,57.2330615 16.4889886,57.9117914 19.1402788,57.9117914 C23.5944463,57.9117914 27.9001415,55.9816522 28.3667685,55.7695492 L28.5364511,55.6847079 L28.5788717,55.642287 C29.4272846,56.5331205 30.5514316,57.1694301 31.9725232,57.4451645 C32.3967294,57.5300058 32.948198,57.5936366 33.5845075,57.5936366 C36.0024841,57.5936366 37.6780996,56.3634379 39.2264529,54.0515131 C40.4990723,56.0452831 42.8109974,57.1694301 45.5471288,57.1694301 L45.568339,57.1694301 C45.7168114,57.1694301 45.8652836,57.2754819 46.0349662,57.2754819 C47.477268,57.2754819 49.2801454,56.766434 50.786078,54.3484577 C52.037487,56.5967519 54.3282019,57.8905815 57.0431228,57.8905815 C59.4610994,57.8905815 61.5609212,56.8936962 61.9427074,56.7028031 L62.0275481,56.6603827 C62.8335409,56.2361762 63.5122708,55.8543906 64.0425292,55.5574457 C65.8454061,56.5119106 68.5815375,57.5724267 71.9327685,57.5724267 C72.5054472,57.5724267 73.0781259,57.5512163 73.6508047,57.4875854 L73.7992768,57.4663749 L73.947749,57.4451645 C81.0532066,56.0452831 85.6770567,54.3484577 88.4343986,53.0546281 C90.3645377,55.218081 93.4400344,57.2966923 97.8305705,57.6148471 C98.3184079,57.6572675 98.8274558,57.678478 99.3152932,57.678478 C102.921048,57.678478 105.805652,56.6603827 107.926683,55.5362358 C108.605414,56.2573867 109.453826,56.9149067 110.556764,57.3603232 C111.214284,57.6360576 111.893014,57.7633193 112.592955,57.7633193 C117.004701,57.7633193 119.062103,52.5031595 119.634781,50.7214928 L120.695297,47.8793096 C121.628551,48.8761947 122.816329,49.6821868 124.322262,50.1063934 C125.149464,50.3397069 126.040298,50.4669689 126.952342,50.4669689 C131.809505,50.4669689 136.475776,47.0308968 137.218137,46.4582181 C138.554387,45.3552813 140.0179,43.0857771 139.699745,39.9678598" id="Path" fill="#FFFFFF"></path>
                <path d="M95.2025695,41.4051985 C95.2025695,41.4051985 94.5874699,39.2417456 96.8781848,35.0633124 C99.1476892,30.9060895 100.929356,33.1755939 100.929356,33.1755939 C100.929356,33.1755939 102.880706,35.2966259 100.653622,38.4569638 C98.4265383,41.6385119 95.2025695,41.4051985 95.2025695,41.4051985 M77.7040542,44.417064 C75.095185,51.2467874 68.7532987,48.4682354 68.7532987,48.4682354 C68.7532987,48.4682354 68.0321478,46.0290484 70.0895492,39.1781147 C72.1469501,32.3483912 76.9829033,35.0208918 76.9829033,35.0208918 C76.9829033,35.0208918 80.3129238,37.5873405 77.7040542,44.417064 M72.9741528,15.8043407 C72.9741528,15.8043407 76.9192724,5.51733483 77.8737368,10.5229706 C78.8282017,15.5286065 69.6017118,30.4182521 69.6017118,30.4182521 C69.6865531,27.0670213 72.9741528,15.8043407 72.9741528,15.8043407 M16.5546982,41.4051985 C16.7243807,34.7875783 21.0512863,31.9029745 22.5572191,33.3452762 C24.0631519,34.7875783 23.5116836,37.9054953 20.6695005,39.8568449 C17.8485278,41.8081946 16.5546982,41.4051985 16.5546982,41.4051985 M136.096069,40.3234721 C135.883965,38.0963884 133.868985,38.9235908 133.868985,38.9235908 C133.868985,38.9235908 130.645016,41.4264087 127.802833,41.1506745 C124.98186,40.8537299 125.872694,34.5330543 125.872694,34.5330543 C125.872694,34.5330543 126.487794,28.7214264 124.812178,28.2335889 C123.136563,27.7457515 121.079162,29.7395218 121.079162,29.7395218 C121.079162,29.7395218 118.512712,32.5817047 117.303724,36.1874594 L116.964359,36.2935109 C116.964359,36.2935109 117.346145,29.9516248 116.900728,28.5093231 C116.561363,27.7881722 113.507077,27.851803 113.019239,29.1244225 C112.510192,30.3970416 110.071005,39.2841662 109.901322,43.0171829 C109.901322,43.0171829 105.129,47.0683543 100.950567,47.7470845 C96.772133,48.4046046 95.7752483,45.7957349 95.7752483,45.7957349 C95.7752483,45.7957349 107.12277,42.635397 106.719774,33.57859 C106.337988,24.5217827 97.5781252,27.8730135 96.5812405,28.6153746 C95.6267761,29.3365257 90.5150885,32.4120221 89.0091559,40.9597817 C88.966735,41.256726 88.8606832,42.5293455 88.8606832,42.5293455 C88.8606832,42.5293455 84.4701471,45.4775801 82.03096,46.2623621 C82.03096,46.2623621 88.8606832,34.7663678 80.5250274,29.5274186 C76.7495898,27.2579141 73.7377246,32.0302365 73.7377246,32.0302365 C73.7377246,32.0302365 85.0216153,19.4737262 82.5187974,8.84735528 C81.3310196,3.7992988 78.8069912,3.24783046 76.473856,4.07503298 C72.9529423,5.47491417 71.6166923,7.51110502 71.6166923,7.51110502 C71.6166923,7.51110502 67.056473,14.1287253 65.9959569,23.9703143 C64.9354407,33.8119035 63.3870877,45.6896834 63.3870877,45.6896834 C63.3870877,45.6896834 61.2236345,47.8107154 59.2298645,47.9167672 C57.2360945,48.0228187 58.126928,41.9778772 58.126928,41.9778772 C58.126928,41.9778772 59.6752816,32.7513873 59.5692298,31.2030338 C59.463178,29.6546805 59.3571268,28.8062677 57.5118284,28.2547991 C55.687741,27.7033309 53.6727605,30.0364662 53.6727605,30.0364662 C53.6727605,30.0364662 48.3913905,38.0327573 47.9459738,39.262956 L47.6702394,39.7720036 L47.3945053,39.4326386 C47.3945053,39.4326386 51.1275219,28.5305335 47.5641879,28.3820611 C44.0008539,28.2123785 41.6677186,32.2635499 41.6677186,32.2635499 C41.6677186,32.2635499 37.6165471,39.0508527 37.4468645,39.8144243 L37.1711304,39.4750593 C37.1711304,39.4750593 38.8467459,31.5848197 38.5073806,29.6334701 C38.1680157,27.6821207 36.343928,28.0851168 36.343928,28.0851168 C36.343928,28.0851168 34.0107925,27.8093824 33.3956933,29.3153153 C32.780594,30.8212482 30.5535102,40.7688889 30.2777761,43.9292266 C30.2777761,43.9292266 24.4449377,48.10766 20.6058696,48.1500806 C16.7668014,48.2137115 17.1697975,45.7108936 17.1697975,45.7108936 C17.1697975,45.7108936 31.2322404,40.8961506 27.3931723,31.3939269 C25.6751363,28.9547398 23.6601558,28.1911683 20.8391831,28.2335889 C17.997,28.2972198 14.6669796,30.015256 12.3762649,35.1269433 C11.2945385,37.5661303 10.8491217,39.8780554 10.8491217,41.6385119 L10.8491217,41.6385119 C10.8491217,41.6385119 8.21904193,42.1475595 6.88279167,41.0234126 C5.54654141,39.9204761 4.78296987,41.0234126 4.78296987,41.0234126 C4.78296987,41.0234126 2.44983453,44.3534331 4.71933891,45.2442666 C6.98884328,46.1351001 10.5097566,46.9623025 10.5097566,46.9623025 L10.5097566,46.9623025 C10.8279114,48.4046046 11.7823759,50.75895 14.560928,52.8587718 C18.7181509,56.01911 26.7356524,52.3709344 26.7356524,52.3709344 L30.0232521,50.4195851 C30.0232521,50.4195851 30.1293039,53.3678197 32.52607,53.8132365 C34.9228364,54.2586532 35.9197214,53.7708158 40.0769444,43.6747029 C42.5161314,38.4993845 42.6858141,38.7751186 42.6858141,38.7751186 L42.9615482,38.7114875 C42.9615482,38.7114875 41.0738297,48.5954974 41.7949806,51.2679979 C42.5161314,53.9404984 45.6764694,53.664764 45.6764694,53.664764 C45.6764694,53.664764 47.3945053,54.2798634 48.7943866,49.3802791 C50.1942678,44.4806951 52.8455578,39.3690075 52.8455578,39.3690075 L53.1849231,39.3690075 C53.1849231,39.3690075 52.0183554,49.2105968 53.8000224,52.4345655 C55.5816892,55.6585343 60.1843289,53.3890299 60.1843289,53.3890299 C60.1843289,53.3890299 63.4082977,51.6922042 63.9173455,51.1831566 C63.9173455,51.1831566 67.7352035,54.4071254 73.1438354,53.8132365 C85.2125084,51.4376803 89.4969928,48.2137115 89.4969928,48.2137115 C89.4969928,48.2137115 91.5756047,53.452661 97.9811213,53.9404984 C105.319893,54.4919667 109.328643,49.8681165 109.328643,49.8681165 C109.328643,49.8681165 109.265013,52.8587718 111.831461,53.919288 C114.39791,54.9798038 116.115946,49.3802791 116.115946,49.3802791 L120.400431,37.9054953 L120.782217,37.9054953 C120.782217,37.9054953 120.99432,45.2442666 125.236384,46.4744651 C129.499659,47.6834534 134.993132,43.4413892 134.993132,43.4413892 C134.993132,43.4413892 136.329383,42.5505556 136.096069,40.3234721" id="Shape" fill="#E24B31"></path>
            </g>
        </g>
    </g>
</svg>