<?xml version="1.0" encoding="UTF-8"?>
<svg width="77px" height="58px" viewBox="0 0 77 58" version="1.1" xmlns="http://www.w3.org/2000/svg" xmlns:xlink="http://www.w3.org/1999/xlink">
    <!-- Generator: Sketch 60 (88103) - https://sketch.com -->
    <title>hadoop</title>
    <desc>Created with Sketch.</desc>
    <g id="Symbols" stroke="none" stroke-width="1" fill="none" fill-rule="evenodd">
        <g id="icons/server" transform="translate(-597.000000, -267.000000)" fill-rule="nonzero">
            <g id="hadoop" transform="translate(597.000000, 267.000000)">
                <polyline id="Path" fill="#FFFF00" points="28.4757665 12.655863 23.3893354 13.4821354 18.7484638 15.5168872 14.8065619 17.996302 11.0553152 22.573821 8.9362926 24.8183533 6.88689804 25.5738023 6.34511439 24.249077 7.29271284 22.8813198 7.50548172 20.9523549 8.14020234 20.9780545 8.83379301 21.6106833 8.64672375 19.6455595 7.87782723 19.1297743 7.90143501 18.3808996 6.08034864 19.4112747 4.43138988 21.3569743 4.08713463 23.0958817 4.79267859 24.488442 5.45040933 26.8540015 6.78798444 27.487228 8.19518754 27.4181977 9.52947549 26.6430257 8.63925291 31.1571921 9.52947549 36.1796733 8.5496031 38.4989136 5.3404389 41.9564079 5.9109105 44.0222382 7.43137122 46.4158878 10.2977743 48.4330086 11.818235 48.641295 13.5087315 48.6986709 12.4538521 53.0281587 16.3324015 54.6173511 21.1642272 55.2532668 22.8170708 54.1726878 22.9443735 51.2477136 24.78847 48.1960341 24.9154739 45.7799721 29.3659891 46.0979301 33.4985463 45.7166196 29.3659891 48.1960341 30.0655563 51.1843611 32.6719752 55.2532668 35.2153401 56.3341446 37.2497931 55.5075735 38.0760654 53.8547301 42.3359253 50.6120964 43.1624964 51.3113649 49.8384186 51.5656716 51.1733043 50.4850926 51.3003081 48.5773446 50.8556451 47.7513711 50.5373883 42.6012888 48.3122802 38.1507735 48.6938895 36.1796733 50.0287752 36.8792406 53.7800217 40.3758816 55.6238196 40.5031845 57.6582723 39.6766131 59.6930241 38.1507735 60.7099518 34.8444888 66.6866055 35.2260981 70.3105494 33.8275611 73.2352248 31.0935408 75.3333291 27.1516389 75.8416437 22.5104685 75.3966816 17.1060794 74.2524513 12.2745525 73.1079222 10.7487128 71.5187301 10.2398008 68.7210585 13.2914802 66.1779921 14.1817027 63.9525852 10.4941074 61.7274771 8.45965446 60.5192964 7.69673463 55.6871721 3.69118131 51.8092203 1.59307704 47.9306709 1.2754179 43.4168031 2.03833774 39.4749012 3.50022723 36.7408809 5.72563425 34.5794241 8.33235174 32.354316 8.96826771 28.4757665 12.655863"></polyline>
                <path d="M13.7241899,24.1304405 C9.36750816,29.2120903 10.3354272,35.3749167 11.5427113,41.4134289 C10.898428,39.7850895 10.2538459,38.1567501 9.60956265,36.5293074 C9.37199067,35.0366382 9.13441869,33.543969 8.89714554,32.0512995 C8.96498055,30.5248623 9.03251673,28.9987238 9.10065057,27.4725852 C9.71116575,26.0142817 10.3216809,24.5556794 10.9321961,23.097077 C11.8478194,21.7403767 12.7637416,20.3836763 13.6796638,19.026677 C15.1041992,17.8397136 16.5290335,16.6524514 17.9535689,15.4654879 C19.5134755,14.8209058 21.0739798,14.1766226 22.6341852,13.5320405 C24.4657307,13.2947673 26.2972763,13.0574941 28.1291206,12.8199222 C26.4329463,14.7530708 24.7370708,16.6865183 23.0411953,18.6196669 C18.9558537,19.944691 16.5469634,20.8373043 13.7241899,24.1304405" id="Path" fill="#FFFFCC"></path>
                <path d="M34.2342723,8.64762024 C31.2056031,11.6027767 29.5509665,13.8314708 27.6234957,17.2913556 C26.2449805,19.7665868 24.6982226,22.1503751 23.2485852,24.5909416 C22.5155486,25.8263159 22.4462194,26.86207 22.2268762,28.2866054 C21.514758,27.4388171 20.8026397,26.59073 20.0902226,25.7429416 C20.4296965,24.7251175 20.7685728,23.7075922 21.1077478,22.6900669 C22.2609432,20.6209494 23.4144374,18.5518319 24.5676327,16.4830132 C27.0096934,14.0747206 29.4520529,11.6667268 31.8941136,9.25843425 C32.6740668,9.05463036 33.4543191,8.85142413 34.2342723,8.64762024" id="Path" fill="#FFFFCC"></path>
                <path d="M49.1926413,1.32143813 C46.7664186,2.23078599 42.7378554,2.53051517 42.4584468,5.31473931 C42.2594241,7.29211518 42.6075642,8.28573384 43.7993088,10.3778615 C40.8555081,7.33126227 40.1275518,7.80282024 34.4377773,8.74952217 C35.2520964,7.59632685 36.0661167,6.44313153 36.8798382,5.28993618 C38.3043735,4.4077821 39.7292079,3.52592685 41.1537432,2.64407159 C42.9852888,2.23706148 44.8171332,1.83005136 46.6486785,1.42304125 C47.4964668,1.38927315 48.3445542,1.35550506 49.1926413,1.32143813" id="Path" fill="#FFFFCC"></path>
                <path d="M55.8864933,38.9836203 C56.6939394,39.4820733 56.6766069,39.8433618 56.5415346,40.1849277 C57.1786458,39.9300234 57.8157573,39.6751191 58.4525697,39.4208124 C58.8655563,38.8664778 59.2779456,38.312442 59.6909322,37.7581074 C59.9972358,36.9682926 60.3035394,36.1790754 60.6098427,35.3892606 C60.2183721,35.0949105 59.8272,34.8005604 59.4354303,34.50621 C57.7246131,34.724358 56.0137962,34.9428048 54.3026802,35.1615501 C54.1756764,35.5070007 54.0480747,35.8530489 53.9204733,36.1990974 C53.9569308,36.6903783 53.9936871,37.181958 54.0298458,37.6732389 C54.1936062,37.9646007 54.3576654,38.2556637 54.5214258,38.5470258 C54.7763301,38.6743284 55.0309353,38.8019301 55.2858396,38.9292327 C55.4863563,38.9471625 55.6862754,38.9656902 55.8864933,38.9836203" id="Path" fill="#CCCC00"></path>
                <path d="M55.4086599,30.2057088 C52.8357105,30.9483081 52.8557322,31.1530086 52.0960995,33.7056375 C53.0989821,32.0964234 53.8415814,31.2841962 55.4086599,30.2057088" id="Path" fill="#CCCC00"></path>
                <path d="M72.5159346,11.1046226 C72.0587205,11.3158973 71.6131611,11.4175004 71.3274771,11.8358662 C70.7118816,12.7365478 70.184442,13.4940887 69.1666179,14.1261198 C68.653821,14.4446755 68.1236919,14.65087 67.5801153,14.820607 C67.1291766,14.9607595 66.8581353,14.8352498 66.4744341,15.1113712 C66.7021446,15.1508171 66.9298554,15.1908607 67.1575659,15.2306054 L68.6636826,15.2306054 C69.2825649,14.8483984 69.9014475,14.4661914 70.5203301,14.0842833 C70.8846069,13.7017774 71.2485852,13.3195704 71.6125635,12.9373634 C71.9134878,12.3265494 72.2147112,11.7151377 72.5159346,11.1046226" id="Path" fill="#CCCC00"></path>
                <path d="M31.532526,16.8141198 C30.5203797,19.584 29.635835,21.9582257 28.1028233,24.4657307 C30.0673494,22.3488 31.2584964,20.5495284 32.3839005,18.1561774 C32.8210926,17.226509 32.9035704,16.1354708 34.1213136,16.5409868 C34.176,17.4697588 34.3723332,18.3976343 34.4267205,19.3258086 C35.0847501,14.6102288 36.9399036,12.6379331 41.252358,10.8075829 C40.0328217,10.9534132 38.8132857,11.0989447 37.5940482,11.2444763 C36.4471284,11.4993805 35.3005074,11.7542848 34.1535876,12.0088903 C33.5893914,12.8279907 33.0248964,13.6473899 32.4609993,14.4661914 C32.1514086,15.2488343 31.8421167,16.031477 31.532526,16.8141198" id="Path" fill="#CCCC00"></path>
                <path d="M39.8869914,16.7050459 C40.8172575,21.0820483 42.1563267,25.2830381 42.7378554,29.7296685 C43.1155797,32.6190816 43.1568186,34.0071594 41.7032964,36.5000217 C40.1144031,36.3972234 39.1279563,36.5762241 37.5910599,37.0800561 C31.4733573,39.0855222 27.9644638,42.0344031 23.8420669,36.0927129 C25.1581261,36.7127907 26.4741852,37.3328685 27.7902444,37.9532451 C28.7282802,37.7688654 29.6663159,37.5847845 30.6043518,37.3998069 C32.2607814,36.435474 33.917211,35.4705432 35.5736406,34.50621 C36.8657931,34.2513057 38.1582444,33.9964017 39.4503969,33.7414974 C39.8690616,31.9945215 40.287726,30.246948 40.7063907,28.4996731 C40.3968,26.1879035 40.0872093,23.8764327 39.7779174,21.564663 C39.7417587,20.4727284 39.7053012,19.3807938 39.6688437,18.2885603 C39.7417587,17.760523 39.814674,17.2327844 39.8869914,16.7050459" id="Path" fill="#CCCC00"></path>
                <path d="M50.4259236,43.7888499 C49.9119315,47.3449587 51.6093012,49.2565914 50.9064468,50.2388544 C50.7074241,50.516769 50.4378771,51.0020733 50.1369525,51.1353525 C49.0614537,51.6101976 47.5828296,51.0463005 47.4773415,51.3242148 L43.9281057,51.3242148 C43.4547549,51.1239969 42.9817026,50.923779 42.5083518,50.7235611 C43.2363081,49.8680031 43.9642647,49.0124451 44.6925198,48.1571859 C45.4022475,46.6104279 46.112274,45.0630723 46.8220017,43.5157167 C47.2771236,41.950431 47.7322458,40.3851456 48.1870692,38.8198599 L48.8970957,38.8198599 C49.4066055,40.4762895 49.9164141,42.1324203 50.4259236,43.7888499" id="Path" fill="#CCCC00"></path>
                <path d="M44.4603267,33.4507332 C44.7487005,35.065326 45.2495439,35.4490272 46.0088778,37.0119222 C45.503253,39.5618616 44.6913246,42.5941167 43.7138427,44.8440279 C43.3017525,45.7928217 42.9691518,46.3160778 42.2420919,47.0494131 C41.0153838,48.2883735 39.7752279,49.3671594 38.383863,50.4411642 C37.3821759,51.2130489 36.6832062,50.8260606 35.4475332,50.6509446 C34.9218864,51.6036234 34.7769525,52.1328561 33.809631,52.6166661 C32.322042,53.3601618 30.9910413,51.757821 29.8232031,50.814705 C30.66621,52.1313618 31.5092172,53.4477198 32.3516265,54.7643766 C32.9343501,55.3106427 33.5167752,55.8560124 34.0992,56.4022785 C34.5904809,56.474895 35.0820606,56.5481088 35.5736406,56.6210241 C36.2286816,56.2205883 36.8840217,55.8198537 37.539063,55.4194179 C37.8851112,54.7643766 38.2308606,54.1090365 38.57661,53.4539952 C39.3048654,52.9077291 40.0331205,52.3617618 40.7607783,51.8154957 C41.6527938,51.0513804 42.5448093,50.2866678 43.436526,49.5222537 C44.001021,48.7213821 44.5649184,47.9208093 45.1294131,47.1196389 C45.6389229,46.1732358 46.1484327,45.2268327 46.6579425,44.2804296 C47.3135814,42.3147081 47.9686227,40.3486878 48.6242616,38.3832654 C48.6786489,37.6367814 48.7330365,36.8905962 48.7877229,36.1441122 C47.9686227,35.7804327 47.149821,35.4158568 46.3304217,35.0518785 C45.729768,34.4879814 45.0609804,34.0149291 44.4603267,33.4507332" id="Path" fill="#CCCC00"></path>
                <path d="M24.8709479,44.8263969 C27.6267829,44.8263969 30.5374131,44.6733945 33.061653,43.5157167 C33.775863,42.4444017 34.4811081,41.5691205 35.354895,40.6221198 C34.5597012,42.1243518 34.3101759,42.9736341 34.0992,44.6626365 C33.8260668,45.0630723 33.5532327,45.4632093 33.2800995,45.8639439 C31.2050055,45.9183315 29.1302101,45.9730179 27.0551159,46.0277043 C26.3815471,45.9544902 25.708277,45.881874 25.0347082,45.8092575 C24.961793,45.7360437 24.8891767,45.6634272 24.8162615,45.590811 C24.8347891,45.3359067 24.8530179,45.0810024 24.8709479,44.8263969" id="Path" fill="#CCCC00"></path>
                <path d="M24.4887409,42.9153618 C24.4176187,42.2692857 24.3461977,41.6229105 24.2747767,40.9762365 C23.8041152,43.8103659 23.9170739,45.7100451 22.6126693,48.2489277 C21.6384747,49.3776186 20.4386615,50.4047067 19.0646288,50.9545587 C19.1808747,51.6505401 19.2155393,52.0859394 19.1480031,52.5960468 C18.9059486,54.4317759 15.2338926,53.6207439 13.7232934,53.5475301 C16.1471253,54.1717914 18.5703595,54.7954554 20.9938926,55.4194179 C21.5401588,55.2009711 22.0858272,54.9828234 22.6320934,54.7643766 C22.8143813,53.7088995 22.9963704,52.6528248 23.1783595,51.597348 C23.6878693,50.6509446 24.1976778,49.7039439 24.7071875,48.7581384 C24.7980327,48.175116 24.8891767,47.5932888 24.9803206,47.0105649 C24.8162615,45.6454974 24.6528,44.2804296 24.4887409,42.9153618" id="Path" fill="#CCCC00"></path>
                <path d="M20.3932389,26.9161588 C20.3173354,28.2943751 20.2282833,28.8687315 20.8358101,30.0858771 C21.6082926,31.6326351 22.5570864,33.0864561 23.3965074,34.615284 C23.4876514,33.5956668 23.5784965,32.5766475 23.6696405,31.5573291 C22.5777058,30.0099735 21.4854724,28.4632156 20.3932389,26.9161588" id="Path" fill="#CCCC00"></path>
                <path d="M9.18432375,37.3262943 C8.94764826,37.8292296 8.71157043,38.3324637 8.47489494,38.8356981 C9.1254537,41.0270382 9.70399377,42.415116 10.9426552,44.3294382 C10.726898,45.1049088 10.5655284,45.4443828 10.0691673,46.0764141 C8.97902568,45.9090678 8.01080778,45.860358 6.90602334,45.8639439 C8.12555952,46.8100482 9.34509573,47.7570489 10.5646319,48.703452 C11.1649868,48.5937804 11.7659393,48.4847067 12.366593,48.3756327 C12.9669478,47.774979 13.5679004,47.1743253 14.1685541,46.5736716 C13.3129961,45.2447625 12.4574381,43.9164513 11.602179,42.5875425 C10.7959284,40.8339921 9.98997666,39.0798444 9.18432375,37.3262943" id="Path" fill="#CCCC00"></path>
                <path d="M72.5237043,10.3796545 C73.2666024,13.7209027 74.2246599,16.8045572 74.1356079,20.2267891 C74.0265339,24.4253883 73.2083301,29.7290708 69.318126,32.2607814 C64.9614444,35.0964048 59.8472217,33.7552437 55.0670943,32.54019 C57.0148857,33.3413604 58.9626771,34.1419332 60.9098709,34.9428048 C62.7300606,35.0339487 64.5502506,35.1250926 66.3704406,35.2156389 C67.6082055,34.8519594 68.8459704,34.4879814 70.0834365,34.1240031 C71.0480685,33.3228327 72.0129993,32.5222599 72.977631,31.7210895 C73.7055876,30.1922616 74.4335439,28.6634335 75.1617993,27.1346054 C75.4349322,25.3688031 75.7077666,23.6032996 75.9806007,21.8377961 C75.762453,20.1084514 75.5437074,18.3794054 75.3255594,16.6503595 C74.9251236,14.9395424 74.524389,13.2284265 74.124252,11.5176093 C73.5908358,11.1380918 73.0574196,10.7588731 72.5237043,10.3796545" id="Path" fill="#CCCC00"></path>
                <path d="M7.50847005,20.3385525 C5.53079532,21.6259237 4.75383036,22.1910163 4.97078289,24.5768965 C5.16771363,25.2914054 5.3649432,26.0059144 5.56187394,26.7204233 C5.84128248,26.9095844 6.12039222,27.0984467 6.39950196,27.2873089 C6.7446537,27.4023595 7.08950661,27.5171113 7.43465838,27.6321619 C8.05891983,27.4845385 8.68318131,27.3366163 9.30714396,27.1886941 C9.62779143,26.1947767 9.94814007,25.201158 10.2681899,24.2072405 C9.38125446,24.6426397 8.49402024,25.0780389 7.60708482,25.5134381 L6.99119067,25.5134381 C6.76138833,25.1602179 6.53128716,24.8069977 6.30118599,24.4537774 C6.58059456,24.0428825 6.85970427,23.6325852 7.13911284,23.2216903 C7.28703501,22.4414381 7.43465838,21.661186 7.58258055,20.8809338 C7.77144279,20.9383097 7.96030506,20.9959844 8.14916733,21.0530615 C8.37926847,21.2341541 8.60907081,21.4149478 8.83917198,21.595144 C8.80630038,21.1848467 8.77342878,20.7739517 8.74055721,20.3633556 C8.58456654,20.1006817 8.42827704,19.8377089 8.27228637,19.575035 C8.11629573,19.4432498 7.96030506,19.3120623 7.80431439,19.1805759 C7.70569962,19.5666677 7.60708482,19.9527595 7.50847005,20.3385525" id="Path" fill="#CCCC00"></path>
                <path d="M51.8815377,1.53898833 C53.6368809,3.16912062 55.7911659,4.58588637 57.1953804,6.57790506 C57.7386585,7.34889339 58.3423005,7.74335253 57.1861167,8.83259766 C58.4077446,8.4835611 58.8616716,8.52151284 59.8397511,8.63985057 C61.6187019,8.85530895 63.2861883,11.3843299 63.392274,13.1964514 C63.3713556,13.3658895 62.8983036,13.750786 61.5227766,14.1306023 C61.4955828,14.1834957 60.7464093,14.0281027 60.764937,14.0789043 C60.9080778,14.4697774 61.099032,14.5298428 61.3906926,14.7127284 C61.4540451,15.1478288 61.4946864,15.8187082 61.7911284,16.2944498 C62.656548,16.2789105 63.5025432,16.3733416 64.3500327,16.5409868 C64.6351191,17.0143377 64.5923859,17.4873899 64.5684795,17.9607409 C64.896,17.9063533 65.2235205,17.8516669 65.5513401,17.7972794 C65.460495,17.0507953 65.3693511,16.3046101 65.2785057,15.5584249 C65.569569,15.0668451 65.860632,14.5752654 66.1519938,14.0842833 C65.7333291,13.1372825 65.3146647,12.1911782 64.896,11.2444762 C64.0954272,10.4800623 63.2945556,9.71564826 62.4933852,8.95123425 C62.4165852,8.94734943 62.3388888,8.94346458 62.2623876,8.93957976 C61.3614069,8.38673931 60.4610241,7.83419766 59.5603425,7.28135721 C58.0912809,6.07945215 56.6225184,4.87784592 55.1534568,3.67594086 C54.0627174,2.96352373 52.9722771,2.25140545 51.8815377,1.53898833" id="Path" fill="#CCCC00"></path>
                <path d="M54.8384871,14.9930335 C54.7458489,15.1550008 54.6059952,15.4137899 54.4269945,15.5930895 C55.1579394,16.2845883 55.5186303,16.747779 55.7795112,17.7258584 C54.9529401,18.1361556 54.126369,18.5467517 53.3000964,18.9567502 C52.6005291,19.6273307 51.9009618,20.2979113 51.2019921,20.968193 C50.2812888,20.4727284 50.052084,20.0923144 49.6065246,19.1474054 C49.0877511,19.2848685 48.5964699,19.4169525 48.1679439,19.2597665 C48.4398816,19.2618584 48.6066303,19.1940233 48.8782692,19.0260794 C49.323231,18.5637852 49.7684919,18.101491 50.2134537,17.6391969 C50.9993838,17.0439222 51.7856124,16.4483486 52.5715425,15.8530739 C53.0861322,15.6854288 53.6004234,15.5177837 54.1150131,15.3501385 C54.3113463,15.2694537 54.6418554,15.0740171 54.8384871,14.9930335" id="Path" fill="#CCCC00"></path>
                <path d="M57.1197759,17.4595985 C54.490347,18.8754677 51.9717852,20.2994054 50.627337,22.988302 C50.627337,19.5753338 54.0543501,18.0728031 57.1197759,17.4595985" id="Path" fill="#CCCC00"></path>
                <path d="M50.1052764,10.7454257 C48.1527036,12.0767253 46.7720964,14.7635299 46.9454196,17.381902 C46.3095036,15.1146584 46.5348234,12.9723268 48.487695,11.4064436 C48.8173074,11.2462693 49.146621,11.0857961 49.4762334,10.9259206 C49.6860141,10.8658552 49.8954957,10.8057899 50.1052764,10.7454257" id="Path" fill="#CCCC00"></path>
                <path d="M76.3816341,16.9270786 C76.0272186,14.6942008 75.4403112,12.5267673 74.6256933,10.9683549 C74.5264809,10.7776996 74.3758692,10.5846537 74.1893976,10.4002739 C73.7847783,10.0013323 73.1856186,9.62360778 72.5667363,9.4108389 C71.9107983,9.18522024 71.2192995,9.1392 70.6703439,9.42607938 C70.5278007,9.50078754 70.3954179,9.59701167 70.277379,9.71684358 C69.921768,10.0772358 69.6220389,10.5147269 69.3217122,10.9534132 C68.9876172,11.4417059 68.6517291,11.9323891 68.2497993,12.275449 C67.7839191,12.673793 67.2008964,12.9155486 66.6510444,13.136386 C66.4098864,12.5533634 66.1325697,12.0199471 65.8190943,11.5191035 C65.4431625,10.9196451 65.0152341,10.3584373 64.544274,9.79693074 C64.1593773,9.33882024 63.7849401,8.99456499 63.3797229,8.68616964 C62.9736093,8.37628017 62.5579332,8.11539921 62.0735253,7.81238289 C60.7753962,6.99925914 59.6700141,6.02984592 58.5425184,5.04041088 C58.0303191,4.59096654 57.5127408,4.13733852 57.0065184,3.71986926 C54.3218055,1.50611673 51.8172888,0.432410895 49.1388513,0.263869261 C46.4786427,0.0965229573 43.6696155,0.827467704 40.3531704,2.22361401 C38.7526227,2.89718288 37.5638661,3.69327315 36.528411,4.65043425 C35.5392747,5.56575876 34.6995549,6.61914396 33.7764606,7.84943814 C33.2391594,7.88768871 32.7637167,7.96717821 32.2778148,8.16171828 C31.7426055,8.37568248 31.20381,8.7223284 30.5583315,9.29220234 C30.100221,9.6959253 29.6618335,10.1026366 29.2380887,10.5123362 C28.8412389,10.8960373 28.4560436,11.2866117 28.0762272,11.6813696 C25.0568218,12.1663751 22.5968311,12.7018833 20.3938366,13.5553494 C18.140937,14.4279409 16.1548949,15.6286506 14.115063,17.4374848 C13.2816187,18.1761992 12.5602366,18.957049 11.9288031,19.7842179 C11.3084265,20.596744 10.7774008,21.4511066 10.3115206,22.3520872 C9.90331518,22.8036233 9.49481088,23.2593432 9.05223969,23.657986 C8.6207253,24.0464685 8.16082179,24.3736903 7.64563425,24.5721152 L7.64593308,24.572414 C7.34620389,24.6877634 7.22218833,24.7552996 7.20874086,24.7508171 C7.19379921,24.7424498 7.18543191,24.6976249 7.1642148,24.6148483 C7.90442334,23.9084078 8.02066926,22.8708607 8.08910196,21.8404856 C8.17785525,21.9468701 8.26332141,22.0777588 8.35177587,22.2143253 C8.44949415,22.3652358 8.5496031,22.5209276 8.66973384,22.6724358 L9.1720716,23.3062599 L9.34868172,22.5155486 C9.49690272,21.8530366 9.60776964,20.9705836 9.43504437,20.205572 C9.32328093,19.7092109 9.09288093,19.2666397 8.69154864,18.9531642 C8.73009804,18.8527564 8.7662568,18.7604171 8.80211673,18.6692731 C8.92822413,18.3468327 9.05791752,18.0160249 9.16818678,17.7034459 L9.38573697,17.0836669 L8.73786771,17.196028 C7.87573542,17.3457432 6.02267394,18.364165 4.71797043,19.7181759 C4.23326382,20.2211113 3.81669105,20.7769401 3.54325914,21.3602615 C3.25877043,21.9671907 3.13146771,22.6022101 3.24173697,23.2378272 C3.3379611,23.7933572 3.61587549,24.338428 4.12090272,24.8530179 C4.2129432,25.2238693 4.29781167,25.545712 4.3886568,25.8361774 C4.49265057,26.1666864 4.60471284,26.4622319 4.74486537,26.7529961 C5.12468172,27.5428109 5.73011673,28.0251268 6.43058055,28.2501478 C6.99388017,28.4309416 7.61664747,28.4399066 8.22746148,28.3063284 C8.10822723,28.9966319 8.03292141,29.7183128 8.0036358,30.5066334 C7.96508637,31.5373074 8.00273931,32.6758599 8.11629573,33.9969993 C8.14109883,34.2868668 8.17845291,34.6060203 8.22686382,34.9526661 C8.26870038,35.2485105 8.31860544,35.5389759 8.37239532,35.8273494 C8.25824124,36.1387332 8.1434895,36.4507143 8.02903659,36.7620981 C7.85123112,37.2456093 7.67342568,37.7297184 7.49591907,38.2132296 C7.10474709,38.6008155 6.71357511,38.9884017 6.32270196,39.3756888 C5.95782723,39.7363797 5.5926537,40.0982661 5.227779,40.4598537 C5.1975969,40.4900358 5.07447783,40.6080747 4.96301322,40.7156544 C4.22340234,41.4271752 4.07697432,41.5685229 4.2870537,42.8209308 C4.41525291,43.5883332 4.66776654,44.3658957 5.06192685,45.1156668 C5.42500857,45.8071659 5.91210585,46.4804358 6.53726382,47.1073869 C7.31751594,47.889432 8.59592217,48.8606382 9.93439377,49.3692513 C10.6994054,49.6600155 11.4880249,49.8019611 12.2279346,49.6833246 C12.1902817,49.7971797 12.1535253,49.9107363 12.1119875,50.0254878 C11.9954428,50.3473308 11.8654506,50.6694723 11.7217121,50.9847408 C10.8138584,52.9752654 11.7459175,54.0146055 13.1967502,54.676221 C13.9211206,55.006431 14.7823564,55.2305556 15.5826304,55.4394396 C15.7463907,55.4815752 15.910151,55.5246069 16.1163455,55.58019 C17.0648405,55.8365883 18.7030412,56.3072499 20.1992965,56.4016809 C21.8324171,56.5050771 23.3053634,56.1679938 23.7001214,54.7019205 C23.8564109,54.12099 23.947256,53.6757291 23.9840125,53.240031 C24.0180794,52.8357105 24.0049307,52.4269074 23.9577152,51.9212826 C24.4232965,50.8894131 24.6208249,50.5992468 24.9611953,50.1013914 C25.027835,50.0030754 25.1085198,49.8853353 25.1327253,49.8482802 C25.4978988,49.3073931 25.6688311,48.9233931 25.7309883,48.4909821 C25.7907549,48.0738117 25.7402522,47.6581353 25.6646475,47.0225184 C25.6574755,46.9621542 25.6464187,46.8739983 25.6308794,46.7574537 C26.5868451,46.8799752 27.5293634,46.9457184 28.4665027,46.951695 C28.9422444,46.9546833 29.4176872,46.9406382 29.89313,46.9155363 C29.7718039,46.9779921 29.6525696,47.0395518 29.5222786,47.1064902 C29.4646039,47.1360747 29.4051362,47.1668544 29.3453696,47.1976341 C28.0842957,47.8461012 28.0317012,49.0746024 28.4264591,50.3383659 C28.7823689,51.4781136 29.5148078,52.641768 29.9744125,53.3497026 C30.9405384,54.8384871 31.8624375,56.0986647 32.9800716,56.783589 C34.1517945,57.501684 35.4902661,57.5862537 37.2181167,56.6512062 C38.0969838,56.1751659 38.3743005,55.6901604 38.7475425,55.0363143 C38.8616964,54.8366943 38.9878038,54.6191439 39.1279563,54.4045821 C39.491337,54.1640217 40.3950069,53.4187332 41.2822413,52.6850988 C41.5840623,52.4355735 41.8858833,52.1869446 42.2265525,51.9096279 C42.4611363,52.0820544 42.7444296,52.2018864 43.0865931,52.2834678 C43.5312561,52.389852 44.0607876,52.4379642 44.6952093,52.4833869 C45.1700544,52.5183501 46.7186055,52.5171549 47.7190974,52.5168561 C48.0280902,52.5168561 48.2847876,52.5168561 48.4386864,52.5177525 C49.471452,52.5240279 50.3051952,52.4696406 50.9351346,52.1128341 C51.6066117,51.7321215 52.0046568,51.0579549 52.0916172,49.8488778 C52.129569,49.3118754 52.136442,48.980769 52.0620327,48.6424902 C51.9924048,48.3257277 51.8564358,48.0388482 51.6230475,47.6186895 C51.6090024,47.0963301 51.5949573,46.5736716 51.581211,46.0513122 C51.566568,45.4969773 51.5513277,44.9423439 51.5366847,44.3883081 C51.5190537,43.7347611 51.4470351,43.2040341 51.3143532,42.6816747 C51.1828668,42.1629012 50.9952,41.6638506 50.7438816,41.0652888 C50.573547,40.6603704 50.4354864,40.2883236 50.3004141,39.9234489 L49.9379301,40.0561308 L49.9938117,40.0355112 L50.3004141,39.9234489 L50.3004141,39.9219549 C50.084358,39.339231 49.8712902,38.7720468 49.5730554,38.1651174 C49.5924795,38.0479752 49.6119036,37.9221666 49.6307301,37.7876919 C49.8225804,37.972968 50.0147301,38.1579456 50.2065804,38.3426241 L51.0555642,39.1608279 C51.7031346,39.7844919 52.2951222,40.3516764 52.9905057,40.7616747 C53.7094974,41.1860172 54.5181384,41.4322554 55.5652482,41.3826489 C56.6613666,41.3309511 57.8342847,40.8692544 58.8001122,40.1568375 C59.734263,39.4671315 60.4840341,38.5371642 60.7969122,37.5079845 C60.8874585,37.210347 60.9780048,36.912411 61.0679532,36.6150723 C61.1399721,36.3777993 61.2122895,36.1399284 61.2846069,35.9023563 C62.8218024,36.1629384 64.4716575,36.2469105 66.0653322,36.0801618 C67.6031253,35.9184933 69.0889215,35.5270227 70.3700172,34.8435921 C72.2535594,33.8386179 73.6655439,32.3582007 74.6803797,30.6004668 L74.6809773,30.6007659 C75.8150475,28.6362397 76.4500668,26.3214817 76.6915236,23.9394864 C76.8848685,22.029049 76.7793804,19.4318941 76.3816341,16.9270786 L76.3816341,16.9270786 Z M56.4653322,32.9824623 C55.5795921,32.684526 54.9636981,32.2494258 54.1852389,31.7590413 C54.3971112,32.7138117 54.4936341,33.7235673 54.2115363,34.6768437 C53.7638847,36.1892358 53.0410086,38.6635704 55.0942878,39.1201869 C55.8760341,39.2938086 56.2304499,39.2687067 57.3337401,38.6994303 C56.4408279,38.9017401 55.9904871,38.8521339 55.3766847,38.7382785 C54.8205573,38.6360778 54.5256093,38.2828575 54.3702162,37.8662847 C54.5644575,38.0064375 54.8815191,38.0826396 55.4230038,38.2132296 C56.9452575,38.5801962 58.3957914,37.8471594 58.6796826,36.7916826 C58.844937,36.1748919 58.8168468,35.8509573 59.1673773,35.0103408 C59.482347,35.1077604 59.8080747,35.1962148 60.1421697,35.2771983 C59.9536062,35.8918974 59.7650427,36.5071938 59.5764795,37.1218926 C59.0872902,38.717958 57.1810365,40.0047315 55.498011,39.9754458 C53.941989,39.9479532 52.9555425,38.9734599 51.8812389,38.0177931 C51.1413291,37.3588668 50.429211,36.7292265 49.723368,36.1052637 C47.7869322,35.4941511 46.2347952,34.7802396 44.4376155,33.4498365 C45.7166196,34.9526661 46.5841308,35.7849153 48.367863,36.5328933 C48.1084764,39.1790568 47.188968,41.1083205 46.404831,43.6406289 C46.0498179,44.7854568 43.2485604,49.3740327 42.4721931,49.8213852 C41.9187549,50.1402396 38.4513993,53.0604327 37.7993463,53.4459267 C37.3134444,54.0911067 36.88701,54.9825246 36.156663,55.3683174 C33.9312561,56.5451205 32.5010427,54.2919222 31.3036203,52.3889556 C30.7582506,51.5217432 29.2440654,49.0246974 30.5640093,48.3251301 C31.8122334,47.664411 32.5112031,47.1919563 33.7845291,46.3558227 C33.9715983,46.6967907 34.2925446,47.0261043 34.5017277,47.3667735 C34.4557074,46.9941291 34.4093883,46.6217838 34.3627704,46.2488406 C34.2790974,45.5737773 34.2823845,45.0257184 34.3361742,44.3464716 C34.3881711,43.6890396 34.4395704,43.0313088 34.4912685,42.3735783 C34.2997167,43.0420668 33.9169122,43.7105556 33.7256592,44.3787456 C33.649158,44.6462007 33.5858055,44.8622568 33.549348,45.0624747 C30.6922086,45.6463938 27.8556887,45.6828513 24.9976529,45.1730427 C24.815365,44.1148764 24.5933323,43.0124826 24.4071595,42.2220699 C24.3506802,43.1072124 24.3871377,45.5543532 24.3823564,46.9248 C24.3787704,47.9862537 24.3342444,48.3496341 23.7867829,49.2530055 C23.2742848,50.0981043 23.0573323,50.2902537 22.3395362,51.718674 C22.3993027,52.620252 22.400498,53.2158258 22.1611331,54.0713838 C21.7627891,55.4938272 17.7449837,54.3917322 16.685323,54.1015659 C15.3800218,53.7441618 12.6818615,53.2134351 13.3605105,51.473631 C13.9575782,49.9421136 14.3361992,48.3275205 14.6278599,46.1848902 C12.2366008,42.7402458 10.0129868,38.0195859 9.5862537,33.8368248 C9.25484826,30.58941 9.45357198,28.5905183 10.1564265,26.6038786 C11.269877,23.4562739 12.8279907,20.7318163 15.3277261,18.5377868 C18.6994552,15.5790444 21.8515424,14.3908856 26.7867642,13.6396202 C25.5998008,14.9682304 24.4256872,16.3730428 23.1457868,17.8794584 C21.8503471,19.4044015 21.0805541,20.9445852 20.2578677,22.6126693 C19.121407,24.9163704 19.1459113,25.7931455 20.6523269,27.8156451 C21.950456,29.5587362 22.6512187,30.3431721 23.2181043,32.0489088 C22.7501323,33.0135408 22.5797977,33.8290554 22.4226117,35.1466086 C24.0121027,36.8843205 25.1933883,38.0748699 26.7368591,38.4415377 C28.2507455,38.8013322 29.5148078,38.7317043 30.8694162,38.0396079 C33.8774661,36.501516 36.6607938,34.515474 40.0543377,34.4335938 C41.6241057,30.5741697 41.4654258,27.3491673 40.7117697,23.6149541 C40.1968809,21.0647159 39.9903876,18.6501478 39.8305122,16.0503035 C39.1939983,18.7278444 39.0744654,21.0823471 39.546621,23.7494288 C40.1158974,26.9633743 40.5584685,30.5147019 38.9749542,33.3392685 C35.9065401,33.5741511 33.2768124,35.4409587 30.5114148,36.8732637 C29.3997572,37.4491143 28.2423782,37.505295 27.0120841,37.1676141 C25.8699455,36.8538396 25.099256,36.0980919 23.8689619,34.6792341 C23.8495377,33.2544 24.1710817,32.596968 24.8252265,31.3066086 C25.8765198,29.2345027 27.0365883,27.3058366 28.3099144,25.2672 C26.7509043,27.1489494 25.2737743,28.7211082 24.0467673,30.6130179 C23.5776,29.276937 22.9070195,28.5982879 21.7959595,27.0936654 C20.710898,25.6240062 20.5973416,24.9806195 21.4086724,23.2796638 C22.2244856,21.5706397 22.9162833,20.0684078 24.3049588,18.5691642 C26.7042864,15.977986 28.9022008,13.0945494 31.5259518,10.5425183 C32.9507859,9.15712995 33.529326,9.2049432 35.4188451,8.91866148 C37.1269728,8.65957353 38.7944592,8.33294943 40.5363549,7.92832995 C38.8518351,8.08521711 37.2234957,8.14289184 35.5832031,8.18353308 C35.5661697,8.18413074 35.5494351,8.1847284 35.5324017,8.18502723 C37.1460981,6.12427704 38.0826396,4.97586303 40.7031036,3.83701167 C47.1554988,1.03485759 51.2551845,0.731841246 56.3236857,4.99229883 C57.6373542,6.09678444 58.7845728,7.16869728 60.1164699,8.12137587 C59.6335563,8.1626148 59.2172826,8.24927625 58.6668327,8.46533229 C59.3368155,8.33773074 60.1104933,8.46413697 60.8058771,8.59143969 C61.0010148,8.71814475 61.2015315,8.84156265 61.4068296,8.96258988 C62.3472561,9.51662568 62.8809711,9.82263036 63.5168871,10.7086693 C64.1889618,11.644912 64.7492733,12.5805572 65.2429446,13.6118288 C64.9193088,13.4961805 64.647969,13.3984623 64.4062131,13.3267424 C64.2281088,13.2448623 64.0344654,13.1913712 63.8291673,13.1713494 C63.4224561,13.1322023 63.0333759,13.2323113 62.7091425,13.4319315 C62.6959938,13.4379082 62.6831439,13.4438848 62.6699952,13.4501603 C62.1497277,13.7032716 61.3440747,13.991944 60.8049804,14.079502 C61.0799067,14.1745307 61.6883301,14.2100918 61.9752093,14.0965354 C62.0134599,14.0812949 62.0526069,14.0696405 62.0926506,14.0600778 C61.9632561,14.2803175 61.8789852,14.5301416 61.8526878,14.8005852 C61.8183222,15.1588856 61.8912375,15.5025432 62.0451363,15.801077 C62.0457339,15.8019735 62.0460327,15.80287 62.0466303,15.8043642 C62.0953401,15.9188171 62.1628764,16.0243051 62.2372857,16.1005074 C61.9910475,16.1913525 61.7394303,16.2950475 61.4800437,16.4077074 C62.6825463,16.224523 63.7667112,16.1931455 64.9402272,16.347642 C65.0176248,16.7175969 65.0956203,17.1096654 65.1679377,17.5083082 C65.0224062,17.5196638 64.8774723,17.5307206 64.7319408,17.5423751 C64.7205852,17.5432716 64.7083332,17.5444669 64.6966785,17.5456623 C64.1414475,17.1018957 63.5228637,17.1763051 62.6777649,17.369351 C60.107505,17.9553619 60.7114458,19.3975284 59.5292637,21.5706397 C60.7568685,20.069902 60.6657246,18.499835 62.6664093,18.0258864 C63.1325883,17.9156171 63.4499487,17.7772576 63.765516,17.824772 C63.1977339,18.110456 62.706453,18.5841059 62.5116141,19.133958 C61.9623594,20.6846008 62.3033277,21.9910973 61.6999845,23.4395393 C62.4473649,22.1446973 62.4924888,20.8812327 63.1606785,19.5188545 C63.4006413,19.0296654 64.2911625,18.2464249 64.8380265,18.2344716 C64.9883394,18.2308856 65.1377556,18.2278973 65.2880685,18.2246101 C65.4198537,19.0864436 65.4999408,19.9423004 65.4488406,20.652028 C65.3556048,21.9474677 65.0191191,23.8701572 64.8177057,24.6058833 C65.4945618,23.7356825 65.8029573,21.8927813 66.1002957,20.5952498 C66.4098864,19.2445261 66.3315921,17.6233588 66.0605511,16.1722272 C65.6888031,14.1811051 67.7393931,14.5050397 68.9299425,13.5667051 C69.8049246,12.8767004 70.4076699,11.7752031 71.2100358,10.9946522 C72.0058272,10.2209743 73.2585339,11.3580327 73.5717105,12.1143782 C74.9290086,15.3982506 75.5472933,20.5647689 75.1889931,23.8752374 C74.7864654,27.5897276 72.992274,31.6448871 69.7161711,33.4737432 C65.5393869,35.804937 60.6149229,34.3807005 56.4653322,32.9824623 L56.4653322,32.9824623 Z M50.5308141,49.480716 C50.3945463,51.0134289 49.8838413,51.1147332 48.5378988,51.0911253 C47.9264871,51.0803673 45.4915983,51.0693105 44.8736124,51.0161184 C44.0007222,50.9408124 43.5106365,50.8628172 43.243779,50.6637945 C44.615421,49.6570272 46.9460172,45.4999659 47.4002427,44.0688561 C47.8807659,42.5570616 48.4067112,41.2374162 48.7978833,39.8400747 C48.9777804,40.4239938 49.1200248,41.0028327 49.3818024,41.6232093 C49.8189945,42.6598599 50.0326599,43.3005573 50.0640375,44.4125136 C50.0969088,45.5857308 50.1300795,46.7592468 50.1632499,47.9324637 C50.5388826,48.5901945 50.5974537,48.7306458 50.5308141,49.480716 L50.5308141,49.480716 Z M9.25275642,37.8701697 C10.1238537,40.8830007 11.607558,43.8438351 13.2526319,46.3328124 C13.2526319,46.3471563 13.2523331,46.3615005 13.2523331,46.376442 C13.148937,46.8043704 13.0300016,47.2209432 12.7798786,47.5556358 C11.6042708,49.1286912 8.61355332,46.819611 7.74783501,45.9362616 C6.80173074,44.9698365 6.16820544,43.825905 6.01729494,42.7524981 C5.90762334,41.9698554 6.01430661,41.9507301 6.56027394,41.3969931 C7.29629883,40.6517043 8.03322024,39.9061167 8.7689463,39.1611267 C8.93001711,38.7308079 9.09138678,38.30019 9.25275642,37.8701697 L9.25275642,37.8701697 Z M7.5894537,18.9220856 C7.36622568,19.4014132 7.20784437,19.7644949 7.09996575,20.1383346 C6.63109728,21.7577089 7.31213697,23.2031626 5.84188017,24.3769774 C6.53278131,25.7710319 6.50110506,26.3268607 8.10822723,25.6828762 C8.72800623,25.4342475 9.23930895,25.0858086 9.69562647,24.6737183 C9.47807625,25.2361214 9.2763642,25.8164545 9.08630661,26.415614 C9.05463036,26.5148265 9.02444826,26.6146366 8.99516265,26.7135502 C7.84585215,27.2012451 6.33435642,27.5111346 5.75581635,26.3032529 C5.47491363,25.7169432 5.31623346,25.1413914 5.11153308,24.4005852 C3.21872685,22.4396451 6.0480747,19.8505588 7.5894537,18.9220856 L7.5894537,18.9220856 Z M8.51971983,20.9992716 C8.28603267,20.7655844 8.09896341,20.6072031 7.79714241,20.6415689 C7.8225432,20.4434428 7.85631129,20.2524887 7.90412451,20.0728903 C7.92832995,19.980551 7.95402957,19.8900047 7.98152217,19.7991595 C8.37329184,20.0274677 8.47668795,20.4410521 8.51971983,20.9992716 L8.51971983,20.9992716 Z M65.2731267,13.6751813 C65.344548,13.825793 65.4147735,13.9790941 65.4838038,14.1341883 C65.4267267,14.1760249 65.3723394,14.2202521 65.3215377,14.26687 C65.2283019,14.0487222 65.0929308,13.8508949 64.9252857,13.6853416 C65.0382444,13.681158 65.1538926,13.677572 65.2731267,13.6751813 L65.2731267,13.6751813 Z M7.78459143,24.9331051 L7.78459143,24.9328062 L7.7842926,24.9331051 L7.77174162,24.8996358 L7.78459143,24.9331051 L7.78459143,24.9331051 Z" id="Shape" fill="#000000"></path>
                <path d="M1.1062786,24.4615471 C1.40750194,21.0512685 2.07061167,19.5789198 4.49354709,17.0122459 C1.45441868,19.1539798 0.695981322,20.1272778 1.1062786,24.4615471" id="Path" fill="#000000"></path>
                <path d="M0.322440468,21.6758288 C0.657133074,20.1410241 0.969114396,19.5618864 1.91521868,18.3020078 C0.380115174,19.3745183 0.179897276,19.8149977 0.322440468,21.6758288" id="Path" fill="#000000"></path>
                <path d="M35.9773635,0.280305059 C34.1568747,0.718991439 33.809631,1.05577588 33.2636637,2.84040467 C34.1347611,1.53360934 34.6365012,1.10837043 35.9773635,0.280305059" id="Path" fill="#000000"></path>
                <path d="M38.848548,0.0203206226 C35.2374537,0.905463036 34.1762988,1.53480467 32.9767845,5.71995642 C34.5014289,2.65482957 35.6561184,1.52613852 38.848548,0.0203206226" id="Path" fill="#000000"></path>
                <path d="M46.6256685,15.2772233 C47.0105649,13.5720841 47.6945931,11.9288031 50.3428482,10.6575689 C46.8324606,11.5367346 46.174431,13.0108762 46.6256685,15.2772233" id="Path" fill="#000000"></path>
                <path d="M68.9601246,15.3949634 C71.0388048,14.6538584 72.0407907,12.982786 72.5386458,11.0164669 C71.7249246,12.6645292 70.4695284,14.0427455 68.7637914,14.8869479 C67.8484668,15.3396794 67.2639501,15.1818957 66.2419425,15.0850739 C67.2812826,15.3833089 67.939611,15.7586428 68.9601246,15.3949634" id="Path" fill="#000000"></path>
                <path d="M54.7996389,17.0660358 C54.522621,16.4854039 54.0373167,16.0694288 53.4755112,15.8635331 C53.9853198,15.5912965 54.4861635,15.3053136 54.8770365,14.9500015 C53.7325074,15.4798319 52.4000124,15.3504373 51.4180482,16.0138459 C50.5529277,16.5980638 49.3590912,18.4496311 48.4799253,19.2346646 C49.1167377,18.9875299 49.7302413,18.5601992 50.2947363,18.1095595 C50.2971267,18.444551 50.3706396,18.7837261 50.5239408,19.10527 C50.7528468,19.5845977 51.1231005,19.9512654 51.5614878,20.18047 C51.2450241,20.5973416 50.9823501,21.0641183 50.7943845,21.5816965 C52.4681463,19.5980451 54.8949666,18.0999969 57.1765542,17.4592996 C56.5388451,17.4503346 55.783695,17.5695689 55.0144995,17.8223813 C54.9864093,17.5665805 54.9164826,17.3110786 54.7996389,17.0660358" id="Path" fill="#000000"></path>
                <path d="M52.3913463,32.0545869 C52.3100637,32.5682802 52.1985993,33.2065869 52.1173167,33.720579 C52.334568,33.1390506 52.5963456,32.46339 52.849158,31.9090554 C53.1175098,31.3224468 53.2684203,31.2671625 53.8373976,30.9575721 C54.2408217,30.7379301 54.9735594,30.4361088 55.3769838,30.2164668 C54.961905,30.2863938 54.2178117,30.4390974 53.8027332,30.5090241 C52.6937649,30.6963921 52.5631752,30.962652 52.3913463,32.0545869" id="Path" fill="#000000"></path>
                <path d="M33.4498365,12.223751 C32.1627642,13.4958817 30.9130458,17.8609307 30.5135067,19.607309 C31.1428482,18.1564763 32.7170988,14.0983284 33.9249804,13.0658615 C34.2584778,12.7804763 34.4915673,12.6053603 34.741989,12.4780576 C33.8774661,13.9276949 33.9408186,14.288386 34.2444327,16.2307985 C34.5020265,14.2561121 35.1848592,13.4931922 36.3054816,12.0199471 C37.533684,11.7115517 38.6832933,11.3424934 39.9431721,10.8509136 C38.5222227,11.0116856 37.1033649,11.1587113 35.6818179,11.293186 C34.4882802,11.4064436 34.2961308,11.3870195 33.4498365,12.223751" id="Path" fill="#000000"></path>
                <path d="M50.9817525,19.6542257 C50.747169,19.1635424 50.9569494,18.5724514 51.4488279,18.3384654 C51.9407067,18.1041805 52.5329931,18.3133634 52.7675766,18.8043455 C52.789989,18.8509634 52.8076203,18.8987767 52.822263,18.9465899 C52.3524981,19.2953276 51.9218802,19.7059238 51.5605914,20.1816654 C51.3176406,20.0839471 51.1021821,19.9061416 50.9817525,19.6542257" id="Path" fill="#FFFFCC"></path>
                <path d="M61.9719222,15.4027331 C62.011368,14.9960218 62.3580141,14.6962926 62.7644265,14.7357385 C63.1705401,14.7751844 63.4708668,15.1382662 63.4317198,15.5446786 C63.4230537,15.6313401 63.3997446,15.7123238 63.3647814,15.7870319 C62.9927346,15.8506833 62.6206878,15.9594584 62.2372857,16.1005074 C62.0771112,15.9364483 61.9495098,15.6370179 61.9719222,15.4027331" id="Path" fill="#FFFFCC"></path>
            </g>
        </g>
    </g>
</svg>