<?xml version="1.0" encoding="UTF-8"?>
<svg width="77px" height="77px" viewBox="0 0 77 77" version="1.1" xmlns="http://www.w3.org/2000/svg" xmlns:xlink="http://www.w3.org/1999/xlink">
    <!-- Generator: Sketch 60 (88103) - https://sketch.com -->
    <title>ionic</title>
    <desc>Created with Sketch.</desc>
    <g id="Symbols" stroke="none" stroke-width="1" fill="none" fill-rule="evenodd">
        <g id="Icons/Mobile" transform="translate(-408.000000, -92.000000)" fill="#4E8EF7" fill-rule="nonzero">
            <g id="ionic" transform="translate(408.000000, 92.000000)">
                <path d="M70.3954299,11.7964835 C70.3954299,13.1472687 69.8949312,14.378867 69.0735777,15.3245895 C73.9218084,21.7537744 76.8,29.7466402 76.8,38.400216 C76.8,59.5736019 59.5740336,76.800432 38.400216,76.800432 C17.2263983,76.800432 0,59.5736019 0,38.400216 C0,17.2263983 17.2259665,0 38.3997843,0 C47.0533599,0 55.0462257,2.87819169 61.4749791,7.7268543 C62.4215649,6.90550086 63.6522996,6.40543395 65.0035167,6.40543395 C67.9805988,6.40543395 70.3954299,8.81853753 70.3954299,11.7964835 Z M38.3997843,75.5083767 C58.861503,75.5083767 75.5079447,58.861071 75.507081,38.3993523 C75.507081,30.0787227 72.7545537,22.3907336 68.112741,16.1947404 C67.2330897,16.817449 66.1625664,17.1866694 65.002653,17.1866694 C62.0255709,17.1866694 59.6116035,14.7735658 59.6116035,11.7960517 C59.6116035,10.6365701 59.9808237,9.56475135 60.6035325,8.68553184 C54.4075392,4.04371899 46.7195505,1.29119178 38.3997843,1.29119178 C17.938497,1.29119178 1.29119177,17.9384971 1.29119177,38.3997843 C1.29119177,58.861071 17.938497,75.5083767 38.3997843,75.5083767 Z M38.400216,54.078048 C29.7413501,54.078048 22.7219524,47.0586501 22.7219524,38.3997843 C22.7219524,29.7409183 29.7413501,22.7215205 38.400216,22.7215205 C47.0590821,22.7215205 54.0784797,29.7409183 54.0784797,38.3997843 C54.0784797,47.0586501 47.0590821,54.078048 38.400216,54.078048 Z" id="Shape"></path>
            </g>
        </g>
    </g>
</svg>