<?xml version="1.0" encoding="UTF-8"?>
<svg width="158px" height="36px" viewBox="0 0 158 36" version="1.1" xmlns="http://www.w3.org/2000/svg" xmlns:xlink="http://www.w3.org/1999/xlink">
    <!-- Generator: Sketch 60 (88103) - https://sketch.com -->
    <title>jquery</title>
    <desc>Created with Sketch.</desc>
    <g id="Symbols" stroke="none" stroke-width="1" fill="none" fill-rule="evenodd">
        <g id="Icons/Frontend" transform="translate(-237.000000, -284.000000)" fill-rule="nonzero">
            <g id="jquery" transform="translate(237.000000, 284.000000)">
                <path d="M151.113039,2.66794871 L157.722833,2.70426793 C157.722833,2.70426793 145.433925,19.3560209 144.430607,20.7131488 C144.104642,21.1526112 143.60949,21.6265769 143.358585,22.2140402 C142.723907,23.6910214 142.072279,26.930695 142.072279,26.930695 L136.024525,26.9606584 C136.024525,26.9606584 136.965495,23.5838797 136.926755,21.7851708 C136.892555,20.2137596 136.090505,18.644467 135.64045,17.0685159 C135.185854,15.4734972 134.568427,12.351861 134.568427,12.351861 L140.785974,12.351861 L141.64341,15.7822105 L151.113039,2.66794871" id="Path" fill="#1A1918"></path>
                <path d="M138.597136,6.17971378 C139.816856,6.91517778 140.565335,10.9714284 140.565335,10.9714284 C140.565335,10.9714284 134.182838,11.0655557 130.709512,11.0655557 L127.708031,11.0655557 L124.063399,26.930695 L118.489308,26.930695 C118.489308,26.930695 121.958095,9.68936021 122.777093,6.56348677 C123.042829,5.55169407 124.595173,5.7251183 127.217117,5.7251183 L131.404116,5.7251183 C134.107779,5.7251183 137.267853,5.3800858 138.597136,6.17971378" id="Path" fill="#1A1918"></path>
                <path d="M112.64706,13.9063232 C112.64706,13.9063232 112.820787,12.887872 112.057478,11.7087083 C111.405851,10.7032715 110.803557,10.4696179 109.088382,10.4160471 C104.245216,10.263809 104.339343,13.8527524 104.339343,13.8527524 L112.64706,13.9063232 L112.64706,13.9063232 Z M117.899726,9.79650188 C118.609463,12.356401 117.256573,18.3720729 117.256573,18.3720729 C117.256573,18.3720729 110.192184,18.2540355 106.322675,18.3720729 C105.119601,18.4086948 103.679241,18.2413237 103.321194,18.8009423 C102.817266,19.5854372 103.505212,20.7927483 104.088438,21.3027306 C104.759738,21.8901938 106.067229,21.956779 106.536958,22.0167058 C109.677662,22.4156118 116.251136,22.1196102 116.251136,22.1196102 L115.112529,27.1619273 C115.112529,27.1619273 105.823286,27.6274185 101.17715,26.5187746 C100.259787,26.3002541 99.3999303,25.858673 98.818823,25.2324693 C98.660229,25.0611636 98.5228215,24.8275101 98.3727022,24.6259385 C98.2528487,24.4649232 97.9035786,23.9355707 97.7468008,23.5172945 C96.6856743,20.6895413 97.871194,15.2719256 99.0331061,12.3691127 C99.1680925,12.0325546 99.3375822,11.6061066 99.5158488,11.2435198 C99.7386071,10.7913456 99.927164,10.2810607 100.105128,10.0107852 C100.224982,9.82434663 100.373285,9.70419052 100.497679,9.52834505 C100.641139,9.32041753 100.808208,9.1188459 100.962867,8.93906583 C101.391434,8.44149262 101.878111,8.08980162 102.463456,7.65276043 C104.39927,6.20332128 107.90256,5.07772836 112.111049,5.50871633 C113.695475,5.67154747 116.088305,6.23752186 117.256573,7.86704378 C117.569523,8.30226902 117.72388,9.16606091 117.899726,9.79650188 L117.899726,9.79650188 L117.899726,9.79650188 Z" id="Shape" fill="#1A1918"></path>
                <path d="M92.3334225,5.70574807 L97.7383262,5.67366609 C97.7383262,5.67366609 94.7262532,19.9628544 93.191161,26.930695 L86.9736147,26.930695 C82.6280212,26.930695 78.7582091,27.4688247 77.1117387,24.3577816 C75.5146014,21.3372338 77.0387973,16.3696738 77.754891,12.9950137 C78.2609389,10.6067229 79.3266051,5.7251183 79.3266051,5.7251183 L84.9264222,5.67366609 C84.9264222,5.67366609 83.3441149,13.2737637 82.685829,17.0685159 C82.450057,18.4277624 81.9636824,19.7077119 82.4715459,20.7131488 C82.9539862,21.6695547 83.6292207,21.7379558 85.6873094,21.7851708 C86.3392393,21.8003038 88.4745061,21.7851708 88.4745061,21.7851708 L92.3334225,5.70574807" id="Path" fill="#1A1918"></path>
                <path d="M67.0352759,15.9964939 C67.6012502,13.9856202 68.4266041,11.8052569 68.3215812,9.99353362 C68.2080837,8.05560104 66.5831015,6.29109269 65.5346869,5.92033407 C62.3767318,4.80533429 59.4203479,6.36403379 58.2454214,7.63520617 C56.7251598,9.28197971 56.2106376,11.2050819 55.6725082,13.8527524 C55.2717862,15.8185297 54.9437026,17.89387 55.6725082,19.4268434 C56.9630508,22.1368618 60.9872192,21.5451614 65.3201014,21.5708875 C65.9632537,19.8472382 66.4950278,17.9111216 67.0352759,15.9964939 L67.0352759,15.9964939 L67.0352759,15.9964939 Z M74.5391275,8.06407552 C75.1565542,12.5534326 72.7876335,17.508281 71.155993,21.8172528 C72.8197157,21.9673722 74.2776292,21.7939479 74.3826521,21.9180386 C74.4919123,22.0790537 73.2676528,27.0614442 72.8409016,27.0741559 C71.5203961,27.1086592 67.1448391,27.1449784 65.3201014,27.1449784 C59.3664744,27.1449784 53.7966207,27.5329886 50.9561557,24.5723676 C49.8027182,23.3695964 49.0052089,21.3069679 48.8121116,19.8557127 C48.490384,17.4329186 48.8935273,14.765878 49.4552643,12.5664471 C49.9634308,10.5809968 50.6150581,8.70722822 51.5993086,6.99205347 C54.1010968,2.62497098 58.4533489,-0.616518608 65.7489706,0.13165714 C67.1639064,0.277539305 69.1962688,0.897084517 70.4656255,1.63224588 C70.5533968,1.68400075 70.8602939,1.92824745 70.9308142,1.97122518 C72.6459887,3.06261747 74.2089252,5.66731022 74.5391275,8.06407552 L74.5391275,8.06407552 L74.5391275,8.06407552 Z" id="Shape" fill="#1A1918"></path>
                <path d="M48.1968039,5.73147416 C47.8366384,7.37158922 47.4764729,9.23052752 47.0969371,10.8512723 L41.0939767,10.8512723 C41.5591654,9.05468199 41.9150935,7.26868479 42.3802822,5.70574807 C44.3012659,5.70574807 46.0872631,5.73147416 48.1968039,5.73147416" id="Path" fill="#1A1918"></path>
                <path d="M40.8796932,12.351861 L46.6680676,12.351861 C45.9114175,16.541282 44.4129474,23.2987739 43.2380207,28.0024144 C42.5025568,30.9460864 42.0116421,33.0943678 40.0219548,34.6485275 C39.8439905,34.7880537 39.7413887,34.7217713 39.593388,34.8631133 C39.2265638,35.2126859 37.5307596,35.6179475 36.5919079,35.7205494 C35.0652903,35.8858017 33.3395225,35.7420383 31.4636354,35.7036005 C31.95455,33.9091287 32.5099313,31.7544917 32.9472752,30.1464585 C37.5201663,30.6997211 37.6360852,26.3774324 38.5213658,22.2140402 C39.0337696,19.8084977 40.5861131,13.3167414 40.8796932,12.351861" id="Path" fill="#1A1918"></path>
                <g id="Group" transform="translate(0.000000, 2.723941)" fill="#21609B">
                    <path d="M27.3728814,20.5621214 L27.2487908,20.8835464 C25.13471,24.9997237 21.3892914,27.5254221 16.0467355,27.636801 C13.5491844,27.6882533 11.169368,27.0475218 9.61490581,26.3504956 C6.25991871,24.8432484 3.43821866,22.0478798 1.89707346,19.06123 C-0.313555857,14.7798003 -0.7121592,8.82405497 3.88433962,4.37555696 C3.9551621,4.37555696 3.32683974,5.34013466 3.39766219,5.34013466 L3.27115028,5.7517524 C-0.0411617726,16.1217952 10.1636286,25.0085008 20.0836158,23.9921682 C22.4676693,23.7479215 25.5078899,22.4422459 27.3728814,20.5621214" id="Path"></path>
                    <path d="M21.3699211,16.2740332 C23.8656563,16.2912848 26.4724677,15.1248328 28.0160341,13.487139 C26.6655648,16.9153699 22.7551964,19.1190381 17.511005,18.4180773 C13.120315,17.830614 8.93755254,13.4120793 8.50656453,8.98476748 C8.1914954,5.76264815 9.31466699,3.83954594 11.1651308,1.5069446 C10.5219781,2.72696743 10.281666,3.66793765 10.2217393,4.26811261 C9.51865992,11.2380719 15.7894743,16.237714 21.3699211,16.2740332" id="Path"></path>
                    <path d="M27.7654316,7.61704656 C27.3774213,8.50686724 25.1434872,10.1875387 24.1571179,10.3975848 C20.2509868,11.2295974 17.7491985,9.37731767 16.4389829,7.26959279 C16.2440698,6.9545236 15.8839043,6.09496896 15.8194377,5.87614569 C15.3112714,4.14825924 15.544925,1.53478933 17.0609494,0.181898716 C16.6042353,1.46820411 16.5376501,2.96243699 16.7779622,3.93367321 C16.9235417,4.52113646 17.3672414,5.54624621 17.8112438,6.19121485 C18.6193462,7.36614133 19.1317498,7.65154978 20.1695712,8.27533222 C20.6368784,8.55620084 21.1383862,8.78137991 21.3550908,8.84342523 C22.3390387,9.13276827 24.4164976,9.89607702 27.7654316,7.61704656" id="Path"></path>
                </g>
            </g>
        </g>
    </g>
</svg>