<?xml version="1.0" encoding="UTF-8"?>
<svg width="154px" height="44px" viewBox="0 0 154 44" version="1.1" xmlns="http://www.w3.org/2000/svg" xmlns:xlink="http://www.w3.org/1999/xlink">
    <!-- Generator: Sketch 60 (88103) - https://sketch.com -->
    <title>mongodb</title>
    <desc>Created with Sketch.</desc>
    <g id="Symbols" stroke="none" stroke-width="1" fill="none" fill-rule="evenodd">
        <g id="icons/server" transform="translate(-904.000000, -267.000000)" fill-rule="nonzero">
            <g id="mongodb" transform="translate(904.000000, 267.000000)">
                <path d="M143.014038,18.1387879 C142.875721,18.1665032 142.737403,18.471113 142.737403,18.6371461 C142.709688,19.7444648 142.681972,22.6791833 142.681972,24.6723571 C142.681972,24.7277878 142.764859,24.8383902 142.848006,24.8383902 C143.263218,24.8661055 144.259934,24.8938209 145.118074,24.8938209 C146.308539,24.8938209 147.000645,24.7277878 147.388401,24.5617547 C148.384858,24.0633965 148.855501,22.9835341 148.855501,21.7930693 C148.855501,19.1077889 146.97293,18.0833572 144.176788,18.0833572 C143.98304,18.0559009 143.429509,18.0559009 143.014038,18.1387879 L143.014038,18.1387879 L143.014038,18.1387879 Z M150.156827,30.5138196 C150.156827,27.7731087 148.135679,26.2503187 144.481398,26.2503187 C144.315365,26.2503187 143.152615,26.2226034 142.875721,26.2780341 C142.792575,26.3057494 142.681972,26.3611801 142.681972,26.4443261 C142.681972,28.4097845 142.654257,31.5382516 142.737403,32.7561727 C142.792575,33.2822461 143.180331,34.0297835 143.650974,34.2512471 C144.149073,34.5281417 145.284366,34.5833132 146.059359,34.5833132 C148.246541,34.5833132 150.156827,33.365392 150.156827,30.5138196 L150.156827,30.5138196 L150.156827,30.5138196 Z M137.366583,16.616257 C137.643219,16.616257 138.473902,16.699144 140.605653,16.699144 C142.626541,16.699144 144.232219,16.6439723 146.197936,16.6439723 C148.606322,16.6439723 151.928537,17.5021119 151.928537,21.1009627 C151.928537,22.8729317 150.682642,24.2848603 149.04925,24.9769669 C148.966363,25.0046822 148.966363,25.0598539 149.04925,25.0875692 C151.374748,25.6690735 153.423612,27.1087174 153.423612,29.8217131 C153.423612,32.4795373 151.762504,34.1681012 149.353859,35.2202483 C147.8865,35.8569242 146.059359,36.0783878 144.204503,36.0783878 C142.792575,36.0783878 138.999976,35.9123549 136.895941,35.9677856 C136.674477,35.8846394 137.089689,34.887923 137.283437,34.7218901 C137.781796,34.6941746 138.169292,34.6664594 138.695366,34.5004262 C139.442903,34.3066778 139.52579,34.0852142 139.636651,32.95018 C139.692082,31.9811791 139.692082,28.5481023 139.692082,26.112001 C139.692082,22.7620703 139.719798,20.4920021 139.692082,19.3846834 C139.664367,18.5265437 139.359757,18.2496493 138.750796,18.0833572 C138.280154,18.0004702 137.504901,17.8896088 136.868225,17.8067217 C136.729648,17.668145 137.200291,16.7268593 137.366583,16.616257 L137.366583,16.616257 L137.366583,16.616257 Z M121.392442,33.836035 C122.057092,34.3618496 123.358159,34.5833132 124.520908,34.5833132 C126.015983,34.5833132 127.510799,34.3066778 128.950443,33.0053518 C130.417802,31.6765693 131.441975,29.6279647 131.441975,26.3611801 C131.441975,23.2327132 130.25151,20.6857505 127.815409,19.1909349 C126.431196,18.3325363 124.659226,17.9727548 122.610622,17.9727548 C122.001661,17.9727548 121.420157,18.0004702 121.060376,18.1665032 C120.97723,18.2219339 120.783481,18.471113 120.783481,18.6094307 C120.72805,19.1632196 120.72805,23.4264616 120.72805,25.9182526 C120.72805,28.4929306 120.72805,32.0917813 120.783481,32.5069936 C120.783481,32.9224648 120.97723,33.5591404 121.392442,33.836035 L121.392442,33.836035 L121.392442,33.836035 Z M115.108052,16.616257 C115.634125,16.616257 117.655014,16.699144 118.624015,16.699144 C120.368269,16.699144 121.613905,16.616257 124.908405,16.616257 C127.676832,16.616257 130.002331,17.3637942 131.663438,18.7754638 C133.684328,20.5197174 134.736475,22.9283624 134.736475,25.8628219 C134.736475,30.0431769 132.826188,32.4518218 130.915901,33.836035 C129.005873,35.2479635 126.514083,36.0783878 122.970662,36.0783878 C121.088091,36.0783878 117.849021,36.0229571 115.163483,35.9952419 L115.135767,35.9952419 C114.997449,35.7463217 115.357231,34.7773208 115.578695,34.7496053 C116.298516,34.6664594 116.492265,34.6387439 116.852305,34.5004262 C117.43355,34.2789626 117.544412,33.9743528 117.627558,32.95018 C117.710445,31.0398933 117.68273,28.7421097 117.68273,26.1397164 C117.68273,24.2848603 117.710445,20.6580352 117.655014,19.4952857 C117.572127,18.5265437 117.156915,18.2773646 116.326232,18.1110725 C115.91102,18.0281855 115.357231,17.9173241 114.582237,17.8344371 C114.471376,17.6404296 114.969734,16.78229 115.108052,16.616257 L115.108052,16.616257 L115.108052,16.616257 Z" id="Shape" fill="#8E714E"></path>
                <path d="M81.61004,34.9156385 C80.9179334,34.8324923 80.4195752,34.7218901 79.8103556,34.4449955 C79.7274686,34.3895648 79.588892,34.1129294 79.588892,34.002068 C79.5334616,33.033067 79.5334616,30.2646405 79.5334616,28.4097845 C79.5334616,26.9147099 79.2845414,25.6136428 78.6476065,24.7000725 C77.9000689,23.6479253 76.8204655,23.0389648 75.4362522,23.0389648 C74.2180721,23.0389648 72.5846801,23.8696481 71.228182,25.0323976 C71.2004668,25.0598539 70.9790032,25.2538613 71.0067184,24.9492515 C71.0067184,24.6446418 71.0621488,24.0356812 71.0898646,23.620469 C71.1175798,23.2327132 70.8961162,23.0389648 70.8961162,23.0389648 C70.010002,23.4818923 67.5184701,24.0633965 66.6048995,24.1462835 C65.9405084,24.2848603 65.7744752,24.9215362 66.4665818,25.1429999 L66.4942973,25.1429999 C67.2415755,25.3644637 67.7399337,25.6136428 68.1274305,25.8628219 C68.4043251,26.0842857 68.3766093,26.3888954 68.3766093,26.6380745 C68.4043251,28.7143943 68.4043251,31.8980329 68.3214381,33.6422866 C68.2937223,34.3343933 68.0999739,34.5833132 67.6016163,34.6941746 L67.6567875,34.6664594 C67.2692907,34.7496053 66.9646809,34.8324923 66.4940381,34.887923 C66.3280052,35.0539562 66.3280052,35.9400701 66.4940381,36.1338185 C66.7986483,36.1338185 68.4043251,36.0506726 69.7333666,36.0506726 C71.560507,36.0506726 72.5017931,36.1338185 72.9724355,36.1338185 C73.1661839,35.9123549 73.2216149,35.0816714 73.1107535,34.887923 C72.5846801,34.8602078 72.1971833,34.805036 71.8374017,34.6941746 C71.3390434,34.5833132 71.2004668,34.3343933 71.1727516,33.7528888 C71.1175798,32.2855297 71.1175798,29.1850372 71.1175798,27.081002 C71.1175798,26.4994978 71.283613,26.2226034 71.4496456,26.0565703 C72.0863219,25.5030404 73.1107535,25.1152846 74.0243237,25.1152846 C74.9101788,25.1152846 75.4916832,25.392179 75.9346104,25.7522195 C76.5435714,26.2503187 76.7373198,26.9701406 76.8204655,27.4962142 C76.9587835,28.686679 76.9036117,31.0398933 76.9036117,33.0884977 C76.9036117,34.1958164 76.8204655,34.472711 76.4052534,34.6110287 C76.211505,34.6941746 75.7131468,34.805036 75.1316424,34.8602078 C74.937894,35.0539562 74.993325,35.9123549 75.1316424,36.1061033 C75.9346104,36.1061033 76.8758965,36.0229571 78.2601097,36.0229571 C79.9763888,36.0229571 81.0839666,36.1061033 81.5268938,36.1061033 C81.6652118,35.9400701 81.7206422,35.1371021 81.6097808,34.9156385 L81.61004,34.9156385 L81.61004,34.9156385 Z M89.2786433,24.340291 C87.8112845,24.340291 86.8977137,25.4753251 86.8977137,27.2470351 C86.8977137,29.0464605 87.7004231,31.1227803 89.97075,31.1227803 C90.3582468,31.1227803 91.0780686,30.9567471 91.410135,30.5692503 C91.9362085,30.0708921 92.2962493,29.0741758 92.2962493,28.0222877 C92.2962493,25.7245042 91.1609556,24.340291 89.2786433,24.340291 L89.2786433,24.340291 L89.2786433,24.340291 Z M89.0846363,36.5767461 C88.5311063,36.5767461 88.1433503,36.7427793 87.8944301,36.8813559 C86.7314218,37.6286343 86.205607,38.3484561 86.205607,39.2068549 C86.205607,40.0095637 86.5099582,40.6462396 87.1746083,41.2000285 C87.9773171,41.8921352 89.0846363,42.2244602 90.4965648,42.2244602 C93.3204217,42.2244602 94.566317,40.7016703 94.566317,39.2068549 C94.566317,38.1547077 94.0402435,37.4626011 92.9606401,37.0751043 C92.1853879,36.7427793 90.7734588,36.5767461 89.0846363,36.5767461 L89.0846363,36.5767461 L89.0846363,36.5767461 Z M89.2786433,43.7747066 C87.5898203,43.7747066 86.3716402,43.4146661 85.319752,42.611957 C84.2953203,41.8367045 83.8523931,40.6739551 83.8523931,39.871246 C83.8523931,39.6497824 83.9078235,39.0405628 84.4061818,38.4870327 C84.710533,38.1547077 85.3749238,37.5180318 86.9531447,36.4384283 C87.0083165,36.4107131 87.0360317,36.3829976 87.0360317,36.3275669 C87.0360317,36.2721362 86.9806007,36.2167055 86.9254295,36.1892492 C85.6241032,35.690891 85.2366064,34.887923 85.125745,34.4449955 L85.125745,34.3895648 C85.0982884,34.2235319 85.042858,34.0574987 85.2920368,33.8912065 C85.4857852,33.7528888 85.7626798,33.5868559 86.0670304,33.3931075 C86.5376734,33.1162132 87.0360317,32.8116034 87.3406415,32.5624243 C87.3960719,32.5069936 87.3960719,32.4518218 87.3960719,32.3963911 C87.3960719,32.3409604 87.3406415,32.2855297 87.2852105,32.2580734 C85.3474678,31.6211386 84.3784666,30.1814946 84.3784666,28.0222877 C84.3784666,26.6103592 85.0151428,25.3367483 86.1501766,24.5340394 C86.9254295,23.9248198 88.8631721,23.1775415 90.1367832,23.1775415 L90.2199294,23.1775415 C91.5209964,23.2049979 92.2408183,23.4818923 93.2649913,23.8419327 C93.8187799,24.0356812 94.3448533,24.1185682 95.0646752,24.1185682 C96.1442786,24.1185682 96.6149216,23.7865021 97.0024185,23.3990053 C97.0301337,23.4541769 97.0855647,23.5927537 97.1132799,23.9525351 C97.1409951,24.3125756 97.0301337,24.8383902 96.7532396,25.226146 C96.5317754,25.5304967 96.0336764,25.7522195 95.5353182,25.7522195 L95.3967416,25.7522195 C94.8983834,25.6967888 94.6769198,25.6413581 94.6769198,25.6413581 L94.566317,25.6967888 C94.5386018,25.7522195 94.566317,25.8073912 94.5940328,25.8905372 L94.621748,25.945968 C94.6769198,26.195147 94.7877812,26.9424253 94.7877812,27.1364327 C94.7877812,29.406501 93.8742103,30.4029582 92.9052097,31.1504955 C91.9639237,31.8426022 90.8843202,32.2855297 89.6661402,32.3963911 C89.638425,32.3963911 89.5278228,32.3963911 89.2786433,32.4241066 C89.1400667,32.4241066 88.9463183,32.4518218 88.9186031,32.4518218 L88.8908879,32.4518218 C88.6694237,32.5069936 88.1158943,32.7838879 88.1158943,33.2545309 C88.1158943,33.6697429 88.3650731,34.1681012 89.5552788,34.2512471 C89.8044582,34.2789626 90.053637,34.2789626 90.3305316,34.3066778 C91.9084933,34.4172803 93.8742103,34.5558569 94.7877812,34.8602078 C96.061133,35.3308505 96.864101,36.4658846 96.864101,37.8226416 C96.864101,39.871246 95.3967416,41.7815327 92.9606401,42.9717386 C91.7701752,43.497812 90.5797104,43.7747066 89.2786433,43.7747066 L89.2786433,43.7747066 L89.2786433,43.7747066 Z M105.058778,24.4786087 C104.477273,24.4786087 103.9512,24.6169264 103.563703,24.8938209 C102.4841,25.5582121 101.930311,26.8872536 101.930311,28.8249967 C101.930311,32.4518218 103.757452,34.9987844 106.359845,34.9987844 C107.135098,34.9987844 107.744058,34.7773208 108.270132,34.3343933 C109.07284,33.6697429 109.488312,32.3409604 109.488312,30.4861044 C109.488312,26.8872536 107.688627,24.4786087 105.058778,24.4786087 L105.058778,24.4786087 L105.058778,24.4786087 Z M105.557136,36.3275669 C100.850708,36.3275669 99.1618845,32.8670341 99.1618845,29.6279647 C99.1618845,27.3578965 100.075455,25.6136428 101.902595,24.3677473 C103.203922,23.5650383 104.754168,23.1221108 106.138381,23.1221108 C109.737232,23.1221108 112.256738,25.6967888 112.256738,29.406501 C112.256738,31.9257484 111.260022,33.918922 109.349735,35.1371021 C108.436165,35.7460628 106.858203,36.3275669 105.556877,36.3275669 L105.557136,36.3275669 L105.557136,36.3275669 Z M56.2233004,24.4786087 C55.6417963,24.4786087 55.1159818,24.6169264 54.7282261,24.8938209 C53.6486226,25.5582121 53.0948337,26.8872536 53.0948337,28.8249967 C53.0948337,32.4518218 54.9219745,34.9987844 57.5243678,34.9987844 C58.2996203,34.9987844 58.908581,34.7773208 59.4346545,34.3343933 C60.2373633,33.6697429 60.6528345,32.3409604 60.6528345,30.4861044 C60.6528345,26.8872536 58.8808655,24.4786087 56.2233004,24.4786087 L56.2233004,24.4786087 L56.2233004,24.4786087 Z M56.7216587,36.3275669 C52.0152303,36.3275669 50.3264072,32.8670341 50.3264072,29.6279647 C50.3264072,27.3578965 51.2399774,25.6136428 53.0671182,24.3677473 C54.3684445,23.5650383 55.9186906,23.1221108 57.3029039,23.1221108 C60.9020136,23.1221108 63.421261,25.6967888 63.421261,29.406501 C63.421261,31.9257484 62.4245446,33.918922 60.5142579,35.1371021 C59.6284029,35.7460628 58.0504412,36.3275669 56.7216587,36.3275669 L56.7216587,36.3275669 L56.7216587,36.3275669 Z M25.0782443,36.0506726 C25.0228136,35.9677856 24.9673829,35.7186065 24.9950983,35.4139967 C24.9950983,35.1925328 25.050529,35.0539562 25.0782443,34.9987844 C25.6594895,34.9156385 25.9640994,34.8324923 26.2961655,34.7496053 C26.8499543,34.6110287 27.0714181,34.3066778 27.0991334,33.6145711 C27.1822795,31.9534636 27.1822795,28.7972813 27.1545641,26.6103592 L27.1545641,26.5549285 C27.1545641,26.3057494 27.1545641,26.0011396 26.8499543,25.7796758 C26.4070268,25.5030404 25.8809533,25.2538613 25.1888467,25.0598539 C24.9396676,24.9769669 24.7736345,24.8383902 24.8013499,24.6723571 C24.8013499,24.5063241 24.9673829,24.3125756 25.3274234,24.2571449 C26.2409938,24.1739989 28.6216643,23.5927537 29.5629501,23.1775415 C29.6183808,23.2327132 29.7015268,23.3990053 29.7015268,23.620469 L29.6738115,23.9248198 C29.6460961,24.2294296 29.6183808,24.5894701 29.6183808,24.9492515 C29.6183808,25.0598539 29.7292421,25.1429999 29.8398445,25.1429999 C29.8952752,25.1429999 29.9507059,25.1152846 30.0061365,25.0875692 C31.7778466,23.703356 33.3835234,23.2049979 34.2139478,23.2049979 C35.5707047,23.2049979 36.622593,23.8419327 37.4255607,25.1707153 C37.4807325,25.2538613 37.5361632,25.2813176 37.6193091,25.2813176 C37.6747398,25.2813176 37.7576268,25.2538613 37.7853423,25.1984306 C39.4187347,23.9525351 41.052127,23.2049979 42.1317305,23.2049979 C44.7064083,23.2049979 46.2291981,25.1152846 46.2291981,28.3543539 C46.2291981,29.2679242 46.2291981,30.4583889 46.2014829,31.5382516 C46.2014829,32.5069936 46.1737677,33.3931075 46.1737677,34.0297835 C46.1737677,34.1681012 46.3675161,34.6110287 46.6721257,34.6941746 C47.0596225,34.887923 47.5856962,34.9710692 48.2778028,35.0816714 L48.305518,35.0816714 C48.3609487,35.2754198 48.2500873,35.9952419 48.1394851,36.1338185 C47.973193,36.1338185 47.7240139,36.1338185 47.4473785,36.1061033 C46.9213048,36.0783878 46.1737677,36.0506726 45.3433434,36.0506726 C43.6268048,36.0506726 42.7409498,36.0783878 41.8825514,36.1338185 C41.8273796,35.9123549 41.7996641,35.2479635 41.8825514,35.0816714 C42.3809093,34.9987844 42.6300884,34.9156385 42.9346982,34.8324923 C43.4884871,34.6664594 43.6268048,34.4172803 43.6545203,33.6974581 C43.6545203,33.1716436 43.7651225,28.686679 43.5990896,27.6068166 C43.4330564,26.4994978 42.6023732,25.1984306 40.7752324,25.1984306 C40.0831258,25.1984306 39.0035223,25.4753251 37.9513752,26.2780341 C37.8962037,26.3334648 37.840773,26.4717825 37.840773,26.5549285 L37.840773,26.5826438 C37.9513752,27.163889 37.9513752,27.8285394 37.9513752,28.852712 L37.9513752,30.6521373 C37.9513752,31.8980329 37.92366,33.0607825 37.9513752,33.9466372 C37.9513752,34.5558569 38.3114157,34.6941746 38.6160255,34.805036 C38.7820587,34.8324923 38.8926609,34.8602078 39.0312379,34.887923 C39.280417,34.9433537 39.5295961,34.9987844 39.9170929,35.0816714 C39.9725236,35.1925328 39.9725236,35.5523144 39.8893774,35.8569242 C39.8616622,36.0229571 39.8062315,36.1061033 39.7787752,36.1338185 C38.8374894,36.1061033 37.8684882,36.0783878 36.4565597,36.0783878 C36.0413477,36.0783878 35.3215256,36.1061033 34.712306,36.1061033 C34.2139478,36.1061033 33.743305,36.1338185 33.4666696,36.1338185 C33.4389541,36.0783878 33.3835234,35.8846394 33.3835234,35.5800296 C33.3835234,35.3308505 33.4389541,35.1371021 33.4943848,35.0816714 C33.6327025,35.0539562 33.743305,35.0264999 33.8818816,35.0264999 C34.2139478,34.9710692 34.4908424,34.9156385 34.7677367,34.8602078 C35.2383797,34.7218901 35.4044126,34.472711 35.4321281,33.8637502 C35.515274,32.4795373 35.598161,28.5206459 35.4044126,27.5239296 C35.0723465,25.9182526 34.1587763,25.1152846 32.6914171,25.1152846 C31.8332773,25.1152846 30.7534149,25.5304967 29.8675599,26.195147 C29.7292421,26.3057494 29.6183808,26.5826438 29.6183808,26.8318229 L29.6183808,28.4652152 C29.6183808,30.4583889 29.6183808,32.95018 29.6460961,34.0297835 C29.6738115,34.3618496 29.7844138,34.7496053 30.4213488,34.887923 C30.5596665,34.9156385 30.7811301,34.9710692 31.0580247,34.9987844 L31.556383,35.0816714 C31.6118137,35.2479635 31.5840982,35.9123549 31.4732368,36.1338185 C31.1963424,36.1338185 30.8642763,36.1061033 30.4765203,36.1061033 C29.8952752,36.0783878 29.1477379,36.0506726 28.3173136,36.0506726 C27.3483125,36.0506726 26.6562059,36.0783878 26.1024171,36.1061033 C25.7149202,36.0506726 25.4103104,36.0506726 25.0782443,36.0506726 L25.0782443,36.0506726 L25.0782443,36.0506726 Z" id="Shape" fill="#442D22"></path>
                <g id="Group">
                    <path d="M10.5160313,42.6951032 L9.38099716,42.3073475 C9.38099716,42.3073475 9.51957389,36.5213154 7.44325407,36.1061033 C6.05904087,34.5004262 7.66471782,-31.9977565 12.6477818,35.8846394 C12.6477818,35.8846394 10.9315024,36.7427793 10.6268927,38.2101384 C10.2945675,39.6497824 10.5160313,42.6951032 10.5160313,42.6951032 L10.5160313,42.6951032 L10.5160313,42.6951032 Z" id="Path" fill="#FFFFFF"></path>
                    <path d="M10.5160313,42.6951032 L9.38099716,42.3073475 C9.38099716,42.3073475 9.51957389,36.5213154 7.44325407,36.1061033 C6.05904087,34.5004262 7.66471782,-31.9977565 12.6477818,35.8846394 C12.6477818,35.8846394 10.9315024,36.7427793 10.6268927,38.2101384 C10.2945675,39.6497824 10.5160313,42.6951032 10.5160313,42.6951032 L10.5160313,42.6951032 L10.5160313,42.6951032 Z" id="Path" fill="#A6A385"></path>
                    <path d="M11.1252508,37.1028198 C11.1252508,37.1028198 21.0639224,30.5692503 18.7384234,16.9760385 C16.4960706,7.09279756 11.2081378,3.8537283 10.6268926,2.60783282 C9.99021673,1.72197781 9.38099713,0.171731541 9.38099713,0.171731541 L9.79646832,27.6622473 C9.79646832,27.6899626 8.93806962,36.0783878 11.1252508,37.1028198" id="Path" fill="#FFFFFF"></path>
                    <path d="M11.1252508,37.1028198 C11.1252508,37.1028198 21.0639224,30.5692503 18.7384234,16.9760385 C16.4960706,7.09279756 11.2081378,3.8537283 10.6268926,2.60783282 C9.99021673,1.72197781 9.38099713,0.171731541 9.38099713,0.171731541 L9.79646832,27.6622473 C9.79646832,27.6899626 8.93806962,36.0783878 11.1252508,37.1028198" id="Path" fill="#499D4A"></path>
                    <path d="M8.79975215,37.4626011 C8.79975215,37.4626011 -0.529958874,31.0950648 0.0238300178,19.8830416 C0.549644542,8.67075922 7.13864446,3.16162171 8.41199631,2.16490531 C9.24267961,1.2790503 9.27039499,0.946725164 9.32582569,0.0608701542 C9.90707085,1.30676565 9.79646853,18.6925768 9.87935553,20.7411813 C10.1285346,28.6312484 9.43642801,35.9677856 8.79975215,37.4626011 L8.79975215,37.4626011 L8.79975215,37.4626011 Z" id="Path" fill="#FFFFFF"></path>
                    <path d="M8.79975215,37.4626011 C8.79975215,37.4626011 -0.529958874,31.0950648 0.0238300178,19.8830416 C0.549644542,8.67075922 7.13864446,3.16162171 8.41199631,2.16490531 C9.24267961,1.2790503 9.27039499,0.946725164 9.32582569,0.0608701542 C9.90707085,1.30676565 9.79646853,18.6925768 9.87935553,20.7411813 C10.1285346,28.6312484 9.43642801,35.9677856 8.79975215,37.4626011 L8.79975215,37.4626011 L8.79975215,37.4626011 Z" id="Path" fill="#58AA50"></path>
                </g>
            </g>
        </g>
    </g>
</svg>