<?xml version="1.0" encoding="UTF-8"?>
<svg width="77px" height="77px" viewBox="0 0 77 77" version="1.1" xmlns="http://www.w3.org/2000/svg" xmlns:xlink="http://www.w3.org/1999/xlink">
    <!-- Generator: Sketch 60 (88103) - https://sketch.com -->
    <title>perl</title>
    <desc>Created with Sketch.</desc>
    <g id="Symbols" stroke="none" stroke-width="1" fill="none" fill-rule="evenodd">
        <g id="Icons/Backend" transform="translate(-243.000000, -243.000000)" fill-rule="nonzero">
            <g id="perl" transform="translate(243.000000, 243.000000)">
                <path d="M76.7278224,38.3278209 C76.7278224,59.4956055 59.5677858,76.6556421 38.4000015,76.6556421 C17.2320729,76.6556421 0.0721804541,59.4956055 0.0721804541,38.3278209 C0.0721804541,17.1598924 17.2320729,0 38.4000015,0 C59.5677858,0 76.7278224,17.1598924 76.7278224,38.3278209" id="Path" fill="#3A3C5B"></path>
                <path d="M65.1002732,41.1626362 C63.8088205,33.0138961 55.259479,27.7353394 48.8931628,23.7542987 C46.1120499,22.0153272 41.6032259,19.7498715 41.0200075,16.0923435 C40.7792137,14.5808848 40.7880196,13.0193328 40.7374933,11.4931493 C40.7175715,10.8939072 40.7083324,10.2912004 40.6547746,9.69340188 C40.5854812,8.92222592 39.8005912,9.87269814 39.3703957,9.1996876 C38.304579,7.53347397 38.7148527,9.70466205 38.8196586,10.5807884 C39.0662272,12.6415404 39.3558151,14.6962292 39.3392137,16.7763255 C39.3073099,20.7517362 38.6667804,24.5572341 37.6755984,28.3874177 C35.3541308,37.3571382 33.5229127,46.547298 35.8194059,55.7261977 C36.2952194,57.6280082 36.9146721,59.5042671 37.7284347,61.2894339 C37.9744257,61.8291994 38.4453309,63.3357499 39.1222393,63.5162011 C41.5599176,64.1666911 43.4032619,64.3550822 45.3501132,66.1683995 C46.5588469,67.2942705 47.4654334,66.6792929 48.8951839,66.1071905 C53.2260111,64.3739936 56.9792504,62.1928447 60.0480747,58.6236656 C64.3618673,53.6065464 66.1415486,47.733223 65.1002732,41.1626362 M60.5197017,49.3675328 C60.1354128,52.7191599 58.033085,55.7214337 55.8862939,58.210649 C54.3300835,60.0150159 52.2245796,62.3566942 49.9172591,63.178252 C49.0866065,63.4740475 50.0692712,61.8123094 50.1911117,61.6291152 C50.9054096,60.5550702 51.7855779,59.6074851 52.6028052,58.6137047 C53.811972,57.1442549 54.8591662,55.6017586 55.5668233,53.8220772 C57.9164414,47.915695 57.3825947,40.7564047 53.9052291,35.4355502 C52.0120803,32.5385155 49.4137283,30.0898659 46.7944441,27.8560252 C45.5289762,26.7766386 44.2484949,25.7561514 43.1835446,24.4645544 C42.937265,24.1663047 40.7623234,21.3190745 41.4389431,20.8981181 C41.6575055,20.7619858 46.4110212,25.7622146 46.9279777,26.1525664 C48.893596,27.636741 50.9152262,29.0090358 52.7351841,30.6803019 C55.19827,32.9431591 57.7279061,35.4707744 59.1390338,38.54826 C60.6855723,41.9202422 60.9371934,45.7215537 60.5197017,49.3675328" id="Shape" fill="#FFFFFF"></path>
                <path d="M36.9882963,1.03304666 C37.7018721,1.50886021 37.8602361,4.28376557 37.8602361,6.82076418 C37.8602361,9.35834023 38.098143,20.2997422 37.3053129,23.2334445 C36.5126271,26.1671469 34.6889156,29.4180102 32.7066961,32.2723141 C30.7246206,35.126618 28.4252402,41.1523867 28.5044944,44.8787748 C28.5836041,48.605596 30.7246206,54.7104745 32.3896795,57.2477618 C34.0609457,59.7945768 36.8980707,63.3441229 36.2745758,64.1459032 C35.1644405,65.5730552 30.6453666,60.6571332 28.266732,57.8029736 C25.8879529,54.9485254 23.5093182,49.1602307 23.4302084,44.6411568 C23.35081,40.1216497 25.8879529,35.9193038 27.7116643,33.3824494 C29.5353756,30.8451621 33.103111,26.4843078 34.0545938,24.5022326 C35.0059322,22.5200129 36.0368135,20.3794294 36.3539744,17.6040909 C36.6711354,14.8290412 36.3539744,4.91794307 36.3539744,4.91794307 C36.3539744,4.91794307 36.2745758,0.557233105 36.9882963,1.03304666" id="Path" fill="#FFFFFF"></path>
                <path d="M35.0853308,5.71091753 C35.7987623,6.02807844 35.8781609,6.90016269 35.8781609,7.77253564 C35.8781609,8.64461989 35.640254,12.2126441 35.4024917,15.7012698 C35.1644405,19.1898955 32.3896795,22.1235979 30.3280614,24.1849273 C28.266732,26.2462567 22.3200731,32.668729 20.0999466,35.8403381 C17.8799646,39.011803 16.7735826,43.189319 17.0078804,46.7026306 C17.2456428,50.2705103 18.117727,53.759136 21.4479888,57.4858127 C24.7781062,61.212201 27.0773424,62.9565139 28.8215109,63.8288866 C30.565968,64.7005379 32.3104255,65.335004 31.913866,66.128123 C31.5173065,66.9208086 29.8522478,66.365741 28.0286808,65.7317078 C26.2051138,65.0970974 20.0206925,62.5603876 16.4526683,58.5165497 C12.8849328,54.4725676 11.0613658,49.0811207 11.2198741,43.927292 C11.378238,38.773752 12.8056787,36.633024 15.1843134,33.3029065 C17.5628037,29.9729335 24.1436401,25.0573002 26.2051138,23.7886566 C28.266732,22.5200129 31.0414929,20.379285 32.3896795,18.6349722 C33.7374328,16.890515 34.451009,15.4630743 34.3716104,13.084584 C34.2923564,10.7060936 34.5304073,8.56522138 34.451009,7.77253564 C34.3716104,6.97970554 34.3716104,5.39404533 35.0853308,5.71091753" id="Path" fill="#FFFFFF"></path>
                <path d="M35.2839713,67.8608868 C35.6063291,67.8478944 35.402636,69.2450194 34.8332765,69.9383848 C34.2639173,70.6314613 33.2861608,71.0482315 33.1673518,70.7694706 C33.0479653,70.4904208 33.8734207,70.330036 34.4793038,69.6555817 C35.0356706,69.0362733 34.8885668,67.876911 35.2839713,67.8608868" id="Path" fill="#FFFFFF"></path>
                <path d="M41.7008138,67.8242193 C41.3786002,67.8107937 41.5822934,69.2079187 42.1516529,69.9009952 C42.7210121,70.594072 43.6987685,71.0112751 43.8174332,70.7323696 C43.9366754,70.4533201 43.111364,70.2930796 42.5054813,69.618481 C41.9491145,68.9996058 42.0963626,67.839666 41.7008138,67.8242193" id="Path" fill="#FFFFFF"></path>
                <path d="M38.8483866,69.3398644 C38.8483866,70.5601471 38.910606,71.5490194 38.64426,71.5490194 C38.3162721,71.5490194 38.4399894,70.5601471 38.4399894,69.3398644 C38.4399894,68.1197259 38.3286873,67.1304207 38.64426,67.1304207 C38.9350029,67.1304207 38.8483866,68.1197259 38.8483866,69.3398644" id="Path" fill="#FFFFFF"></path>
            </g>
        </g>
    </g>
</svg>