<?xml version="1.0" encoding="UTF-8"?>
<svg width="77px" height="77px" viewBox="0 0 77 77" version="1.1" xmlns="http://www.w3.org/2000/svg" xmlns:xlink="http://www.w3.org/1999/xlink">
    <!-- Generator: Sketch 60 (88103) - https://sketch.com -->
    <title>swift</title>
    <desc>Created with Sketch.</desc>
    <defs>
        <linearGradient x1="59.3830999%" y1="-3.56828125%" x2="40.5108513%" y2="103.580664%" id="linearGradient-1">
            <stop stop-color="#FAAE42" offset="0%"></stop>
            <stop stop-color="#EF3E31" offset="100%"></stop>
        </linearGradient>
        <linearGradient x1="59.8404246%" y1="5.74840186%" x2="43.6223274%" y2="94.0379483%" id="linearGradient-2">
            <stop stop-color="#E39F3A" offset="0%"></stop>
            <stop stop-color="#D33929" offset="100%"></stop>
        </linearGradient>
    </defs>
    <g id="Symbols" stroke="none" stroke-width="1" fill="none" fill-rule="evenodd">
        <g id="Icons/Mobile" transform="translate(-23.000000, -246.000000)" fill-rule="nonzero">
            <g id="swift" transform="translate(23.000000, 246.000000)">
                <path d="M17.0700007,0 C17.5200007,0 58.8600023,0 59.6100024,0 C61.6800025,0 63.6900025,0.330000013 65.6400026,1.02000004 C68.4600027,2.04000008 71.0100028,3.84000015 72.9300029,6.18000025 C74.880003,8.52000034 76.170003,11.4000005 76.620003,14.4000006 C76.8000031,15.5100006 76.8300031,16.6200007 76.8300031,17.7300007 C76.8300031,18.7500007 76.8300031,54.6900022 76.8300031,56.3100022 C76.8300031,57.2700023 76.8300031,58.2600023 76.8300031,59.2200024 C76.8300031,60.5400024 76.7700031,61.8900025 76.500003,63.1800025 C75.900003,66.1500026 74.490003,68.9400027 72.4500029,71.1900028 C70.4400028,73.4400029 67.8000027,75.120003 64.9500026,76.020003 C63.2100025,76.560003 61.4100024,76.8000031 59.5800024,76.8000031 C58.7700023,76.8000031 16.9500007,76.8000031 16.3200006,76.7700031 C13.2600005,76.620003 10.2300004,75.630003 7.68000031,73.9200029 C5.19000021,72.2400029 3.15000013,69.9000028 1.83000007,67.2000027 C0.690000027,64.8900026 0.120000005,62.3100025 0.120000005,59.7300024 C0.120000005,59.1300023 0.120000005,17.6700007 0.120000005,17.0700007 C0.0600000024,14.5200006 0.600000024,12 1.71000007,9.72000039 C3.00000012,7.02000028 5.0100002,4.65000018 7.5000003,2.97000012 C10.0500004,1.23000005 13.0500005,0.210000008 16.1100006,0.0600000024 C16.4100007,0 16.7400007,0 17.0700007,0 Z" id="Path" fill="url(#linearGradient-1)"></path>
                <path d="M64.8000026,62.8200025 C64.5300026,62.4000025 64.2300026,61.9800025 63.9000025,61.5900024 C63.1500025,60.6900024 62.2800025,59.9100024 61.3200024,59.2500024 C60.1200024,58.4400023 58.7100023,57.9300023 57.2700023,57.8700023 C56.2500022,57.8100023 55.2300022,57.9900023 54.2700022,58.3500023 C53.3100021,58.6800023 52.3800021,59.1600024 51.480002,59.6400024 C50.430002,60.1800024 49.380002,60.7200024 48.2700019,61.1700024 C46.9500019,61.7100025 45.5700018,62.1300025 44.1600018,62.4300025 C42.3900017,62.7600025 40.5900016,62.8800025 38.8200015,62.8500025 C35.6100014,62.7900025 32.4000013,62.3100025 29.3400012,61.4100024 C26.6400011,60.6000024 24.060001,59.4900024 21.6300009,58.0800023 C19.5,56.8500023 17.5200007,55.4400022 15.6600006,53.8500021 C14.1300006,52.5300021 12.7200005,51.120002 11.4000005,49.620002 C10.5,48.5700019 9.63000038,47.4600019 8.82000035,46.3200018 C8.49000034,45.8700018 8.19000033,45.3900018 7.92000031,44.9100018 C7.92000031,44.9100018 7.92000031,44.9100018 7.92000031,44.9100018 C7.92000031,44.9100018 7.92000031,44.9100018 7.92000031,44.9100018 L0,36.3600014 L0,17.0100007 C0,7.6200003 7.5900003,0 16.9800007,0 L32.1300013,0 L43.3500017,11.4000005 C43.3500017,11.4000005 43.3500017,11.4000005 43.3500017,11.4000005 C68.6700027,28.6200011 60.4800024,47.6100019 60.4800024,47.6100019 C60.4800024,47.6100019 67.6800027,55.7100022 64.8000026,62.8200025 Z" id="Path" fill="url(#linearGradient-2)"></path>
                <path d="M43.4100017,11.4000005 C68.7300027,28.6200011 60.5400024,47.6100019 60.5400024,47.6100019 C60.5400024,47.6100019 67.7400027,55.7400022 64.8300026,62.8500025 C64.8300026,62.8500025 61.8600025,57.8700023 56.8800023,57.8700023 C52.0800021,57.8700023 49.260002,62.8500025 39.6000016,62.8500025 C18.0900007,62.8500025 7.92000031,44.8800018 7.92000031,44.8800018 C27.3000011,57.6300023 40.5300016,48.6000019 40.5300016,48.6000019 C31.8000013,43.5300017 13.2300005,19.2900008 13.2300005,19.2900008 C29.4000012,33.0600013 36.3900014,36.6900015 36.3900014,36.6900015 C32.2200013,33.2400013 20.5200008,16.3800007 20.5200008,16.3800007 C29.8800012,25.860001 48.4800019,39.0900016 48.4800019,39.0900016 C53.7600021,24.450001 43.4100017,11.4000005 43.4100017,11.4000005 Z" id="Path" fill="#FFFFFF"></path>
            </g>
        </g>
    </g>
</svg>