<?xml version="1.0" encoding="UTF-8"?>
<svg width="77px" height="69px" viewBox="0 0 77 69" version="1.1" xmlns="http://www.w3.org/2000/svg" xmlns:xlink="http://www.w3.org/1999/xlink">
    <!-- Generator: Sketch 60 (88103) - https://sketch.com -->
    <title>xamarin</title>
    <desc>Created with Sketch.</desc>
    <g id="Symbols" stroke="none" stroke-width="1" fill="none" fill-rule="evenodd">
        <g id="Icons/Mobile" transform="translate(-152.000000, -249.000000)" fill="#3498DB" fill-rule="nonzero">
            <g id="xamarin" transform="translate(152.000000, 249.000000)">
                <path d="M22.1598962,0 C20.0856927,0.00439852347 18.0552813,1.18179404 17.0111137,2.97795126 L0.770930552,31.1889669 C-0.256976852,32.9899332 -0.256976852,35.3439255 0.770930552,37.1448915 L17.0111137,65.3559069 C18.055391,67.1520786 20.0856927,68.3297895 22.1598962,68.3338581 L54.6401478,68.3338581 C56.7143514,68.3294595 58.7446518,67.1520786 59.7889293,65.3559069 L76.0291098,37.1448915 C77.0570163,35.3439255 77.0569104,32.9899332 76.0291098,31.1889669 L59.7889293,2.97795126 C58.7446518,1.18179404 56.7143514,0.00406864629 54.6401478,0 L22.1598962,0 L22.1598962,0 Z M22.4546561,16.5037856 C22.4992746,16.4993871 22.5460727,16.4993871 22.5908302,16.5037856 L28.1931851,16.5037856 C28.4411761,16.5089172 28.6817282,16.6522356 28.8055701,16.8674991 L38.309292,33.8032122 C38.3571285,33.8869452 38.387952,33.9802374 38.3996481,34.0759938 C38.4113511,33.9802155 38.4421449,33.8869158 38.4900042,33.8032122 L47.9709786,16.8674991 C48.0987501,16.6457111 48.3505707,16.5016009 48.6060063,16.5037856 L54.2083638,16.5037856 C54.7044585,16.5081841 55.0759716,17.1330304 54.8434968,17.5722151 L45.5667195,34.1669328 L54.8434968,50.7389172 C55.0979757,51.1806243 54.717321,51.8344419 54.2083638,51.8300948 L48.6060063,51.8300948 C48.3461067,51.8278734 48.0927972,51.6737934 47.9709786,51.4436262 L38.4900042,34.5079131 C38.4421668,34.4241801 38.4113439,34.3308801 38.3996481,34.2351318 C38.3879448,34.330902 38.3571504,34.424217 38.309292,34.5079131 L28.8055701,51.4436262 C28.6873677,51.6672834 28.4455356,51.8198898 28.1931851,51.8300948 L22.5908302,51.8300948 C22.0818723,51.834471 21.7013206,51.1806243 21.9557995,50.7389172 L31.232574,34.1669328 L21.9557995,17.5722151 C21.7334239,17.1715101 22.0047336,16.5893148 22.4546561,16.5037856 L22.4546561,16.5037856 L22.4546561,16.5037856 Z" id="Shape"></path>
            </g>
        </g>
    </g>
</svg>