<?xml version="1.0" encoding="UTF-8"?>
<svg width="68px" height="77px" viewBox="0 0 68 77" version="1.1" xmlns="http://www.w3.org/2000/svg" xmlns:xlink="http://www.w3.org/1999/xlink">
    <!-- Generator: Sketch 60 (88103) - https://sketch.com -->
    <title>c.1</title>
    <desc>Created with Sketch.</desc>
    <g id="Symbols" stroke="none" stroke-width="1" fill="none" fill-rule="evenodd">
        <g id="Icons/Backend" transform="translate(-303.000000, -110.000000)" fill-rule="nonzero">
            <g id="c.1" transform="translate(303.000000, 110.000000)">
                <path d="M67.8579759,22.4946207 C67.8574448,21.2121724 67.5831655,20.0789448 67.0285,19.1063552 C66.4836586,18.1499621 65.6677241,17.3483655 64.5732621,16.7145759 C55.5390379,11.5053931 46.4960517,6.31214138 37.4647483,1.09764828 C35.0299552,-0.308 32.6692414,-0.256755172 30.2525034,1.16907241 C26.6566034,3.28975862 8.6532069,13.6043069 3.28843103,16.7116552 C1.07906207,17.9906517 0.00398275862,19.9480448 0.00345172414,22.492231 C0,32.9682138 0.00345172414,43.443931 0,53.9201793 C0,55.1744828 0.263127586,56.2856724 0.793365517,57.2436586 C1.33847241,58.2289931 2.16582414,59.0526276 3.28551034,59.7007552 C8.65055172,62.8081034 26.6563379,73.1218552 30.2514414,75.2430724 C32.6692414,76.6696966 35.0299552,76.7206759 37.4655448,75.3144966 C46.4971138,70.0997379 55.540631,64.9067517 64.5761828,59.697569 C65.695869,59.0497069 66.5232207,58.2255414 67.0683276,57.2410034 C67.597769,56.2830172 67.8614276,55.1718276 67.8614276,53.9172586 C67.8614276,53.9172586 67.8614276,32.970869 67.8579759,22.4946207" id="Path" fill="#5C8DBC"></path>
                <path d="M34.034531,38.1041138 L0.793365517,57.2436586 C1.33847241,58.2289931 2.16582414,59.0526276 3.28551034,59.7007552 C8.65055172,62.8081034 26.6563379,73.1218552 30.2514414,75.2430724 C32.6692414,76.6696966 35.0299552,76.7206759 37.4655448,75.3144966 C46.4971138,70.0997379 55.540631,64.9067517 64.5761828,59.697569 C65.695869,59.0497069 66.5232207,58.2255414 67.0683276,57.2410034 L34.034531,38.1041138" id="Path" fill="#1A4674"></path>
                <path d="M24.1888862,43.7734379 C26.1231793,47.1502862 29.7594379,49.4278931 33.9307138,49.4278931 C38.1277448,49.4278931 41.7847138,47.1213448 43.7091828,43.7083862 L34.034531,38.1041138 L24.1888862,43.7734379" id="Path" fill="#1A4674"></path>
                <path d="M67.8579759,22.4946207 C67.8574448,21.2121724 67.5831655,20.0789448 67.0285,19.1063552 L34.034531,38.1041138 L67.0683276,57.2410034 C67.597769,56.2830172 67.8608966,55.1718276 67.8614276,53.9172586 C67.8614276,53.9172586 67.8614276,32.970869 67.8579759,22.4946207" id="Path" fill="#1B598E"></path>
                <polyline id="Path" fill="#FFFFFF" points="66.0415724 39.4720586 63.4602138 39.4720586 63.4602138 42.0539483 60.8783241 42.0539483 60.8783241 39.4720586 58.297231 39.4720586 58.297231 36.8909655 60.8783241 36.8909655 60.8783241 34.3096069 63.4602138 34.3096069 63.4602138 36.8909655 66.0415724 36.8909655 66.0415724 39.4720586"></polyline>
                <polyline id="Path" fill="#FFFFFF" points="56.6223483 39.4720586 54.0412552 39.4720586 54.0412552 42.0539483 51.4598966 42.0539483 51.4598966 39.4720586 48.8785379 39.4720586 48.8785379 36.8909655 51.4598966 36.8909655 51.4598966 34.3096069 54.0412552 34.3096069 54.0412552 36.8909655 56.6223483 36.8909655 56.6223483 39.4720586"></polyline>
                <path d="M43.7091828,43.7083862 C41.7847138,47.1213448 38.1277448,49.4278931 33.9307138,49.4278931 C29.7594379,49.4278931 26.1231793,47.1502862 24.1888862,43.7734379 C23.2492207,42.1325414 22.7088931,40.2327655 22.7088931,38.2060724 C22.7088931,32.0086345 27.7332759,26.9845172 33.9307138,26.9845172 C38.0751724,26.9845172 41.6923138,29.2337138 43.6361655,32.5760448 L53.4446379,26.9279621 C49.5460483,20.1981621 42.2674241,15.6705621 33.9307138,15.6705621 C21.4843276,15.6705621 11.3949379,25.7602172 11.3949379,38.2060724 C11.3949379,42.2891966 12.481169,46.1182207 14.3796172,49.4209897 C18.2683828,56.186369 25.5677172,60.7418483 33.9307138,60.7418483 C42.3091103,60.7418483 49.6198621,56.1680483 53.5030517,49.3827552 L43.7091828,43.7083862" id="Path" fill="#FFFFFF"></path>
            </g>
        </g>
    </g>
</svg>