<?xml version="1.0" encoding="UTF-8"?>
<svg width="77px" height="76px" viewBox="0 0 77 76" version="1.1" xmlns="http://www.w3.org/2000/svg" xmlns:xlink="http://www.w3.org/1999/xlink">
    <!-- Generator: Sketch 60 (88103) - https://sketch.com -->
    <title>mysql</title>
    <desc>Created with Sketch.</desc>
    <g id="Symbols" stroke="none" stroke-width="1" fill="none" fill-rule="evenodd">
        <g id="icons/server" transform="translate(-68.000000, -267.000000)" fill="#00546B" fill-rule="nonzero">
            <g id="mysql" transform="translate(68.000000, 267.000000)">
                <path d="M70.6944828,58.2634896 C66.5189553,58.1593677 63.2828616,58.5771816 60.5686812,59.7251892 C59.7857697,60.0382218 58.5329781,60.0385494 58.4285301,61.0300374 C58.8463494,61.4478567 58.8984102,62.1263148 59.2638288,62.7003165 C59.8905576,63.7438653 60.9861741,65.1535029 61.9779951,65.8843521 C63.0739383,66.7193244 64.1702073,67.5542967 65.3182248,68.2851459 C67.3539276,69.5379375 69.6505875,70.268451 71.6339031,71.5212369 C72.7825731,72.2514201 73.9302369,73.1915133 75.0785802,73.9744233 C75.6529221,74.3915778 76.0180143,75.0703635 76.7488647,75.3313338 L76.7488647,75.1748196 C76.3834326,74.7049437 76.2789846,74.0264856 75.9138924,73.5045432 C75.3922776,72.9826023 74.8700106,72.5127249 74.3480697,71.990784 C72.8343075,69.95541 70.9554399,68.1806952 68.9197641,66.7193244 C67.2498195,65.570985 63.5959065,64.005165 62.9174292,62.0739153 C62.9174292,62.0739153 62.865042,62.021853 62.8129812,61.969791 C63.9613113,61.8653361 65.3182248,61.447854 66.4145073,61.1344869 C68.1892398,60.6646122 69.8071371,60.7690644 71.6339031,60.2995146 C72.4688757,60.090609 73.3041876,59.8296387 74.1391599,59.5686666 L74.1391599,59.0991225 C73.200066,58.1593596 72.5212764,56.9069052 71.5294551,56.0195334 C68.8676895,53.7225339 65.9446137,51.4785807 62.9174292,49.5997182 C61.2992055,48.5558376 59.2114416,47.8770453 57.4891236,46.9900107 C56.8630608,46.6763187 55.8188391,46.520136 55.4537469,45.9981897 C54.5139906,44.8498569 53.9920497,43.336428 53.3135946,41.9791737 C51.8004987,39.1081815 50.3384589,35.9247918 49.033623,32.8975995 C48.0945288,30.8618979 47.5201953,28.8261868 46.3718586,26.947357 C40.9959498,18.0743716 35.1501285,12.6984331 26.1726924,7.42663722 C24.241447,6.33069156 21.9451134,5.86081623 19.4919188,5.28681372 C18.1873995,5.23442049 16.8822141,5.13029898 15.5773522,5.07790575 C14.7423798,4.71247737 13.9070758,3.72099276 13.1762239,3.25111323 C10.2017626,1.37192883 2.5288269,-2.69882132 0.33661644,2.67711071 C-1.07269075,6.06973548 2.42438026,9.4099431 3.62476425,11.1326044 C4.5124608,12.3330053 5.66046585,13.6899154 6.28686159,15.0471739 C6.65228823,15.9338768 6.75640863,16.8739645 7.12183527,17.813393 C7.9571379,20.1094017 8.73971766,22.6673623 9.83599212,24.8075418 C10.4103256,25.9034873 11.0363897,27.0518227 11.7672389,28.0432998 C12.1847237,28.6173017 12.9152426,28.8786038 13.0720886,29.8180309 C12.3415724,30.8619087 12.2891785,32.4277356 11.8713593,33.7325976 C9.99250644,39.6304476 10.7233543,46.93764 13.3851213,51.269667 C14.2200936,52.5741891 16.2037221,55.4455263 18.8655095,54.3492546 C21.2142424,53.4098232 20.6923001,50.4346878 21.3707581,47.824983 C21.5276068,47.1982569 21.4231507,46.7811051 21.7361834,46.3636149 C21.7364552,46.4156772 21.7361834,46.4680683 21.7361834,46.4680683 C22.4670312,47.9294364 23.1975514,49.338753 23.8760067,50.8000968 C25.4942208,53.3574075 28.312513,56.0195022 30.6612309,57.7942509 C31.9143543,58.7333424 32.9058408,60.3515631 34.4716569,60.9258939 L34.4716569,60.7690452 L34.3672035,60.7690452 C34.0538403,60.2991693 33.5842935,60.0905874 33.166806,59.7251676 C32.2273773,58.7857389 31.1831652,57.6373995 30.452649,56.5935243 C28.2607634,53.6704458 26.3291822,50.4346905 24.6068546,47.0941488 C23.7718823,45.4762665 23.0410344,43.7015202 22.3625764,42.0836433 C22.0492134,41.4569187 22.0492134,40.5178218 21.5272724,40.2047919 C20.7443623,41.3527941 19.5963573,42.3446151 19.0220238,43.7539251 C18.0308675,45.9982032 17.926081,48.7644291 17.5606558,51.6350841 C17.3520751,51.6874794 17.4561996,51.6350841 17.3517448,51.7395414 C15.6817988,51.3217224 15.1074653,49.5997182 14.4810586,48.1380156 C12.9152371,44.4323778 12.654268,38.4821052 14.0115116,34.2024708 C14.3769369,33.1061964 15.9427584,29.6615138 15.3163627,28.6176306 C15.0033299,27.6258082 13.9591177,27.0518091 13.3851159,26.268899 C12.7066579,25.277078 11.97581,24.0246195 11.506263,22.9283573 C10.2534715,20.0056143 9.62707845,16.7695233 8.27017062,13.8464446 C7.64377488,12.4891999 6.54783207,11.0802251 5.66046585,9.82776189 C4.6689792,8.41845852 3.57270201,7.42663722 2.78978107,5.75635518 C2.5291409,5.18235267 2.16338532,4.24292745 2.58087283,3.61652898 C2.68532763,3.19904541 2.8939042,3.04252797 3.31172067,2.93807249 C3.99017865,2.36373885 5.92142544,3.09458721 6.59986848,3.40762089 C8.53111527,4.19019753 10.1490017,4.92138261 11.7672158,6.01732539 C12.4977333,6.53926569 13.2806434,7.53108696 14.2200719,7.79205717 L15.316345,7.79205717 C16.9866213,8.15715159 18.8654782,7.89650694 20.4312984,8.36605956 C23.1978491,9.2530944 25.7027593,10.5582763 27.9473909,11.9675854 C34.785009,16.2996147 40.4215659,22.4587844 44.2320189,29.8180336 C44.8584147,31.018101 45.1190535,32.114703 45.693387,33.367167 C46.7896614,35.9248095 48.1465734,38.5345128 49.242519,41.0397654 C50.3384616,43.4926203 51.3823422,45.9982086 52.9481583,48.0339144 C53.7314001,49.1295282 56.8627209,49.703859 58.2720078,50.2781925 C59.3158896,50.7477423 60.9341133,51.1655613 61.8735336,51.7395618 C63.6479403,52.8351729 65.4226728,54.088299 67.0929435,55.2886938 C67.9282422,55.9147605 70.5376206,57.2199432 70.6944693,58.263495 L70.6944828,58.2634896 L70.6944828,58.2634896 Z" id="Path"></path>
                <path d="M17.4559468,12.9066793 C16.5685819,12.9066793 15.9425191,13.0114658 15.3161234,13.1679842 C15.3161234,13.1677123 15.3161234,13.2203768 15.3161234,13.272439 L15.4205796,13.272439 C15.8383974,14.107411 16.5685846,14.6817446 17.0905242,15.4122593 C17.5083434,16.2472317 17.8734343,17.0825384 18.2912535,17.9178424 C18.343313,17.8654484 18.3953752,17.8133876 18.3953752,17.8133876 C19.1265574,17.2911149 19.4916497,16.4561426 19.4916497,15.2036828 C19.1782853,14.8382575 19.1262231,14.4728336 18.8652539,14.1074083 C18.5522212,13.5851346 17.8734316,13.3244985 17.4559468,12.9066793 L17.4559468,12.9066793 L17.4559468,12.9066793 Z" id="Path"></path>
            </g>
        </g>
    </g>
</svg>