<?xml version="1.0" encoding="UTF-8"?>
<svg width="77px" height="80px" viewBox="0 0 77 80" version="1.1" xmlns="http://www.w3.org/2000/svg" xmlns:xlink="http://www.w3.org/1999/xlink">
    <!-- Generator: Sketch 60 (88103) - https://sketch.com -->
    <title>postgresql</title>
    <desc>Created with Sketch.</desc>
    <g id="Symbols" stroke="none" stroke-width="1" fill="none" fill-rule="evenodd">
        <g id="icons/server" transform="translate(-415.000000, -267.000000)" fill-rule="nonzero">
            <g id="postgresql" transform="translate(415.000000, 267.000000)">
                <path d="M76.5023808,47.425687 C76.0419357,46.0312257 74.8356612,45.0597855 73.2755393,44.8265478 C72.5399975,44.7167574 71.6975029,44.7635823 70.7006992,44.969151 C68.9632101,45.3276102 67.6741053,45.4640055 66.7333497,45.4906107 C70.284241,39.4950667 73.1717792,32.6579155 74.8340649,26.2219687 C77.5218877,15.8154796 76.085568,11.0746314 74.4071421,8.93008442 C69.9651574,3.25433362 63.4843369,0.205036498 55.6654582,0.111563977 C51.4948454,0.0606595866 47.8330993,0.884175554 45.9232092,1.47622731 C44.1447483,1.16264208 42.2323748,0.987403272 40.2258196,0.954945074 C36.4651025,0.894994956 33.1419505,1.71478621 30.3024789,3.39977474 C28.7301185,2.86838256 26.2074246,2.11900609 23.2938134,1.64064672 C16.4410538,0.515606486 10.9181935,1.39233262 6.87847788,4.24617107 C1.98669015,7.7016391 -0.281127032,13.7051645 0.138346426,22.0901995 C0.271371835,24.7524814 1.76072432,32.8523098 4.10551888,40.5342613 C5.45315494,44.9494632 6.89018409,48.6161755 8.3766987,51.4331216 C10.484708,55.4276086 12.7402869,57.7800299 15.2725586,58.6246526 C16.6920284,59.0976911 19.2707703,59.4286584 21.9832471,57.1700642 C22.3269847,57.5861678 22.785479,57.9999653 23.3943806,58.3841426 C24.1673469,58.8717251 25.1127142,59.2700919 26.0566625,59.5061679 C29.4590977,60.3568209 32.6460319,60.1439802 35.3648939,58.951895 C35.3815664,59.4353982 35.3945141,59.8974399 35.4055109,60.2963388 C35.4236024,60.9435516 35.441339,61.577994 35.4651062,62.1712876 C35.6261558,66.1836884 35.8991237,69.3034006 36.7079184,71.4860812 C36.7522602,71.6063362 36.8120328,71.7892019 36.8751756,71.9830643 C37.2785088,73.2186044 37.9533909,75.2867061 39.6697735,76.9066009 C41.4475249,78.5843173 43.5975704,79.0988597 45.5667012,79.0988597 C46.5542817,79.0988597 47.4966337,78.9693814 48.3229876,78.7921915 C51.2692343,78.1609417 54.6150895,77.198902 57.0354425,73.7526569 C59.3236569,70.4945986 60.436104,65.5875572 60.6374157,57.8554112 C60.6634887,57.6368948 60.6876108,57.4281335 60.7108458,57.2291276 C60.7264542,57.0948605 60.7424172,56.9575784 60.7585575,56.8206509 L61.2977538,56.8680077 L61.4366325,56.8774082 C64.4373311,57.0141584 68.1063492,56.3777647 70.3596223,55.3311208 C72.1402118,54.5047672 77.8457602,51.4927169 76.5023808,47.425687" id="Path" fill="#000000"></path>
                <path d="M71.3716795,48.2167447 C62.4497539,50.0571068 61.8364183,47.0363659 61.8364183,47.0363659 C71.2565683,33.0584104 75.194475,15.3154814 71.7961193,10.973 C62.5251352,-0.87246932 46.4765949,4.7296741 46.2087705,4.87511521 L46.12257,4.89054616 C44.3598945,4.52463759 42.3872165,4.30665329 40.1701264,4.27047038 C36.1330712,4.2043124 33.0708262,5.32882053 30.7471383,7.09096378 C30.7471383,7.09096378 2.11811925,-4.70306902 3.44961491,21.9241838 C3.73287036,27.5889378 11.5687764,64.7862122 20.9151417,53.5508862 C24.3312342,49.4425295 27.6318607,45.9687927 27.6318607,45.9687927 C29.2712658,47.0578273 31.233834,47.6133415 33.2912938,47.4138034 L33.4511014,47.2781173 C33.4014388,47.7882256 33.4241416,48.2871595 33.515131,48.8777923 C31.1073711,51.5679206 31.8148891,52.0402497 27.001675,53.0310228 C22.1313487,54.0347439 24.9924592,55.8217186 26.8604907,56.2887265 C29.1251152,56.85506 34.3643654,57.6572918 37.9044375,52.7016519 L37.7632533,53.2670985 C38.7066693,54.022683 39.369136,58.1821214 39.2581042,61.9525936 C39.1470724,65.7232433 39.0729328,68.3119176 39.8162788,70.3339039 C40.5596248,72.3558902 41.3004874,76.9053592 47.6278855,75.5495643 C52.9150248,74.4165426 55.654816,71.4804055 56.0359783,66.5827646 C56.3064631,63.1008691 56.9185574,63.6155887 56.9572235,60.5026167 L57.4481759,59.0288726 C58.014332,54.3089536 57.5381012,52.7862561 60.79545,53.4944835 L61.5870399,53.5640112 C63.9845125,53.6730921 67.1223159,53.1784149 68.9639196,52.3224408 C72.9294956,50.4820787 75.281385,47.4093691 71.3713246,48.2167447 L71.3716795,48.2167447" id="Path" fill="#336791"></path>
                <path d="M32.4229039,24.4575197 C31.6190758,24.345601 30.8908059,24.4491834 30.522414,24.7280047 C30.315072,24.8849746 30.2510424,25.0667761 30.2338377,25.1919973 C30.1875447,25.5234966 30.4198959,25.8899373 30.5624991,26.0790107 C30.9661869,26.6141276 31.5561103,26.9819872 32.140003,27.063044 C32.2246072,27.0747503 32.3086795,27.080426 32.3923966,27.080426 C33.3661426,27.080426 34.2512051,26.3223586 34.3292468,25.762765 C34.4267987,25.0619871 33.4094203,24.5948019 32.4229039,24.4575197" id="Path" fill="#FFFFFF"></path>
                <path d="M59.0581382,24.4796906 L59.0579606,24.4796906 C58.9813382,23.9303843 58.0036901,23.7737691 57.0760595,23.902715 C56.1498478,24.0318384 55.2514831,24.4498929 55.3265095,25.0004407 C55.3868143,25.4286052 56.1596032,26.1595354 57.0748181,26.1593581 C57.1519727,26.1593581 57.2300144,26.1542144 57.308588,26.1432177 C57.9194405,26.0586135 58.3676477,25.6707114 58.5804881,25.4470514 C58.9048928,25.1065063 59.09237,24.7265857 59.0581382,24.4796906" id="Path" fill="#FFFFFF"></path>
                <path d="M74.3406294,48.0076288 C74.0004389,46.9788988 72.9055511,46.6477543 71.0862955,47.0235955 C65.6847545,48.1383484 63.7503877,47.3660914 63.1150585,46.8983743 C67.3136952,40.5021577 70.7675668,32.7708982 72.6308093,25.5571964 C73.5135659,22.1402171 74.0011484,18.9669402 74.0408786,16.3805716 C74.0848658,13.5412772 73.60154,11.4552614 72.6042044,10.180878 C68.5834668,5.04325931 62.682637,2.28750494 55.5395275,2.21176914 C50.6289386,2.15660794 46.4799648,3.413432 45.6756045,3.7667475 C43.9817477,3.34550035 42.1351778,3.08689896 40.1250751,3.05390868 C36.4384976,2.99431328 33.2520955,3.87689253 30.6137583,5.67575081 C29.4677887,5.24936004 26.506111,4.23269117 22.8844499,3.64933041 C16.6226778,2.6409978 11.6469954,3.40491839 8.09610377,5.92051755 C3.85915581,8.92228025 1.90315019,14.2879932 2.28218393,21.8683131 C2.40971095,24.4188536 3.86270316,32.2643377 6.1560612,39.7779673 C9.1746738,49.6670765 12.4557899,55.2654949 15.90842,56.416963 C16.3124625,56.551762 16.7785836,56.6461214 17.292239,56.6461214 C18.5517236,56.6461214 20.0957052,56.0783689 21.7022974,54.1470175 C24.3707871,50.9366708 26.8622643,48.2465422 27.7806718,47.2690717 C29.1378857,47.9976961 30.6286572,48.4043992 32.1538378,48.4451935 C32.1564982,48.4851013 32.1605776,48.5250088 32.1641251,48.564739 C31.8581668,48.9276325 31.6071922,49.2456518 31.393287,49.517201 C30.3367107,50.8584518 30.1167753,51.1376279 26.7155817,51.8380512 C25.7482209,52.0375893 23.1783473,52.5672075 23.1409229,54.3683716 C23.099951,56.3362609 26.178159,57.1627922 26.5289914,57.2504114 C27.7512288,57.55637 28.9285924,57.7073096 30.0515043,57.7073096 C32.7826045,57.707132 35.1857528,56.8096541 37.1064624,55.0730515 C37.0472217,62.0888116 37.3398777,69.0020535 38.1821946,71.1084664 C38.8719756,72.8326532 40.5574963,77.0465434 45.8815278,77.0465434 C46.6624759,77.0465434 47.5225294,76.9557316 48.4684288,76.7530008 C54.0246339,75.5616252 56.4373603,73.105976 57.370844,67.6920192 C57.8703098,64.798628 58.7275256,57.8891108 59.1305039,54.1830229 C59.9813346,54.4483642 61.0767543,54.5698609 62.260858,54.5696836 C64.730519,54.5696836 67.5801006,54.0450312 69.3672526,53.2154847 C71.3746948,52.2832428 74.9975976,49.9952057 74.3406294,48.0076288 L74.3406294,48.0076288 Z M61.1088579,22.9633783 C61.0904115,24.0575566 60.9398268,25.050813 60.7801965,26.0877017 C60.608505,27.2028094 60.4307829,28.3556963 60.3860865,29.755301 C60.341922,31.1173038 60.5120172,32.5334035 60.676614,33.9026785 C61.0090002,36.6685428 61.3500771,39.5161735 60.0295785,42.3260249 C59.8243644,41.9615351 59.6262453,41.5638779 59.4446214,41.1234751 C59.2805568,40.7256403 58.924226,40.0865863 58.4309678,39.2020561 C56.511145,35.7593585 52.0155957,27.6973092 54.3169351,24.4075021 C55.0022821,23.4280804 56.7418997,22.4215214 61.1088579,22.9633783 L61.1088579,22.9633783 Z M55.815688,4.42744035 C62.2158067,4.56880203 67.278399,6.96308203 70.8629902,11.5434129 C73.6121822,15.0567027 70.5848785,31.0428096 61.8209872,44.8339971 C61.7344321,44.7240294 61.6462806,44.6129976 61.5551136,44.4991278 C61.5187533,44.4535446 61.4816838,44.4072516 61.4442591,44.3604267 C63.7088839,40.6202842 63.2659978,36.9198723 62.8718881,33.6389335 C62.7099517,32.2925389 62.5570612,31.020816 62.5959046,29.8264252 C62.636167,28.5600233 62.8036015,27.4743586 62.9653606,26.4243447 C63.1645438,25.1302735 63.3669199,23.7915058 63.3110491,22.213115 C63.3527305,22.0476314 63.3695803,21.8519953 63.3477643,21.6198216 C63.2051608,20.1061698 61.4772495,15.5767434 57.9550913,11.4765455 C56.028706,9.2342692 53.2190322,6.72470049 49.3829342,5.03208518 C51.0329813,4.6901212 53.289447,4.37121494 55.815688,4.42744035 L55.815688,4.42744035 Z M20.0022327,52.7334006 C18.2322853,54.8614525 17.0098704,54.4536853 16.6079563,54.3197731 C13.9887747,53.446062 10.9499422,47.9106088 8.27063313,39.1325281 C5.95226628,31.537132 4.59735816,23.8995224 4.49022837,21.7578133 C4.15163434,14.9845142 5.79352262,10.2638859 9.3704872,7.72717999 C15.1916791,3.59895812 24.7624139,6.06986076 28.6080898,7.32313748 C28.5527512,7.37758919 28.4952843,7.42867098 28.4404778,7.48400955 C22.1299298,13.8573456 22.2796277,24.7462735 22.2950586,25.4117553 C22.2945265,25.668583 22.315988,26.0321858 22.3456083,26.5323613 C22.454157,28.3636778 22.6561783,31.7723209 22.1164498,35.632541 C21.614678,39.2196154 22.7203852,42.7305995 25.1496065,45.2651769 C25.4011132,45.5275029 25.6636167,45.7738659 25.9348112,46.0056849 C24.8534033,47.1637156 22.5034651,49.724366 20.0022327,52.7334006 L20.0022327,52.7334006 Z M26.7459114,43.7353847 C24.7879548,41.6926466 23.898813,38.8510464 24.3060481,35.9386766 C24.8761063,31.8608272 24.6655714,28.3094034 24.5525885,26.4014643 C24.5368028,26.1345267 24.5227908,25.9005793 24.5144546,25.7159401 C25.4364093,24.8986319 29.7086534,22.6093533 32.7552901,23.3074707 C34.145849,23.6260222 34.9927775,24.572631 35.3450288,26.2012168 C37.1680089,34.6320125 35.5864253,38.1460116 34.3155893,40.9696978 C34.0536179,41.5514621 33.8061907,42.1013006 33.594769,42.6702944 L33.431059,43.1099879 C33.0163744,44.2219029 32.6306008,45.2555991 32.3915098,46.2373266 C30.3102831,46.2309414 28.2854589,45.3419769 26.7459114,43.7353847 L26.7459114,43.7353847 Z M27.0653498,55.1055097 C26.4576897,54.9536836 25.911044,54.6899386 25.5903641,54.4712446 C25.8581885,54.3451366 26.3349516,54.1738 27.1616602,54.0035274 C31.162887,53.1796566 31.7806573,52.5984243 33.1300669,50.885057 C33.4395727,50.492366 33.7902277,50.0469968 34.2758591,49.5046079 C34.2760364,49.5042533 34.276214,49.504076 34.2763913,49.5038984 C34.9998722,48.6940399 35.3306618,48.831322 35.9306951,49.0801682 C36.4170359,49.2814802 36.8906067,49.8909137 37.0826952,50.5617164 C37.1735073,50.8784945 37.2756708,51.4799465 36.9416883,51.947664 C34.1227913,55.8944392 30.0153213,55.8437122 27.0653498,55.1055097 L27.0653498,55.1055097 Z M48.0049681,74.5912491 C43.1101652,75.6400215 41.3771101,73.1425139 40.2350428,70.2874336 C39.4979047,68.4440562 39.1357207,60.1320966 39.3927259,50.953166 C39.3960958,50.8309601 39.3787138,50.7130109 39.3450142,50.6021564 C39.3157486,50.388074 39.2706973,50.1715088 39.208264,49.9535243 C38.8258602,48.6179491 37.8945051,47.5007131 36.7770915,47.0376073 C36.3331415,46.8536776 35.518139,46.5161478 34.5388946,46.7665903 C34.7478332,45.9061818 35.1100172,44.9347419 35.5025306,43.8825995 L35.667305,43.4398907 C35.852831,42.9409568 36.0853595,42.424109 36.3315449,41.8771085 C37.6614444,38.9225253 39.4828285,34.8758924 37.5060708,25.7338541 C36.7655628,22.3097801 34.2930638,20.6377394 30.5447625,21.0259962 C28.2975198,21.2585246 26.2418338,22.1652258 25.216474,22.6850891 C24.9960065,22.7968305 24.79434,22.9046697 24.605976,23.0098485 C24.8920693,19.5597015 25.9734772,13.1122259 30.0181593,9.0329574 C32.5646203,6.46468016 35.9562359,5.19632724 40.0885375,5.2646136 C48.2305792,5.39799375 53.451738,9.57641054 56.3983393,13.0583063 C58.937351,16.0588274 60.3123018,19.0811647 60.8610759,20.7111694 C56.7346277,20.2916959 53.9281461,21.1063436 52.5053064,23.1402134 C49.4102486,27.5644611 54.1986313,36.1518722 56.4999709,40.2788524 C56.9219276,41.0353234 57.2862398,41.6889218 57.4008188,41.9666789 C58.1501954,43.7829191 59.1203939,44.9954013 59.8287987,45.880641 C60.0458961,46.1518356 60.2566083,46.4148711 60.4167711,46.6445617 C59.1670416,47.0049718 56.9221049,47.8373563 57.1266092,51.9985683 C56.9616578,54.0867126 55.7881963,63.8624839 55.1922424,67.3163556 C54.4054414,71.8793045 52.7263059,73.5790145 48.0049681,74.5912491 L48.0049681,74.5912491 Z M68.436252,51.2101712 C67.1583213,51.8034645 65.0196275,52.2484788 62.9878861,52.3439022 C60.7438362,52.449081 59.6015913,52.092573 59.3328801,51.8733471 C59.2065945,49.2802385 60.1720041,49.0092214 61.1934621,48.7224184 C61.3539792,48.6771898 61.5105945,48.6333802 61.6617115,48.5805247 C61.7557162,48.6569701 61.8585892,48.7328833 61.9712173,48.8072002 C63.7748644,49.9976888 66.9919509,50.1261026 71.5334383,49.1887169 C71.5501108,49.1851697 71.5667833,49.1819771 71.5832785,49.1786072 C70.9708297,49.7513258 69.9225895,50.5200353 68.436252,51.2101712 L68.436252,51.2101712 Z" id="Shape" fill="#FFFFFF"></path>
            </g>
        </g>
    </g>
</svg>